<?xml version="1.0" encoding="utf-8"?>
<!-- Generator: Adobe Illustrator 21.0.0, SVG Export Plug-In . SVG Version: 6.00 Build 0)  -->
<svg version="1.1" id="Слой_1" xmlns="http://www.w3.org/2000/svg" xmlns:xlink="http://www.w3.org/1999/xlink" x="0px" y="0px"
	 viewBox="0 0 941.8 1205.7" style="enable-background:new 0 0 941.8 1205.7;" xml:space="preserve">
<style type="text/css">
	.st0{fill:#F7EBA6;}
	.st1{fill:#C0F5FF;}
	.st2{fill:#282728;fill-opacity:0.1;}
	.st3{fill:#2D353A;}
	.st4{fill:#FDFDFD;}
	.st5{opacity:0.2;fill:#2D353A;}
	.st6{fill:#D8D8D8;}
	.st7{fill:#FFFFFF;}
	.st8{fill:#39B6FF;}
	.st9{fill:#DBDBDB;}
	.st10{filter:url(#Adobe_OpacityMaskFilter);}
	.st11{mask:url(#SVGID_1_);}
	.st12{fill:#EF4B4B;}
	.st13{opacity:0.15;}
	.st14{fill:#FF9E5C;}
	.st15{fill:#A9FFE2;}
	.st16{opacity:0.15;fill:#2D353A;}
	.st17{fill:#36444C;}
	.st18{fill:#83969E;}
	.st19{fill:#687982;}
	.st20{fill:#F4F4A8;}
	.st21{filter:url(#Adobe_OpacityMaskFilter_1_);}
	.st22{mask:url(#SVGID_2_);}
	.st23{fill:#C5EDEF;}
	.st24{fill:#7C3828;}
	.st25{fill:#89635C;}
	.st26{fill:#9E8480;}
	.st27{fill:#3A1A13;}
	.st28{opacity:0.9;fill:#FFFFFF;}
	.st29{fill:none;}
	.st30{fill:#8768DD;}
	.st31{fill:#B5A6FF;}
	.st32{fill:#FFE1B6;}
	.st33{fill:#FC6363;}
	.st34{fill:#432918;}
	.st35{fill-rule:evenodd;clip-rule:evenodd;fill:#B2B2B2;}
	.st36{fill-rule:evenodd;clip-rule:evenodd;fill:#C6C6C6;}
	.st37{fill-rule:evenodd;clip-rule:evenodd;fill:#878787;}
	.st38{fill-rule:evenodd;clip-rule:evenodd;fill:#432918;}
	.st39{fill-rule:evenodd;clip-rule:evenodd;fill:#9D9D9C;}
	.st40{fill:#A3B8C1;}
	.st41{fill:#B2AFAF;}
	.st42{fill:#FF6700;}
	.st43{opacity:0.5;}
	.st44{fill:#2D353A;stroke:#000000;stroke-miterlimit:10;}
	.st45{filter:url(#Adobe_OpacityMaskFilter_2_);}
	.st46{mask:url(#SVGID_3_);}
	.st47{fill:#C4C4C4;}
	.st48{fill:#9B9B9B;}
	.st49{filter:url(#Adobe_OpacityMaskFilter_3_);}
	.st50{mask:url(#SVGID_4_);}
	.st51{font-family:'MyriadPro-Regular';}
	.st52{font-size:72px;}
	.st53{fill:#FDFDFD;stroke:#000000;stroke-width:3;stroke-miterlimit:10;}
	.st54{fill:#1FBBE5;}
	.st55{filter:url(#Adobe_OpacityMaskFilter_4_);}
	.st56{mask:url(#SVGID_5_);}
	.st57{filter:url(#Adobe_OpacityMaskFilter_5_);}
	.st58{mask:url(#SVGID_6_);}
	.st59{display:none;}
	.st60{display:inline;fill:#525252;}
	.st61{display:inline;fill:#FFFFFF;}
	.st62{display:inline;fill-rule:evenodd;clip-rule:evenodd;fill:#FFFFFF;}
	.st63{fill:#F9D7C0;}
	.st64{fill-rule:evenodd;clip-rule:evenodd;fill:#2D353A;}
	.st65{fill:#4E595E;stroke:#000000;stroke-width:8;stroke-miterlimit:10;}
	.st66{fill-rule:evenodd;clip-rule:evenodd;}
	.st67{opacity:0.3;}
	.st68{fill:#E4CDBA;}
	.st69{fill:#D9BFA9;}
	.st70{fill:#F1F1F1;}
	.st71{fill:#C2A792;}
	.st72{fill:#4C4C4C;}
	.st73{fill:#E4CDBA;stroke:#000000;stroke-miterlimit:10;}
	.st74{fill:#2E2E2E;}
	.st75{fill:#171717;}
	.st76{fill:#4A2744;}
	.st77{opacity:5.000000e-02;}
	.st78{filter:url(#Adobe_OpacityMaskFilter_6_);}
	.st79{fill:#FFFFFF;stroke:#000000;stroke-miterlimit:10;}
	.st80{mask:url(#SVGID_7_);}
	.st81{fill:#F0F0F0;}
	.st82{fill:#C7ECFF;}
	.st83{fill:#6B461F;}
	.st84{fill:#82A54A;}
	.st85{fill:#9CCA65;}
	.st86{fill:#A0CA42;}
	.st87{opacity:0.15;stroke:#000000;stroke-miterlimit:10;}
	.st88{fill:#9ED891;}
	.st89{fill:#F8FF97;}
	.st90{fill:#7C573E;}
	.st91{fill:#AF7B58;}
	.st92{fill:#CEA67A;}
	.st93{fill:#BD9870;}
	.st94{fill:#FFE694;}
	.st95{fill:#FFA3B7;}
	.st96{fill:#9292FF;}
	.st97{fill:#FF7F00;}
	.st98{fill:#F599CB;}
	.st99{fill:#050505;}
	.st100{opacity:0.4;fill:#FFFFFF;}
	.st101{opacity:0.15;fill:#050505;}
	.st102{fill:#181C1E;}
	.st103{fill:#7C7C7C;}
	.st104{display:none;opacity:0.25;fill:#FFFFFF;}
	.st105{fill:#F2F2F2;}
	.st106{fill:#191919;}
	.st107{fill:#E6E6E6;}
	.st108{fill:#E2EEF2;}
	.st109{opacity:0.1;fill:#2D353A;}
	.st110{fill-rule:evenodd;clip-rule:evenodd;fill:#D8D8D8;}
	.st111{fill:#03BFD8;}
	.st112{fill:#94F7FF;}
	.st113{fill:#06ABC6;}
	.st114{fill:#202021;}
	.st115{filter:url(#Adobe_OpacityMaskFilter_7_);}
	.st116{mask:url(#SVGID_8_);}
</style>
<g>
	<g>
		<ellipse class="st2" cx="494.8" cy="1091.5" rx="350.5" ry="48.6"/>
		<ellipse class="st2" cx="500.3" cy="1059.8" rx="196.1" ry="40.3"/>
		<g>
			<path class="st3" d="M754.8,770.4c0,0-62.9-168.4-89.2-180.7c-26.3-12.3-383-14.2-383-14.2s-49.6,124.4-60.8,195.8
				c-27.4,91.4,2.9,186.5,2.9,186.5c303.5,229.9,531-8.2,531-8.2C787.8,867,754.8,770.4,754.8,770.4z"/>
			<path d="M754,770.7c-4.3-11.4-8.7-22.8-13.4-34.1c-4.6-11.3-9.4-22.6-14.3-33.8c-4.9-11.2-10-22.3-15.3-33.3
				c-5.3-11-10.8-21.9-16.6-32.6c-2.9-5.3-5.9-10.6-9-15.8c-3.1-5.2-6.4-10.3-9.9-15c-1.8-2.4-3.6-4.7-5.5-6.8c-1.9-2.1-4-4-5.8-5.1
				c-1.6-0.8-4.3-1.3-7.2-1.8c-2.9-0.4-5.8-0.8-8.8-1c-12-1.1-24.1-1.6-36.3-2.1c-12.2-0.5-24.3-0.9-36.5-1.2
				c-48.8-1.4-97.6-2.6-146.4-4.2l-73.3-2.6l-36.6-1.2c-12.2-0.4-24.4-0.7-36.6-1.1l3.3-2.2c-3.3,7.9-6.5,15.8-9.6,23.7
				c-3.1,8-6.2,15.9-9.2,23.9c-1.5,4-3,8-4.4,12l-4.3,12.1l-4.2,12.1c-1.4,4-2.7,8.1-4,12.2l-2,6.1l-1.9,6.1
				c-1.3,4.1-2.6,8.1-3.8,12.2l-3.6,12.3c-1.2,4.1-2.2,8.2-3.4,12.3c-0.5,2.1-1.1,4.1-1.7,6.2l-1.5,6.2c-1,4.1-2.1,8.3-2.9,12.4
				c-0.9,4.2-1.8,8.3-2.6,12.5l-2.1,12.5l0,0.2l-0.1,0.2l-1.5,5.6l-0.7,2.8l-0.6,2.8l-1.3,5.7l-1.1,5.7l-0.5,2.9l-0.5,2.9l-0.9,5.8
				c-0.5,3.9-1,7.7-1.3,11.6c-0.2,1.9-0.4,3.9-0.5,5.8l-0.4,5.8c-0.2,1.9-0.2,3.9-0.3,5.8c-0.1,1.9-0.2,3.9-0.2,5.8l-0.1,5.8l0,5.8
				c0,1.9,0.1,3.9,0.1,5.8c0.1,1.9,0.1,3.9,0.2,5.8l0.3,5.8l0.4,5.8c0.1,1.9,0.3,3.9,0.5,5.8c0.2,1.9,0.4,3.9,0.6,5.8
				c0.4,3.9,0.9,7.7,1.4,11.6l0.9,5.8l0.9,5.7l1,5.7l1.1,5.7c0.8,3.8,1.6,7.6,2.5,11.4c0.9,3.8,1.8,7.5,2.8,11.3
				c0.5,1.9,1,3.7,1.5,5.6c0.5,1.8,1.1,3.7,1.6,5.4l-2.2-3.2l14.7,10.4c5,3.4,9.9,6.8,14.9,10.1l7.6,4.8c2.5,1.6,5,3.3,7.6,4.8
				l7.7,4.6c1.3,0.8,2.6,1.6,3.9,2.3l3.9,2.2l7.8,4.4c2.6,1.5,5.3,2.8,7.9,4.2c2.7,1.4,5.3,2.8,8,4.1l8.1,3.9l4,2l4.1,1.8l8.2,3.7
				c2.7,1.2,5.5,2.3,8.3,3.4c2.8,1.1,5.5,2.3,8.3,3.3l8.4,3.1c2.8,1.1,5.6,1.9,8.4,2.9c5.6,2,11.3,3.6,17,5.4
				c2.8,0.9,5.7,1.6,8.6,2.4l4.3,1.2c1.4,0.4,2.9,0.7,4.3,1l8.7,2l8.7,1.7c2.9,0.6,5.8,1.1,8.8,1.6c2.9,0.5,5.8,1,8.8,1.4l8.8,1.2
				l8.8,0.9c11.8,1.1,23.6,1.7,35.5,1.7c11.8,0,23.7-0.7,35.5-1.9c11.8-1.2,23.5-2.9,35.1-5.3c11.6-2.4,23.1-5.3,34.5-8.7
				c11.4-3.5,22.6-7.4,33.6-11.9c11-4.4,21.9-9.4,32.5-14.7c10.6-5.4,21.1-11.2,31.3-17.4c10.2-6.2,20.2-12.9,29.8-20
				c4.8-3.6,9.6-7.2,14.2-11c2.3-1.9,4.6-3.8,6.9-5.8c2.2-1.9,4.5-4,6.6-5.9l-0.9,1.4l2.1-5.2c0.3-0.9,0.7-1.7,1-2.6l0.9-2.6
				c0.6-1.8,1.2-3.5,1.8-5.3l1.6-5.4c0.6-1.8,1-3.6,1.5-5.4c0.4-1.8,1-3.6,1.3-5.5l1.2-5.5c0.4-1.8,0.7-3.7,1-5.5
				c0.3-1.8,0.7-3.7,0.9-5.6l0.8-5.6c0.4-3.7,0.9-7.5,1.1-11.2c0.3-3.8,0.5-7.5,0.7-11.3c0.1-3.8,0.2-7.6,0.1-11.3
				c0-3.8-0.2-7.6-0.3-11.3l-0.3-5.7c-0.1-1.9-0.3-3.8-0.4-5.7c-0.1-1.9-0.3-3.8-0.5-5.7c-0.2-1.9-0.4-3.8-0.6-5.6
				c-0.4-3.8-0.9-7.5-1.5-11.3c-0.6-3.7-1.2-7.5-1.9-11.2c-0.4-1.9-0.7-3.7-1.1-5.6c-0.4-1.9-0.8-3.7-1.2-5.6
				c-0.8-3.7-1.7-7.4-2.7-11C756.2,777.9,755.2,774.2,754,770.7z M755.5,770.1c1.2,3.6,2.3,7.3,3.3,11c1,3.7,2,7.4,2.8,11.1
				c0.9,3.7,1.7,7.4,2.5,11.2c0.8,3.7,1.5,7.5,2.1,11.2c0.6,3.8,1.3,7.5,1.8,11.3c0.3,1.9,0.6,3.8,0.8,5.7c0.2,1.9,0.5,3.8,0.7,5.7
				l0.6,5.7l0.5,5.7c0.3,3.8,0.6,7.6,0.7,11.4c0.2,3.8,0.3,7.6,0.4,11.5c0,3.8,0,7.7-0.1,11.5c-0.1,3.8-0.3,7.7-0.6,11.5l-0.5,5.7
				c-0.1,1-0.2,1.9-0.3,2.9l-0.3,2.9c-0.2,1.9-0.4,3.8-0.7,5.7l-0.9,5.7c-0.3,1.9-0.7,3.8-1.1,5.7c-0.4,1.9-0.7,3.8-1.2,5.7
				l-1.3,5.7c-0.5,1.9-1,3.7-1.6,5.6l-0.8,2.8c-0.3,0.9-0.6,1.8-0.9,2.8l-1.8,5.5l-0.2,0.7l-0.7,0.7c-2.2,2.4-4.3,4.5-6.5,6.7
				c-2.2,2.2-4.4,4.3-6.7,6.4c-4.5,4.2-9.2,8.2-13.9,12.1c-9.5,7.8-19.3,15.2-29.5,22.2c-10.2,6.9-20.7,13.4-31.5,19.4
				c-10.8,6-21.9,11.4-33.3,16.4c-11.4,4.9-22.9,9.3-34.8,13.1c-11.8,3.8-23.8,7-35.9,9.6c-12.1,2.6-24.4,4.6-36.8,5.9
				c-12.4,1.3-24.8,2-37.2,2.1c-12.4,0.1-24.9-0.7-37.2-1.9c-12.4-1.1-24.6-3.2-36.8-5.7l-9.1-1.9l-9-2.2c-1.5-0.4-3-0.7-4.5-1.1
				l-4.5-1.3c-3-0.9-6-1.6-8.9-2.6c-5.9-1.9-11.8-3.7-17.6-5.8c-2.9-1.1-5.8-2-8.7-3.2l-8.6-3.4c-2.9-1.1-5.7-2.4-8.5-3.6
				c-2.8-1.2-5.7-2.4-8.5-3.7l-8.4-3.9l-4.2-2l-4.1-2.1l-8.2-4.2c-2.7-1.4-5.4-2.9-8.1-4.4c-2.7-1.5-5.4-2.9-8.1-4.5l-8-4.7l-4-2.3
				c-1.3-0.8-2.6-1.6-3.9-2.4l-7.8-4.9c-2.6-1.6-5.2-3.3-7.7-5l-7.7-5.1c-5.1-3.5-10-7.1-15-10.6L220.9,963l-1.7-1.3l-0.6-1.9
				c-0.6-2.1-1.1-4-1.6-6c-0.5-2-1-3.9-1.4-5.9c-0.9-3.9-1.8-7.8-2.5-11.8c-0.8-3.9-1.5-7.9-2.1-11.8l-0.9-5.9l-0.8-5.9l-0.7-5.9
				l-0.6-5.9c-0.4-4-0.8-7.9-1-11.9c-0.2-2-0.3-4-0.4-6c-0.1-2-0.2-4-0.3-6l-0.2-6l-0.1-6c0-2,0-4,0-6c0-2,0-4,0.1-6l0.2-6l0.3-6
				c0.1-2,0.3-4,0.4-6c0.2-2,0.3-4,0.5-6l0.6-5.9c0.2-2,0.5-4,0.8-5.9c0.5-4,1.2-7.9,1.8-11.8l1.1-5.9l0.6-2.9l0.6-2.9l1.3-5.8
				l1.5-5.8l0.7-2.9l0.8-2.9l1.7-5.7l-0.1,0.4l2.4-12.7c0.9-4.2,1.9-8.4,2.9-12.6c0.9-4.2,2.1-8.3,3.2-12.5l1.6-6.2
				c0.5-2.1,1.2-4.1,1.7-6.2c1.2-4.1,2.3-8.3,3.5-12.4l3.7-12.3c1.2-4.1,2.6-8.2,3.8-12.3l1.9-6.1l2-6.1c1.3-4.1,2.6-8.2,4-12.2
				l4.1-12.2l4.1-12.2l4.2-12.2l4.3-12.1l4.3-12.1l4.4-12.1l4.4-12.1l0.8-2.2l2.5,0l73.4-0.9c12.2-0.1,24.5-0.3,36.7-0.3l36.7-0.1
				l18.3,0.1L466,571c12.2,0.2,24.5,0.4,36.7,0.7l18.3,0.5l18.3,0.7c6.1,0.2,12.2,0.5,18.3,0.8c6.1,0.3,12.2,0.6,18.3,1
				c6.1,0.4,12.2,0.7,18.3,1.2c6.1,0.4,12.2,0.9,18.3,1.4c12.2,1.1,24.5,2.3,36.8,4c3.1,0.5,6.2,1,9.3,1.6c1.6,0.3,3.1,0.7,4.9,1.2
				l1.4,0.5l0.7,0.2l0.5,0.2l0.5,0.2l0.3,0.1l0.4,0.2l0.2,0.1l1.4,0.8c1.7,1.1,3.1,2.3,4.3,3.5c1.2,1.2,2.3,2.5,3.3,3.8
				c2.1,2.6,3.9,5.2,5.6,7.8c6.8,10.6,12.3,21.6,17.5,32.7c5.2,11.1,10.2,22.3,15,33.6c4.8,11.3,9.4,22.6,14,33.9
				c4.6,11.3,9.1,22.7,13.5,34.1C746.8,747.3,751.2,758.7,755.5,770.1L755.5,770.1L755.5,770.1z"/>
		</g>
		<path class="st4" d="M221.8,771.4c0,0,313.1-110.3,532.9-1c0,0,33.1,96.6,1,179.3c0,0-227.5,238.1-531,8.2
			C224.7,957.9,194.5,862.7,221.8,771.4z"/>
		<path class="st5" d="M503.6,1019.6c-77,0-133-83.7-133-83.7l13.8,103c86.5,26.5,162.4,18.3,222.8-1.4l12.3-96.1
			C619.4,941.3,580.6,1019.6,503.6,1019.6z"/>
		<path d="M432.6,1055.3c0,0,36.3-135.5-167.8-203.5c-42.8-14.3-96.4,58.9-80.3,110.7s32.1,119.6,57.1,135.7
			C266.5,1114.3,432.6,1055.3,432.6,1055.3z"/>
		<path d="M327.7,997.2c14.5,51,9.2,99.2-33,111.2s-88.2-19.6-102.7-70.6c-7.2-25.5-2.3-52,6.8-72.6c9.1-20.6,34.1-45.4,55.3-51.4
			C296.3,901.8,313.2,946.2,327.7,997.2z"/>
		<path class="st3" d="M194,1041.8c-7.2-25.5-2.3-52,6.8-72.6c9.1-20.6,34.1-45.4,55.3-51.4c25.7-7.3,42,6.3,54.2,29.5
			c-12.3-25.6-29-41.2-56.2-33.5c-21.1,6-46.2,30.7-55.3,51.4c-9.1,20.6-14,47.1-6.8,72.6c2.2,7.8,5.2,15.2,8.8,22
			C198.1,1054.1,195.8,1048.1,194,1041.8z"/>
		<path class="st3" d="M267.7,1100.3c0,0-58.6-121.9,42.5-123.7c0,0-7.5-30.2-27.1-42.6c-8.3-5.3-36.1-6.8-53.3,9.6
			c-7.9,7.6-37.5,54.4-26.6,85.9C216.3,1067.4,234.9,1088.4,267.7,1100.3z"/>
		<path class="st3" d="M318.3,1012.1c0,0,16.6,56.5-35.7,88.1C282.6,1100.3,347,1085.1,318.3,1012.1z"/>
		<path class="st3" d="M311.8,870.5c-14.1-6.7-28.9-16.6-47.1-18.7c-15.8-1.8-37.9,9.7-54.3,29.4c-19.4,23.3-28.5,48.2-26,81.3
			c0.3,4.3,2.6,8.4,3.8,12.7c8.5-32.8,25.3-79.2,51.7-76.6C268.6,901.4,295.8,883.8,311.8,870.5z"/>
		<path class="st6" d="M243.3,857.2c-10.4,5-21,13.3-29.9,24c-19.4,23.3-28.5,48.2-26,81.3c0.3,4.3,2.6,8.4,3.8,12.7
			c0.2-0.7,0.4-1.3,0.5-2c0.8-22.3-6-45.3,16-75.9C214.6,887.9,228.1,870.5,243.3,857.2z"/>
		<path class="st3" d="M567.9,1052c0,0-34.3-136,170.8-201c43.1-13.6,95.5,60.3,78.7,111.9s-33.9,119.1-59.1,134.8
			C733,1113.4,567.9,1052,567.9,1052z"/>
		<path d="M673.6,996.2c-15.2,50.8-10.7,99.1,31.3,111.7c42,12.6,88.5-18.3,103.7-69.1c7.6-25.4,3.1-51.9-5.7-72.7
			c-8.8-20.8-33.5-45.9-54.5-52.2C706.4,901.3,688.8,945.4,673.6,996.2z"/>
		<path class="st3" d="M743.3,933.9c-3.7,0.4-5.2-1.2-5-4.3c11.1,0.5,24.3,4.2,33.9,13.7c17.2,16.9,23.4,51.7,29,68.9
			C801.3,1012.3,773.2,930.6,743.3,933.9z"/>
		<path class="st3" d="M711.1,938.2c0,0-13,71.5,3.6,110.7c13.7,32.4,60.7,26.5,60.7,26.5s0.5,9.8-12.3,17.6
			c-22.3,13.5-62.4,23.2-81.1-8.3C648.2,1027.7,700.7,938.2,711.1,938.2z"/>
		<path class="st6" d="M711.1,938.2c-10.4,0-62.9,89.5-29.2,146.4c-15.1-62.5,11.7-117.1,28.7-143.7
			C710.9,939.1,711.1,938.2,711.1,938.2z"/>
		<path d="M738.7,851c-170.3,54-175.6,156.8-172.5,190.2c0.9,6.8,2.1,10.8,2.1,10.8s49.7,18.5,98.7,32.5l0,0c0,0-91.1-37.8-73.9-89
			c11.4-33.8,46.1-99,132.2-131.5c38.5-12.1,52.6,12.5,66.1,27.9c21.1,23.9,23.1,68.9,19.9,89.8c0,0,6.1-19.1,6.1-19.1
			c0.3-0.8,0.5-1.6,0.7-2.4C832.5,909,781,837.6,738.7,851z"/>
		<path class="st6" d="M229.8,943.6c-7.9,7.6-37.5,54.4-26.6,85.9c6.7,19.3,14.8,34.3,25.5,45.8c-11.1-16.7-25.5-44.1-21.5-68.1
			c12.5-74.1,53.3-76.9,80.9-69.5c-1.6-1.4-3.2-2.6-5-3.7C274.8,928.7,247,927.2,229.8,943.6z"/>
		<path d="M675.2,177.8c0,0,57.4-135.5,138.3-16.3c40.7,60-11.2,112.9-50.8,121C723,290.6,675.2,177.8,675.2,177.8z"/>
		<path d="M338.7,155.4c0,0-62-124-148.4-38.6s38.6,143.4,51.9,143.4S333.6,209.3,338.7,155.4z"/>
		<path class="st3" d="M297,173.4c0,0-11.6-53.2-59-75c-25.4-11.7-100.1,81.3-45.2,121.5c39,28.5,63.5,30,63.5,30
			S301.1,232.1,297,173.4z"/>
		<path class="st3" d="M668.1,191c0,0,19.3-69.1,78.3-67.1c59,2,56.9,56.9,29.5,81.3c-27.5,24.4-79.3,36.6-79.3,36.6L668.1,191z"/>
		<path class="st6" d="M772.4,129.6c-6.9-3.3-15.5-5.4-26-5.7c-59-2-78.3,67.1-78.3,67.1l3.9,7c6.7-24.6,24.9-57.4,73.9-65.4
			C755.7,130.9,764.6,130,772.4,129.6z"/>
		<path class="st6" d="M192.8,219.9c39,28.5,63.5,30,63.5,30s2.6-1,6.5-3.4c-26.7-7.7-54.3-21.4-69.5-48.4
			c-21.4-37.9,7.9-76.2,31.5-98.8c-0.5,0.2-1,0.4-1.5,0.7l-22.5,18C176.1,145.5,157.2,193.9,192.8,219.9z"/>
		<g>
			<path class="st7" d="M523.2,129c0,0,152.5-13.7,227.2,137.3s13.7,234.9-7.6,265.4c-21.4,30.5-69.6,85.4-268.4,85.4
				c-190.4,0-311.1-71.7-259.3-292.8S523.2,129,523.2,129z"/>
			<path d="M523.2,128.6c0.3,0,1.9-0.2,4.9-0.2c3.3-0.1,8.2-0.1,14.5,0.2c12.7,0.6,31.4,2.5,54.3,8.6c11.4,3.1,23.9,7.3,37,13.2
				c13,5.9,26.7,13.3,40.1,23c13.5,9.6,26.7,21.3,39.1,35.2c12.3,13.9,23.7,29.9,33.5,47.8c4.9,9,9.4,18.3,13.8,28
				c4.3,9.7,8.4,19.7,11.9,30.1c7.2,20.8,12.7,43,15,66.4c1.2,11.7,1.5,23.6,0.9,35.6c-0.7,12-2.4,24.2-5.2,36.2
				c-2.8,12-6.8,23.9-11.9,35.4c-5.1,11.5-11.3,22.7-18.4,33.3c-3.5,5.3-7.2,10.6-10.9,15.8c-3.8,5.2-8,10.3-12.5,15
				c-9.1,9.5-19.6,17.6-31,24.5c-1.4,0.9-2.8,1.7-4.3,2.5c-1.4,0.8-2.9,1.6-4.3,2.4c-3,1.5-5.9,3.1-8.9,4.5l-4.5,2.1l-4.6,2
				c-3,1.3-6.2,2.5-9.3,3.7c-12.5,4.7-25.4,8.5-38.4,11.6c-13.1,3.1-26.3,5.5-39.6,7.5c-13.4,1.9-26.8,3.4-40.3,4.5
				c-27,2.2-54.2,2.9-81.3,2.7c-27.2-0.4-54.4-2.2-81.3-6.6c-13.4-2.2-26.7-5-39.8-8.8c-3.3-0.9-6.5-1.9-9.8-2.9
				c-3.2-1.1-6.5-2.1-9.6-3.3c-6.4-2.3-12.7-4.8-18.8-7.6c-6.2-2.8-12.2-5.9-18.1-9.3c-5.9-3.3-11.6-7-17-11
				c-10.9-7.9-20.9-17.2-29.5-27.5c-4.3-5.2-8.2-10.6-11.8-16.2c-3.6-5.6-6.7-11.5-9.6-17.4c-2.8-6-5.2-12.1-7.4-18.3
				c-1-3.1-2.1-6.2-2.9-9.4c-0.4-1.6-0.9-3.1-1.3-4.7l-1.1-4.7c-2.9-12.6-4.5-25.4-5.2-38c-0.7-12.6-0.5-25.2,0.3-37.5
				c0.8-12.3,2.3-24.5,4.2-36.4c1.9-11.9,4.3-23.5,7-34.9c5.2-22.9,13.2-44.7,23.6-64.3c10.3-19.7,23.3-37.1,37.6-51.8
				c14.3-14.8,30-26.8,45.9-36.6c15.9-9.7,32-17.2,47.6-23c15.5-5.8,30.5-9.9,44.5-13c14-3.1,27-5.1,38.8-6.5
				c23.6-2.7,42.3-3,55-2.8c6.4,0.1,11.2,0.4,14.5,0.6C521.3,128.4,523,128.5,523.2,128.6z M523.2,129.4c0,0-1.7-0.2-4.9-0.4
				c-3.3-0.2-8.1-0.4-14.5-0.5c-6.3-0.1-14.2,0-23.3,0.5c-9.2,0.5-19.7,1.3-31.4,2.8c-11.7,1.5-24.6,3.8-38.5,7.1
				c-13.8,3.3-28.6,7.8-43.9,13.8c-15.3,6.1-31,13.8-46.5,23.7c-15.4,9.9-30.6,22.1-44.2,36.8c-13.7,14.7-25.7,31.9-35.5,51.2
				c-9.8,19.3-17.1,40.5-22.1,62.9c-2.6,11.3-4.8,22.8-6.5,34.5c-1.8,11.7-3.2,23.6-4,35.6c-0.8,12-0.9,24.3-0.2,36.5
				c0.8,12.2,2.3,24.5,5.1,36.7c1.4,6.1,3.1,12.1,5,18c2,5.9,4.3,11.7,7,17.4c2.7,5.7,5.7,11.2,9,16.6c3.4,5.3,7.1,10.5,11.1,15.4
				c4,4.9,8.5,9.5,13.1,13.9c4.6,4.4,9.6,8.5,14.8,12.4c5.2,3.9,10.6,7.4,16.2,10.7c5.6,3.3,11.4,6.3,17.4,9.1
				c23.8,11.1,49.7,18.1,76,22.6c26.4,4.5,53.3,6.5,80.2,7c27,0.4,54-0.2,80.8-2.2c13.4-1,26.7-2.4,39.9-4.3
				c13.2-1.9,26.3-4.3,39.2-7.2c12.9-3,25.6-6.6,37.8-11.2c3.1-1.2,6.1-2.3,9.1-3.6l4.5-1.9l4.4-2c3-1.3,5.8-2.9,8.7-4.3
				c1.4-0.7,2.8-1.6,4.2-2.3c1.4-0.8,2.8-1.6,4.2-2.4c11.1-6.6,21.3-14.4,30.1-23.5c4.4-4.5,8.5-9.4,12.2-14.5
				c3.8-5.1,7.4-10.3,10.9-15.6c7-10.5,13.2-21.3,18.2-32.6c5-11.3,9-22.9,11.9-34.6c2.8-11.8,4.6-23.6,5.3-35.4
				c0.8-11.8,0.5-23.5-0.5-35c-2.1-23-7.3-45.1-14.3-65.7c-3.4-10.3-7.4-20.3-11.5-30c-4.2-9.6-8.6-19-13.3-28
				c-9.5-17.9-20.5-33.9-32.7-47.9c-12.1-13.9-25.2-25.7-38.5-35.4c-13.3-9.7-26.8-17.3-39.8-23.2c-13-5.9-25.4-10.1-36.8-13.3
				c-11.4-3.1-21.8-5.1-30.9-6.4c-9.1-1.3-16.9-1.9-23.2-2.2c-6.3-0.3-11.2-0.2-14.5-0.1L523.2,129.4L523.2,129.4z"/>
		</g>
		<path class="st3" d="M666.6,373.1c56.7,65.2-15.1,157.3-94.8,115.1c-31.2-16.5-52.6-112.2,2-149.3
			C604.3,318.2,640.6,343.3,666.6,373.1z"/>
		<path class="st3" d="M309.2,349.8c-62.4,59.8,0.8,158,84,123.2c32.6-13.6,62.5-107,11.5-148.8
			C376.2,300.8,337.7,322.5,309.2,349.8z"/>
		<g>
			<ellipse cx="604.6" cy="429.9" rx="34.6" ry="43.8"/>
			<path class="st7" d="M581.1,402.5c-1.3,0-2.6,0.2-3.8,0.5c-2.8,4.6-4.9,9.9-6.2,15.7c2.3,2.3,5.9,3.8,9.9,3.8
				c7,0,12.6-4.5,12.6-10S588,402.5,581.1,402.5z"/>
			<ellipse class="st8" cx="604.4" cy="464.1" rx="11.8" ry="5.1"/>
		</g>
		<g>
			<ellipse cx="368.9" cy="417.1" rx="34.6" ry="43.8"/>
			<ellipse class="st8" cx="368.8" cy="451.3" rx="11.8" ry="5.1"/>
			<path class="st7" d="M403.1,410c-0.8-6.3-2.7-12.2-5.4-17.3c-1.2-0.2-2.5-0.4-3.8-0.4c-7.8,0-14.1,4.5-14.1,10.1
				s6.3,10.1,14.1,10.1C397.4,412.5,400.6,411.6,403.1,410z"/>
		</g>
		<path d="M513.4,472.8c0,9-19.1,18.3-25.5,18.3s-24.6-8.7-24.6-18.2c0-4.7,12.1-8.8,24.4-8.5C500.4,464.9,513.4,468.3,513.4,472.8z
			"/>
		<g>
			<path d="M457,504.1c0,0,0.8,0.9,2.2,2.4c0.7,0.8,1.6,1.7,2.6,2.7c1,1,2.2,2.1,3.5,3.3c1.3,1.2,2.8,2.4,4.4,3.6
				c1.6,1.2,3.3,2.4,5.1,3.5c1.8,1.1,3.8,2,5.8,2.9c1,0.3,2,0.8,3.1,1c0.5,0.1,1,0.3,1.6,0.4l1.6,0.3c0.5,0.1,1.1,0.2,1.6,0.2
				c0.5,0,1.1,0.1,1.6,0.1c1.1,0,2.2,0.1,3.2-0.1c0.5-0.1,1.1-0.1,1.6-0.2c0.5-0.1,1-0.2,1.6-0.3c1.1-0.1,2-0.5,3-0.8
				c1-0.2,1.9-0.7,2.9-1c1-0.3,1.8-0.9,2.7-1.3c0.9-0.4,1.7-0.9,2.5-1.4c0.8-0.4,1.6-0.9,2.3-1.4c0.7-0.5,1.4-1,2.1-1.4
				c0.7-0.4,1.3-0.9,1.8-1.4c0.6-0.4,1.1-0.8,1.6-1.2c0.5-0.4,0.9-0.8,1.3-1.1c1.6-1.3,2.6-2.1,2.6-2.1s-0.6,1-1.9,2.8
				c-0.3,0.4-0.6,0.9-1,1.4c-0.4,0.5-0.9,1-1.3,1.6c-0.5,0.6-1,1.2-1.6,1.8c-0.6,0.6-1.2,1.2-1.9,1.8c-0.6,0.7-1.4,1.3-2.2,1.9
				c-0.8,0.6-1.6,1.3-2.5,1.9c-0.5,0.3-0.9,0.6-1.4,0.9c-0.5,0.3-0.9,0.6-1.5,0.8c-0.5,0.3-1,0.5-1.6,0.8c-0.5,0.3-1.1,0.5-1.6,0.7
				c-1.1,0.4-2.3,0.9-3.5,1.1c-0.6,0.1-1.2,0.3-1.8,0.5c-0.6,0.1-1.3,0.2-1.9,0.3c-1.3,0.2-2.6,0.2-3.9,0.2c-0.6,0-1.3-0.1-1.9-0.1
				c-0.6-0.1-1.3-0.1-1.9-0.2c-2.6-0.4-5-1.2-7.4-2.2c-1.1-0.5-2.3-1.1-3.3-1.7c-1.1-0.6-2.1-1.3-3-1.9c-1.9-1.4-3.6-2.8-5.1-4.3
				c-1.5-1.5-2.8-3-4-4.4c-2.3-2.9-3.9-5.5-4.9-7.3C457.5,505.3,457,504.1,457,504.1z"/>
		</g>
		<path class="st5" d="M622.7,142.8c37.5,47.5,99,139.8,94.4,228.3c-5.9,114.8-32.9,148.5-117.1,234.5
			c97.9-25.3,123.2-63.2,139.2-86c21.4-30.5,78.2-104.6,3.5-255.6C708.4,194.5,667.5,159.9,622.7,142.8z"/>
		<path class="st5" d="M215.4,812.9l-5.8,32.8v11c0,0,422.9-160.2,559.2,8.8c0,0-4.4-64.5-16.4-87.9
			C746.8,766.4,215.4,812.9,215.4,812.9z"/>
	</g>
	<g>
		
			<rect x="107.5" y="87.9" transform="matrix(0.9969 -7.819953e-02 7.819953e-02 0.9969 -33.3024 37.7735)" class="st7" width="716.3" height="712.4"/>
		<path d="M850.9,771.5l-89.5,7.7l-89.2,7.6l-178.5,14.7l-178.5,14.3l-89.3,7l-89.3,6.8l-2.5,0.2l-0.2-2.5l-13.1-177.6l-6.5-88.8
			l-6.7-88.8l-6.9-88.8l-7.1-88.8L79.1,117.1l-0.1-1.6l1.6-0.1l178.5-14.7l178.5-14.4l178.5-14.3l178.5-14.1l3.2-0.3l0.2,3.2
			l13.6,177.6L825,415.9l13.1,177.6l6.4,88.8L850.9,771.5z M850.2,770.9l-7.6-88.4l-7.5-88.7l-14.8-177.5l-14.5-177.5L791.6,61.2
			l3.4,2.9L616.6,78.1L438,91.8l-178.6,13.6L80.9,118.6l1.5-1.8l13.3,177.6l6.9,88.8l7,88.8l7.2,88.8l7.4,88.7L138.9,827l-2.7-2.3
			l89.2-7.2l89.3-7l178.5-13.7l178.6-13.3l89.3-6.4L850.2,770.9z"/>
	</g>
	<g>
		
			<rect x="137" y="127.4" transform="matrix(0.9969 -7.819953e-02 7.819953e-02 0.9969 -30.0774 37.393)" class="st9" width="650.7" height="550.7"/>
		<path d="M808.6,652.1l-40.8,3.6l-40.5,3.5l-81,7l-81.1,6.8l-81.1,6.7l-162.2,13l-81.1,6.3l-40.6,3.1l-40.6,3l-2.2,0.2l-0.2-2.2
			l-10-137.3l-5-68.7l-5.2-68.6l-5.4-68.6l-5.5-68.6l-11.4-137.2l-0.1-1.6l1.6-0.1l81.1-6.8l81.1-6.7l162.2-13.2l162.2-13l81.1-6.4
			l81.1-6.3l3.1-0.2l0.2,3.1l5.3,68.6l5.1,68.6L789,377.1l10,137.3l4.9,68.7L808.6,652.1z M808,651.5l-6-68.3l-5.9-68.6l-11.6-137.2
			l-11.3-137.2l-5.6-68.6l-5.5-68.6l3.4,2.9l-81.1,6.5l-81.1,6.3l-162.2,12.4l-162.2,12.3l-81.1,6l-81.1,5.9l1.5-1.8l10.2,137.3
			l5.3,68.6l5.4,68.6l5.5,68.6l5.7,68.6l11.6,137.2l-2.4-2.1l40.5-3.4l40.5-3.3l81.1-6.5l162.2-12.4l81.1-6.1l81.1-5.9l81.1-5.8
			l40.6-2.8L808,651.5z"/>
	</g>
	<defs>
		<filter id="Adobe_OpacityMaskFilter" filterUnits="userSpaceOnUse" x="182.6" y="178.1" width="617.8" height="852.6">
			<feColorMatrix  type="matrix" values="1 0 0 0 0  0 1 0 0 0  0 0 1 0 0  0 0 0 1 0"/>
		</filter>
	</defs>
	<mask maskUnits="userSpaceOnUse" x="182.6" y="178.1" width="617.8" height="852.6" id="SVGID_1_">
		<g class="st10">
			<g>
				
					<rect x="127.6" y="84.6" transform="matrix(0.996 -8.974666e-02 8.974666e-02 0.996 -32.2416 42.1841)" class="st7" width="650.7" height="590.1"/>
				<path d="M803.9,644.6l-40.8,4.3l-40.5,4.1l-80.9,8l-81,7.9l-81,7.7l-81,7.6l-81,7.5l-81,7.2l-81,6.9l-3.2,0.3l-0.3-3.1
					l-12.1-147l-6.1-73.5l-3.1-36.7l-3.2-36.7l-3.3-36.7l-3.3-36.7l-6.8-73.4l-3.4-36.7l-3.5-36.7l-7.1-73.4L100,113l2.2-0.2
					l161.9-15.7l162-15.1l162-15l81-7.3l40.5-3.7l40.5-3.6l4.2-0.4l0.4,4.2l12.8,147l12.5,147l12.2,147l5.9,73.5L803.9,644.6z
					 M803.1,643.9l-7.4-73l-7.3-73.4L774,350.7l-14-146.9L746.4,56.9l4.6,3.8l-40.5,3.7l-40.5,3.6l-81,7.3L426.8,89.6l-162.1,14.1
					l-162.1,13.5l2-2.4l6.2,73.5l3.1,36.8l3.2,36.7l6.5,73.5l3.3,36.7l3.4,36.7l3.4,36.7l3.5,36.7l7.1,73.4l14.3,146.8l-3.4-2.9
					l81-7.7l81-7.4l81-7.1l81-7l81-6.9l81.1-6.7l81.1-6.6l40.5-3.2L803.1,643.9z"/>
			</g>
		</g>
	</mask>
	<g class="st11">
		
			<ellipse transform="matrix(0.996 -8.974666e-02 8.974666e-02 0.996 -86.22 50.504)" class="st2" cx="518.5" cy="984" rx="283" ry="39.3"/>
		
			<ellipse transform="matrix(0.996 -8.974666e-02 8.974666e-02 0.996 -83.8909 50.5842)" class="st2" cx="520.6" cy="958.2" rx="158.4" ry="32.6"/>
		<g>
			<path class="st3" d="M704.3,706.9c0,0-62.8-130.9-84.8-138.9c-22.1-8-309.1,16.4-309.1,16.4s-30.9,103.6-34.7,161.9
				c-15.4,75.5,15.9,149.8,15.9,149.8C552.3,1059,718.1,851,718.1,851C737.9,782.3,704.3,706.9,704.3,706.9z"/>
			<path d="M703.6,707.3c-4.3-8.9-8.7-17.7-13.2-26.4c-4.5-8.8-9.2-17.4-14-26.1c-4.8-8.6-9.7-17.2-14.8-25.6
				c-5.1-8.4-10.3-16.8-15.9-24.9c-5.5-8.1-11.2-16.1-17.5-23.2c-1.6-1.8-3.2-3.5-4.9-5c-1.6-1.5-3.4-2.8-4.8-3.5
				c-1.1-0.4-3.3-0.6-5.6-0.7c-2.3-0.1-4.7-0.2-7.1-0.1c-9.7,0-19.5,0.5-29.3,1.1c-9.8,0.5-19.6,1.2-29.4,1.8
				c-39.3,2.6-78.6,5.1-118,7.2l-59.1,3l-29.6,1.5c-9.9,0.5-19.7,1.1-29.6,1.7l3.1-2.5c-2.1,6.5-4.2,13.1-6.1,19.8
				c-2,6.6-3.9,13.2-5.7,19.9c-0.9,3.3-1.9,6.6-2.7,10l-2.6,10l-2.5,10c-0.8,3.4-1.6,6.7-2.4,10.1c-0.8,3.4-1.6,6.7-2.3,10.1
				c-0.7,3.4-1.5,6.7-2.1,10.1l-2,10.1c-0.6,3.4-1.2,6.8-1.8,10.2c-0.3,1.7-0.6,3.4-0.9,5.1l-0.7,5.1c-0.5,3.4-1,6.8-1.4,10.2
				c-0.4,3.4-0.8,6.8-1.1,10.2l-0.8,10.2l0,0.1l0,0.3l-0.8,4.6l-0.4,2.3l-0.3,2.3l-0.6,4.7l-0.4,4.7l-0.2,2.3l-0.1,2.3l-0.3,4.7
				c-0.1,3.1-0.3,6.3-0.2,9.4c0,1.6,0,3.1,0,4.7l0.1,4.7c0,1.6,0.2,3.1,0.2,4.7c0.1,1.6,0.2,3.1,0.3,4.7l0.4,4.7l0.5,4.7
				c0.1,1.6,0.4,3.1,0.6,4.7c0.2,1.6,0.4,3.1,0.6,4.7l0.7,4.6l0.8,4.6c0.6,3.1,1.1,6.2,1.8,9.2c0.6,3.1,1.3,6.1,2,9.2
				c0.7,3,1.5,6.1,2.3,9.1c0.8,3,1.7,6,2.6,9c0.9,3,1.9,6,2.8,8.9c1,3,2,5.9,3.1,8.8c0.5,1.5,1.1,2.9,1.6,4.3
				c0.6,1.4,1.2,2.9,1.7,4.2l-2.5-2.9l12.6,7.3c4.2,2.3,8.5,4.7,12.7,7l6.4,3.3c2.1,1.1,4.3,2.2,6.5,3.2c4.4,2.1,8.7,4.2,13.1,6.2
				l6.6,3c2.2,1,4.4,1.8,6.7,2.8c2.2,0.9,4.4,1.9,6.7,2.7l6.7,2.5l3.4,1.3l3.4,1.2l6.8,2.3c2.3,0.7,4.6,1.4,6.9,2.1
				c2.3,0.7,4.6,1.4,6.9,2l6.9,1.9c2.3,0.6,4.7,1.1,7,1.7c4.6,1.2,9.3,2.1,14,3.1c2.3,0.5,4.7,0.8,7.1,1.3c2.4,0.4,4.7,0.8,7.1,1.1
				l7.1,1l7.1,0.8c9.5,0.9,19,1.5,28.5,1.5c9.5,0,19-0.4,28.5-1.2c9.5-0.9,18.9-2.3,28.2-4c9.3-1.8,18.6-4,27.7-6.8
				c9.1-2.7,18.1-5.8,27-9.4c8.8-3.6,17.5-7.5,26.1-11.9c8.5-4.3,16.9-9,25.1-14.1c8.2-5,16.1-10.4,23.9-16.1
				c7.8-5.7,15.3-11.7,22.6-18c3.6-3.2,7.2-6.4,10.7-9.7c1.7-1.7,3.5-3.4,5.1-5.1c1.7-1.7,3.4-3.5,4.8-5.2l-0.8,1.5l1.3-4.3
				c0.2-0.7,0.4-1.4,0.6-2.1l0.6-2.2c0.4-1.5,0.8-2.9,1.1-4.4l0.9-4.4c0.3-1.5,0.6-3,0.8-4.4c0.2-1.5,0.6-3,0.7-4.5l0.6-4.5
				c0.2-1.5,0.3-3,0.5-4.5c0.2-1.5,0.3-3,0.4-4.5l0.3-4.5c0.1-3,0.2-6.1,0.1-9.1c0-3-0.1-6.1-0.2-9.1c-0.2-3-0.3-6.1-0.7-9.1
				c-0.3-3-0.6-6.1-1-9.1l-0.6-4.5c-0.2-1.5-0.5-3-0.7-4.5c-0.2-1.5-0.5-3-0.8-4.5c-0.3-1.5-0.6-3-0.9-4.5c-0.6-3-1.3-6-2-8.9
				c-0.7-3-1.5-5.9-2.3-8.9c-0.8-2.9-1.7-5.9-2.6-8.8c-0.9-2.9-1.9-5.8-3-8.7C705.9,712.9,704.8,710,703.6,707.3z M705,706.6
				c1.2,2.8,2.4,5.7,3.5,8.6c1.1,2.9,2.1,5.8,3.1,8.7c1,2.9,1.9,5.8,2.8,8.8c0.9,2.9,1.8,5.9,2.6,8.9c0.8,3,1.6,6,2.3,9
				c0.4,1.5,0.7,3,1.1,4.5c0.3,1.5,0.7,3,1,4.5l0.9,4.5l0.8,4.6c0.5,3,1,6.1,1.4,9.2c0.5,3.1,0.8,6.1,1.2,9.2
				c0.3,3.1,0.6,6.2,0.8,9.3c0.2,3.1,0.3,6.2,0.4,9.3c0,3.1,0.1,6.2,0,9.3c0,1.6,0,3.1-0.1,4.7l-0.3,4.7c-0.1,1.6-0.3,3.1-0.4,4.7
				c-0.2,1.6-0.3,3.1-0.5,4.7l-0.6,4.7c-0.2,1.6-0.5,3.1-0.8,4.6l-0.4,2.3c-0.2,0.8-0.3,1.5-0.5,2.3l-1,4.6l-0.1,0.7l-0.6,0.8
				c-1.6,2.1-3.2,4-4.8,5.9c-1.6,1.9-3.3,3.8-4.9,5.7c-3.3,3.7-6.7,7.4-10.3,10.9c-7,7.1-14.4,13.8-22.1,20.2
				c-7.7,6.4-15.7,12.4-23.9,18.1c-8.3,5.7-16.8,10.9-25.6,15.8c-8.8,4.8-17.8,9.2-27.1,13.2c-9.3,3.9-18.7,7.4-28.3,10.5
				c-9.6,3-19.4,5.5-29.3,7.5c-9.9,2-19.9,3.4-29.9,4.4c-10.1,1-20.2,1.3-30.2,1.2c-10.1,0-20.2-0.8-30.2-1.9l-7.5-0.9l-7.5-1.2
				c-2.5-0.4-5-0.8-7.4-1.3c-2.5-0.5-4.9-0.9-7.4-1.4c-4.9-1.1-9.8-2.1-14.7-3.4c-2.4-0.6-4.9-1.2-7.3-1.9l-7.2-2.1
				c-2.4-0.7-4.8-1.5-7.2-2.3c-2.4-0.8-4.8-1.5-7.1-2.4l-7-2.6l-3.5-1.3l-3.5-1.4l-7-2.8c-2.3-0.9-4.6-2-6.9-3c-2.3-1-4.6-2-6.8-3
				l-6.8-3.2c-9-4.3-17.8-9-26.5-13.8c-4.3-2.4-8.6-5-12.9-7.5l-12.6-7.9l-1.8-1.1l-0.7-1.8c-0.7-1.7-1.2-3.2-1.7-4.7
				c-0.5-1.5-1.1-3.1-1.6-4.6c-1-3.1-2-6.2-2.9-9.3c-0.9-3.1-1.7-6.2-2.5-9.4c-0.8-3.1-1.5-6.3-2.2-9.4c-0.7-3.2-1.3-6.3-1.9-9.5
				c-0.6-3.2-1.2-6.4-1.6-9.6c-0.5-3.2-0.9-6.4-1.4-9.6l-0.6-4.8l-0.5-4.8c-0.2-1.6-0.3-3.2-0.4-4.8c-0.1-1.6-0.3-3.2-0.3-4.8
				l-0.3-4.8l-0.2-4.8c-0.1-1.6-0.1-3.2-0.1-4.8c0-1.6-0.1-3.2,0-4.8l0.1-4.8c0-1.6,0.1-3.2,0.2-4.8c0.1-3.2,0.4-6.4,0.6-9.7
				l0.5-4.8l0.2-2.4l0.3-2.4l0.6-4.8l0.8-4.8l0.4-2.4l0.5-2.4l1-4.7l-0.1,0.4l1.1-10.4c0.4-3.5,0.9-6.9,1.4-10.4
				c0.4-3.5,1.1-6.9,1.7-10.3c0.6-3.4,1.2-6.9,1.8-10.3c0.7-3.4,1.3-6.8,1.9-10.2l2.1-10.2c0.7-3.4,1.5-6.8,2.2-10.2l1.1-5.1
				l1.1-5.1c0.8-3.4,1.5-6.8,2.3-10.1l2.4-10.1l4.9-20.2l5.1-20.2l2.6-10.1l2.6-10.1l0.6-2.3l2.5-0.3l58.9-6.4
				c9.8-1,19.6-2.1,29.5-3.1l29.5-2.8l14.8-1.3l14.8-1.2c9.9-0.8,19.7-1.5,29.6-2.1l14.8-0.9l14.8-0.8c4.9-0.3,9.9-0.5,14.8-0.7
				c4.9-0.2,9.9-0.4,14.8-0.5c4.9-0.1,9.9-0.3,14.9-0.3c5-0.1,9.9-0.1,14.9-0.1c9.9,0,19.9,0.2,29.9,0.8c2.5,0.2,5.1,0.3,7.7,0.7
				c1.3,0.2,2.6,0.4,4.1,0.6l1.2,0.3l0.6,0.1l0.4,0.1l0.4,0.1l0.2,0.1l0.4,0.1l0.2,0.1l1.2,0.6c1.5,0.8,2.8,1.7,3.8,2.7
				c1.1,0.9,2.1,1.9,3,2.9c1.9,1.9,3.5,4,5.1,6c6.2,8.1,11.4,16.7,16.4,25.2c5,8.6,9.7,17.3,14.3,26.1c4.6,8.8,9.1,17.5,13.6,26.4
				c4.5,8.8,8.9,17.6,13.3,26.5C696.3,688.8,700.8,697.7,705,706.6L705,706.6L705,706.6z"/>
		</g>
		<path class="st4" d="M275.7,746.3c0,0,243.9-111.4,428.6-39.4c0,0,33.6,75.3,13.8,144.1c0,0-165.7,208-426.5,45.1
			C291.5,896.1,260.3,821.8,275.7,746.3z"/>
		<path class="st5" d="M520.3,925.6c-61.9,5.6-113.1-57.7-113.1-57.7l18.5,81.8c71.5,15,131.9,3,179.1-17.3l2.9-78.2
			C607.8,854.2,582.2,920,520.3,925.6z"/>
		<path class="st5" d="M690.4,675.9c-1.5,24.3-13.2,101.5-65.4,171.7c45.9,0,9.6,11.3,98.4-17.8
			C719.7,724.3,699.7,697.4,690.4,675.9z"/>
		<path d="M465.8,959.5c0,0,19.4-111.6-149.7-151.6c-35.5-8.4-73.3,54.4-56.6,94.9c16.7,40.5,34.5,93.9,55.8,105
			C336.5,1018.9,465.8,959.5,465.8,959.5z"/>
		<path d="M377.2,920.3c15.3,40,14.6,79.1-18.5,91.8c-33.1,12.7-72.4-9.4-87.7-49.3c-7.7-20-5.6-41.6,0.2-58.9
			c5.8-17.3,24.2-39,40.7-45.3C345,845.8,361.9,880.3,377.2,920.3z"/>
		<path class="st3" d="M272.9,965.9c-7.7-20-5.6-41.6,0.2-58.9c5.8-17.3,24.2-39,40.7-45.3c20.1-7.7,34.3,2,45.7,19.8
			c-11.8-19.7-26.3-31.1-47.6-22.9c-16.5,6.4-34.9,28.1-40.7,45.3c-5.8,17.3-7.8,38.9-0.2,58.9c2.4,6.1,5.3,11.8,8.7,17.1
			C277.1,975.5,274.8,970.8,272.9,965.9z"/>
		<path class="st3" d="M336.5,1007.6c0,0-56-93.8,25.2-102.6c0,0-8.2-23.8-24.9-32.3c-7.1-3.6-29.6-2.8-42.2,11.6
			c-5.8,6.6-26.2,46.5-15.2,71C292.7,984.9,309.1,1000.4,336.5,1007.6z"/>
		<path class="st3" d="M370.8,933c0,0,17.5,44.2-22.3,73.5C348.4,1006.5,399.1,989.6,370.8,933z"/>
		<path class="st3" d="M355.3,819.6c-11.8-4.3-24.4-11.3-39.2-11.7c-12.8-0.3-29.8,10.5-41.6,27.6c-13.9,20.2-19.4,40.8-15,67.3
			c0.6,3.4,2.7,6.5,4,9.9c4.5-27,14.6-65.5,36.1-65.3C322.8,847.6,343.3,831.4,355.3,819.6z"/>
		<path class="st6" d="M299.2,813.8c-8,4.8-15.9,12.2-22.3,21.5c-13.9,20.2-19.4,40.8-15,67.3c0.6,3.4,2.7,6.5,4,9.9
			c0.1-0.5,0.2-1.1,0.3-1.7c-1-18-8.1-36,7.4-62.2C278.3,840.6,287.9,825.6,299.2,813.8z"/>
		<path class="st3" d="M574.4,947c0,0-37.5-106.9,122.8-174.1c33.6-14.1,81.2,41.6,71.4,84.3s-18.6,98.3-37.8,112.7
			S574.4,947,574.4,947z"/>
		<path d="M655.4,894.4c-8.6,41.9-1.4,80.5,33.3,87.6s69.8-21.1,78.4-63.1c4.3-21-1.3-42-9.8-58.1c-8.6-16.1-30.2-34.5-47.6-38
			C674.9,815.7,663.9,852.5,655.4,894.4z"/>
		<path class="st3" d="M707,839.2c-2.9,0.6-4.3-0.6-4.3-3.1c9-0.4,19.8,1.6,28.3,8.6c15,12.4,22.6,39.9,28.3,53.3
			C759.3,898.1,730.8,834.5,707,839.2z"/>
		<path class="st3" d="M681.3,845c0,0-5.3,58.4,10.9,88.8c13.4,25.1,50.7,16.9,50.7,16.9s1.1,7.8-8.6,15
			c-17,12.5-48.5,23.2-65.8-0.8C637.2,921.6,673,845.8,681.3,845z"/>
		<path class="st6" d="M681.3,845c-8.4,0.8-44.1,76.5-12.8,119.9c-16.7-49.2,0.9-95,12.7-117.7C681.3,845.8,681.3,845,681.3,845z"/>
		<path d="M697.2,772.9c-133.1,55.7-129.9,138.9-124.9,165.5c1.3,5.4,2.5,8.5,2.5,8.5s41.3,11.3,81.8,19l0,0
			c0,0-76.1-23.8-65.9-66.2c6.7-28,29.9-83,96.8-115.3c30.1-12.5,43.2,6.3,55.2,17.7c18.7,17.7,23.6,53.8,22.5,70.8
			c0,0,3.5-15.8,3.5-15.8c0.1-0.7,0.3-1.3,0.4-2C776.9,812.7,730.3,759.1,697.2,772.9z"/>
		<g>
			<path class="st3" d="M311,581.1c0,0-69,85.9-43.7,148.5c25.2,62.6,72,76.3,103.7,51.5s-20.6-116.9-36.8-136.8"/>
			<path d="M311.2,581.3c0,0-4.1,5.7-10.5,16.1c-0.8,1.3-1.6,2.7-2.5,4.1c-0.9,1.4-1.8,3-2.7,4.5c-1.9,3.2-3.8,6.7-5.8,10.4
				c-4,7.5-8.3,16-12.3,25.6c-4.1,9.6-7.7,20.2-10.5,31.8c-0.3,1.4-0.6,2.9-0.9,4.4c-0.2,0.7-0.3,1.5-0.5,2.2
				c-0.1,0.7-0.2,1.5-0.4,2.2c-0.2,1.5-0.5,3-0.7,4.5c-0.2,1.5-0.4,3.1-0.5,4.6c-0.6,6.2-0.8,12.5-0.1,19c0.7,6.4,2.1,12.9,4.5,19.1
				c0.6,1.6,1.3,3.1,1.9,4.7c0.7,1.6,1.4,3.1,2.1,4.6c0.7,1.6,1.5,3,2.3,4.6c0.7,1.5,1.6,3,2.5,4.5l1.3,2.2l1.4,2.2l1.4,2.2
				c0.5,0.7,1,1.4,1.5,2.1l1.5,2.1c0.5,0.7,1,1.4,1.6,2.1l1.6,2.1l1.7,2c4.5,5.2,9.6,10,15.2,14c1.4,0.9,2.8,2,4.3,2.8l2.2,1.3
				l2.3,1.2l1.1,0.6l1.2,0.5l2.3,1c1.6,0.6,3.2,1.2,4.8,1.7c6.4,2,13.2,2.7,19.7,2.2c3.3-0.3,6.5-1,9.6-1.8c3.1-0.9,6.1-2.2,9-3.7
				c1.4-0.8,2.8-1.5,4.2-2.5c0.7-0.4,1.4-0.9,2-1.3l1.9-1.4l0.5-0.4l0.2-0.2c0.1,0-0.1,0.1,0,0l0.1-0.1l0.9-0.8
				c0.3-0.3,0.5-0.5,0.8-0.8c0.2-0.3,0.5-0.5,0.7-0.8c1-1.1,1.8-2.3,2.5-3.6c2.9-5.2,3.8-11.3,3.8-17.3c0-3-0.2-6-0.6-9
				c-0.4-3-0.9-5.9-1.5-8.8c-1.2-5.8-2.8-11.3-4.5-16.6c-1.7-5.3-3.6-10.4-5.5-15.2c-3.8-9.7-7.9-18.4-11.7-26
				c-3.8-7.6-7.3-14.1-10.4-19.4c-3-5.3-5.6-9.4-7.4-12.1c-1.8-2.7-2.9-4.1-2.9-4.1l0.4-0.3c0,0,1.2,1.3,3.2,3.9
				c2,2.6,4.9,6.5,8.3,11.6c3.4,5.1,7.4,11.5,11.6,18.9c4.2,7.5,8.6,16.1,12.9,25.8c4.2,9.7,8.3,20.5,11,32.5
				c1.3,6,2.3,12.3,2.3,18.9c0,3.3-0.3,6.7-0.9,10c-0.7,3.4-1.9,6.8-3.7,9.9c-0.9,1.6-2,3-3.2,4.4c-0.3,0.3-0.7,0.7-1,1
				c-0.3,0.3-0.7,0.7-1,0.9l-1,0.8l-0.3,0.3l-0.3,0.2l-0.5,0.4l-2.1,1.5c-0.7,0.5-1.5,0.9-2.2,1.4c-1.5,1-3,1.7-4.6,2.6
				c-3.2,1.5-6.5,2.9-9.9,3.8c-3.4,0.9-7,1.6-10.6,1.8c-7.2,0.5-14.5-0.6-21.3-3c-1.7-0.5-3.3-1.3-5-2l-2.4-1.2l-1.2-0.6l-1.2-0.7
				L309,786l-2.2-1.5c-1.5-0.9-2.9-2.1-4.3-3.1c-5.6-4.4-10.6-9.5-15-15l-1.7-2.1l-1.6-2.1c-0.5-0.7-1-1.4-1.5-2.1l-1.5-2.2
				l-1.5-2.2l-1.4-2.2l-1.4-2.2l-1.3-2.3c-0.9-1.5-1.7-3-2.5-4.6c-0.8-1.5-1.6-3-2.3-4.6c-0.7-1.6-1.5-3.1-2.2-4.7
				c-0.7-1.6-1.4-3.1-2.1-4.6c-2.6-6.3-4.5-12.9-5.6-19.5c-1-6.6-1.2-13.2-0.9-19.6c0.3-6.4,1.3-12.6,2.5-18.6
				c2.6-11.9,6.6-22.8,10.9-32.5c4.3-9.7,8.9-18.3,13.3-25.6c2.2-3.7,4.3-7.1,6.4-10.2c2-3.1,4-5.9,5.8-8.4c3.6-5,6.6-8.8,8.6-11.4
				c2.1-2.5,3.3-3.9,3.3-3.9L311.2,581.3z"/>
		</g>
		<path class="st6" d="M294.6,884.3c-5.8,6.6-26.2,46.5-15.2,71c6.8,15.1,14.4,26.5,23.8,35c-10.1-12.7-23.7-33.6-22.2-53.3
			c4.7-60.5,37.3-65.8,60-61.8c-1.4-1-2.8-1.9-4.3-2.6C329.7,869.1,307.2,869.9,294.6,884.3z"/>
		<path class="st6" d="M312.6,581c0,0-69,85.9-43.7,148.5c8.6,21.3,19.7,37,31.8,47.4c-1.8-2.2-3.9-4.7-6.4-7.5
			c-51-58.8-1.2-150,20.1-183.3L312.6,581z"/>
		<g>
			<path class="st3" d="M611.1,554c0,0,84.1,71.1,71.3,137.4s-56.1,88.7-92,70.4s-2.2-118.7,10-141.3"/>
			<path d="M611.2,553.8c0,0,1.4,1.1,3.9,3.2c2.5,2.1,6.2,5.3,10.6,9.5c2.2,2.1,4.7,4.5,7.3,7.1c2.6,2.6,5.3,5.6,8.2,8.8
				c5.7,6.4,11.8,13.9,17.9,22.6c6,8.7,12,18.6,16.9,29.8c2.3,5.6,4.5,11.6,6,17.8c1.5,6.2,2.6,12.7,2.8,19.4
				c0.2,6.7-0.4,13.4-1.7,20.2c-0.4,1.6-0.7,3.3-1.1,5c-0.4,1.7-0.8,3.3-1.3,5c-0.4,1.7-0.9,3.3-1.4,5c-0.5,1.7-1,3.3-1.6,4.9
				l-0.8,2.5l-0.9,2.4l-0.9,2.4l-1,2.4l-1,2.4c-0.4,0.8-0.7,1.6-1.1,2.4l-1.1,2.4l-1.2,2.3c-3.3,6.2-7.1,12.2-11.8,17.6
				c-1.2,1.3-2.3,2.7-3.7,3.9l-1.9,1.9l-2,1.8l-1,0.9l-1.1,0.8l-2.1,1.6c-1.5,1-2.9,2.1-4.5,2.9c-6.2,3.7-13.1,6.1-20.3,7
				c-3.6,0.5-7.2,0.5-10.7,0.3c-3.6-0.3-7.1-1-10.5-1.8c-1.7-0.5-3.4-1-5-1.7c-0.8-0.3-1.6-0.6-2.4-1l-2.4-1.1l-0.6-0.3l-0.3-0.1
				l-0.4-0.2l-1.1-0.6c-0.3-0.2-0.8-0.5-1.2-0.7c-0.4-0.3-0.8-0.5-1.2-0.8c-1.5-1.1-2.8-2.3-4-3.7c-2.4-2.7-4.2-5.8-5.5-9
				c-1.3-3.2-2.2-6.4-2.8-9.7c-1.3-6.5-1.5-12.9-1.3-19c0.4-12.3,2.3-23.7,4.6-34c2.3-10.3,5-19.6,7.7-27.8
				c2.7-8.1,5.3-15.1,7.7-20.8c2.4-5.7,4.4-10,6-13c1.5-2.9,2.4-4.4,2.4-4.4l0.4,0.2c0,0-0.8,1.6-2,4.6c-1.3,3-3,7.5-5,13.3
				c-2,5.8-4.2,12.9-6.5,21c-2.2,8.2-4.6,17.5-6.5,27.7c-1,5.1-1.9,10.5-2.5,16c-0.7,5.5-1.2,11.3-1.2,17.2c0,2.9,0,5.9,0.3,8.9
				c0.2,3,0.5,6,1.1,9c1.1,5.9,3.2,11.8,7,16.3c1,1.1,2,2.1,3.2,3c0.3,0.2,0.6,0.4,0.9,0.6c0.3,0.2,0.5,0.4,0.9,0.6l1.1,0.6l0.1,0.1
				c0.1,0.1,0,0,0,0l0.3,0.1l0.5,0.3l2.2,1c0.7,0.3,1.5,0.6,2.2,0.9c1.5,0.7,3,1.1,4.6,1.6c3.1,0.9,6.3,1.6,9.5,1.9
				c3.2,0.3,6.5,0.3,9.8,0c6.5-0.7,13-2.7,19-5.9c1.5-0.7,2.9-1.7,4.4-2.5l2.1-1.5l1-0.7l1-0.8l2-1.6l1.9-1.7
				c1.3-1.1,2.5-2.4,3.7-3.6c4.7-5,8.8-10.7,12.2-16.7l1.3-2.3l1.2-2.3c0.4-0.8,0.8-1.5,1.1-2.3l1.1-2.4c0.4-0.8,0.7-1.6,1-2.4
				l0.9-2.4l0.9-2.4l0.8-2.4c0.6-1.6,1.1-3.2,1.5-4.9c0.5-1.6,1-3.3,1.3-4.9c0.4-1.6,0.8-3.3,1.2-4.9c0.3-1.7,0.7-3.3,1-5
				c1.2-6.6,1.3-13.2,0.8-19.6c-0.6-6.4-2-12.7-3.7-18.6c-0.5-1.5-0.9-3-1.4-4.4c-0.5-1.5-1.1-2.9-1.6-4.3c-0.3-0.7-0.5-1.4-0.8-2.1
				c-0.3-0.7-0.6-1.4-0.9-2.1c-0.6-1.4-1.2-2.8-1.8-4.1c-4.9-10.8-10.5-20.6-16.4-29.2c-5.8-8.7-11.6-16.3-16.9-22.8
				c-2.7-3.3-5.3-6.3-7.7-9.1c-1.2-1.4-2.4-2.7-3.5-4c-1.1-1.2-2.2-2.4-3.2-3.6c-8.3-9-13.4-13.8-13.4-13.8L611.2,553.8z"/>
		</g>
		<path d="M640.5,759.1c17.2-11.5,31.4-33.8,37.9-67.3c10.2-52.7-40.9-108.4-62.3-129.1c0.7,2.6,1.8,4.4,1.8,4.4
			s71.5,57.4,24.1,187.6C641.5,756.3,641,757.7,640.5,759.1z"/>
		<path d="M597.4,236c0,0,36.4-113.2,110-23.1c37.1,45.3-0.8,91.6-32.1,101C644,323.3,597.4,236,597.4,236z"/>
		<path d="M325,242.4c0,0-58.9-95.3-122.2-20.3s41.5,112.5,52.1,111.6C265.6,332.7,324.9,286.1,325,242.4z"/>
		<path class="st3" d="M292.8,259.9c0,0-13.2-41.9-52.9-56c-21.3-7.6-74.7,72.7-27.6,101c33.4,20.1,53.3,19.5,53.3,19.5
			S300.3,306.8,292.8,259.9z"/>
		<path class="st3" d="M592.6,247.1c0,0,10.5-57,58.1-59.7s49.9,41.7,29.6,63.3s-61.1,35.2-61.1,35.2L592.6,247.1z"/>
		<path class="st6" d="M675.1,190.2c-5.8-2.1-12.8-3.2-21.4-2.7c-47.6,2.6-58.1,59.7-58.1,59.7l3.7,5.3c3.6-20.3,15.9-48,54.7-58
			C661.7,192.4,668.8,191.1,675.1,190.2z"/>
		<path class="st6" d="M212.4,304.9c33.4,20.1,53.3,19.5,53.3,19.5s2-1,5-3.2c-22.1-4.3-45.2-13.3-59.4-33.9
			c-19.9-28.9,0.8-61.9,18.2-81.7c-0.4,0.2-0.8,0.4-1.2,0.6l-16.8,16.1C193.6,246.2,181.8,286.5,212.4,304.9z"/>
		<g>
			<path class="st7" d="M471.6,207.7c0,0,121.7-22.1,192.7,93.9s28.1,187.9,13.1,214c-15,26.1-49.8,73.7-209.7,88.2
				c-153.1,13.8-255.4-35.1-229.8-216.7S471.6,207.7,471.6,207.7z"/>
			<path d="M471.5,207.3c0.2,0,1.6-0.3,4-0.6c2.6-0.3,6.6-0.7,11.7-0.9c10.2-0.4,25.4-0.3,44.3,3c9.4,1.7,19.8,4.1,30.7,7.9
				c10.9,3.8,22.4,8.8,34,15.5c11.5,6.7,23.1,15.2,34,25.5c10.9,10.3,21.3,22.4,30.5,36c4.6,6.8,8.9,14,13.1,21.5
				c4.2,7.5,8.2,15.2,11.8,23.4c7.3,16.2,13.4,33.7,17,52.3c1.8,9.3,3,18.9,3.3,28.6c0.3,9.7-0.1,19.7-1.5,29.5
				c-1.4,9.9-3.8,19.8-7,29.4c-3.3,9.7-7.5,19.1-12.4,28.2c-2.5,4.6-5,9-7.7,13.5c-2.7,4.5-5.7,8.9-9,13.1
				c-6.6,8.3-14.6,15.7-23.2,22c-1.1,0.8-2.2,1.6-3.3,2.3c-1.1,0.8-2.2,1.5-3.3,2.3c-2.3,1.4-4.5,2.9-6.9,4.2l-3.5,2l-3.6,1.9
				c-2.4,1.3-4.8,2.5-7.2,3.7c-9.7,4.7-19.8,8.7-30.1,12.1c-10.3,3.5-20.8,6.4-31.4,9c-10.6,2.5-21.3,4.7-32.1,6.6
				c-21.6,3.7-43.4,6.3-65.3,8.1c-21.9,1.7-44,2.2-66,0.6c-11-0.8-21.9-2.1-32.7-4.1c-2.7-0.5-5.4-1.1-8.1-1.6
				c-2.7-0.6-5.4-1.2-8-1.9c-5.3-1.4-10.6-3-15.8-4.8c-5.2-1.8-10.3-3.9-15.3-6.2c-5-2.3-9.9-4.8-14.6-7.7
				c-9.4-5.6-18.1-12.4-25.8-20c-3.8-3.9-7.4-8-10.7-12.2c-3.3-4.3-6.3-8.8-9-13.4c-2.7-4.6-5.1-9.4-7.3-14.2
				c-2.1-4.9-4.1-9.8-5.7-14.8c-6.4-20-9-40.6-9.5-60.6c-0.2-10,0.1-19.9,0.7-29.6c0.7-9.7,1.8-19.3,3.1-28.7l0.2-1.8l0.3-1.8
				c0.2-1.2,0.4-2.3,0.6-3.5c0.2-1.2,0.4-2.3,0.6-3.4c0.2-1.2,0.5-2.3,0.7-3.5c0.9-4.7,2-9.2,3.2-13.7c2.4-9,5.4-17.6,8.9-25.9
				c6.9-16.6,16.1-31.6,26.6-44.5c10.5-12.9,22.3-23.8,34.5-32.7c12.1-9,24.6-16.1,36.7-21.9c6.1-2.9,12-5.4,17.9-7.7
				c5.8-2.2,11.5-4.2,17.1-5.9c11-3.5,21.4-6.1,30.7-8c18.8-3.9,33.8-5.5,44-6.2c5.1-0.4,9.1-0.5,11.7-0.6
				C470,207.3,471.3,207.3,471.5,207.3z M471.6,208.1c0,0-1.4,0-4,0.1c-2.6,0.1-6.6,0.3-11.7,0.7c-5.1,0.4-11.4,1.1-18.7,2.1
				c-7.3,1-15.8,2.5-25.1,4.6c-18.6,4.2-41,10.8-64.6,22.9c-11.8,6-23.9,13.4-35.5,22.5c-11.6,9.1-22.9,20-32.7,32.8
				c-4.9,6.4-9.5,13.3-13.6,20.6c-4.1,7.3-7.8,15-11,23.1c-3.2,8.1-6,16.5-8.1,25.2c-1,4.4-2.1,8.8-2.9,13.2
				c-0.2,1.1-0.4,2.2-0.6,3.3c-0.2,1.1-0.4,2.3-0.5,3.4c-0.2,1.2-0.4,2.3-0.5,3.5l-0.3,1.7l-0.2,1.7c-1.2,9.2-2.1,18.6-2.7,28.1
				c-0.6,9.5-0.9,19.2-0.6,28.9c0.5,19.4,3.1,39.2,9.3,58.3c6.1,19,16.1,37.1,30.6,51.6c7.2,7.2,15.3,13.6,24.2,19
				c4.4,2.7,9,5.2,13.7,7.4c4.7,2.2,9.6,4.3,14.5,6c19.9,7.2,41.1,10.9,62.6,12.7c21.5,1.7,43.3,1.4,64.9-0.1
				c21.7-1.7,43.4-4,64.8-7.6c10.7-1.8,21.3-3.9,31.8-6.3c10.5-2.5,20.8-5.3,31-8.6c10.1-3.3,20.1-7.2,29.6-11.7
				c2.4-1.2,4.8-2.3,7.1-3.5l3.5-1.8l3.4-2c2.3-1.3,4.5-2.7,6.7-4.1c1.1-0.7,2.2-1.5,3.2-2.2c1.1-0.7,2.2-1.5,3.2-2.2
				c8.4-6.1,16-13.1,22.4-21c3.2-3.9,6.1-8.1,8.7-12.5c2.6-4.4,5.2-8.8,7.6-13.3c4.9-8.9,9-18.1,12.3-27.5c3.2-9.4,5.6-19,7-28.6
				c1.4-9.6,2-19.3,1.7-28.8c-0.2-9.5-1.3-18.9-2.9-28.1c-3.3-18.3-9.1-35.7-16.2-51.8c-3.5-8.1-7.4-15.8-11.4-23.3
				c-4-7.5-8.3-14.7-12.7-21.5c-8.9-13.7-18.9-25.8-29.7-36.1c-10.7-10.3-22.1-18.9-33.5-25.7c-11.4-6.8-22.8-12-33.6-15.8
				c-10.9-3.8-21.2-6.3-30.6-8c-9.4-1.7-17.9-2.5-25.3-2.9c-7.4-0.4-13.7-0.3-18.8-0.1c-5.1,0.2-9,0.6-11.6,0.9L471.6,208.1
				L471.6,208.1z"/>
		</g>
		<path class="st3" d="M604.6,393.7c50.3,48.3-0.7,127.6-67.9,99.5c-26.3-11-50.4-86.4-9.2-120.2
			C550.5,354.1,581.5,371.6,604.6,393.7z"/>
		<path class="st3" d="M326.7,425.1c-39.5,53.6-20.4,80.3,33,65.8c26.4-7.2,22.5,3.8,43.9-0.8c27.9-6,38.8-55.4-3.5-87.8
			C376.4,384.2,345.6,399.4,326.7,425.1z"/>
		<g>
			
				<ellipse transform="matrix(0.996 -8.974666e-02 8.974666e-02 0.996 -37.5836 51.9415)" cx="558.8" cy="443.9" rx="27.9" ry="35.3"/>
			<path class="st7" d="M537.9,423.6c-1.1,0.1-2.1,0.3-3,0.6c-1.9,3.9-3.3,8.3-3.8,13.1c2,1.7,5,2.6,8.2,2.4
				c5.6-0.5,9.8-4.5,9.4-8.9S543.5,423.1,537.9,423.6z"/>
			
				<ellipse transform="matrix(0.996 -8.974666e-02 8.974666e-02 0.996 -40.0444 52.266)" class="st8" cx="561.2" cy="471.4" rx="9.5" ry="4.1"/>
		</g>
		<path d="M488.5,485.1c0.7,7.2-14,16.1-19.2,16.6s-20.4-5.2-21.1-12.8c-0.3-3.7,9.1-7.9,19-8.6
			C477.6,479.6,488.2,481.5,488.5,485.1z"/>
		<path class="st5" d="M552.6,211.6c33.6,35.5,89.8,105.3,92.5,176.8c3.6,92.8-15.7,121.8-77.2,197.1
			c76.9-27.5,94.6-59.7,105.8-79.3c15-26.1,55.3-89.8-15.7-205.9C625.2,247,589.9,222.2,552.6,211.6z"/>
		<path d="M349.1,792c-5.2-3.6-16.3-18.3-18.1-27.4c-1.7-9,2.6,26.3,10.3,28S349.1,792,349.1,792z"/>
		<path d="M330.4,790.9c-5.2-3.6-16.3-18.3-18.1-27.4c-1.7-9,2.6,26.3,10.3,28S330.4,790.9,330.4,790.9z"/>
		<path d="M619.6,766.2c5.4-3.4,17.3-17.4,19.5-26.3c2.2-8.9-4.1,26.1-11.8,27.4C619.5,768.6,619.6,766.2,619.6,766.2z"/>
		<path class="st6" d="M584.9,677.7c2.3-17.8,13-47.1,14.3-50.7c-13.9,31.8-39.3,117.1-6.5,133.9c12.9,6.6,17.3,5.7,30.5,3.2
			C570.4,756.4,580.2,714.5,584.9,677.7z"/>
		<path d="M367.8,781.4c26.5-20.7-5.6-88.3-26.4-121.6c0.2,1.9,0.7,3.8,1.6,5.8c0,0,38.7,77.5,11.5,123.6
			C359.1,787.3,363.6,784.7,367.8,781.4z"/>
		<path d="M600.8,766.3c5.4-3.4,17.3-17.4,19.5-26.3c2.2-8.9-4.1,26.1-11.8,27.4C600.7,768.7,600.8,766.3,600.8,766.3z"/>
		<g>
			<path d="M360,415.6c1.4-0.2,2.7-0.3,4.2-0.4c1.4-0.1,2.8-0.1,4.2-0.1c1.4,0,2.8,0.1,4.2,0.3c1.4,0.2,2.8,0.4,4.2,0.7
				c5.6,1.2,10.9,3.7,15.5,7.3c2.3,1.8,4.4,3.8,6.3,6c1.9,2.2,3.6,4.5,5.1,7c1.5,2.5,2.8,5,4,7.7c0.6,1.3,1.1,2.7,1.6,4.1
				c0.2,0.7,0.5,1.4,0.7,2.1c0.2,0.7,0.4,1.4,0.6,2.2l1.7,7.7l-6.8-4.5c-0.6-0.4-1.5-0.9-2.3-1.4c-0.8-0.5-1.6-0.9-2.4-1.3
				c-1.6-0.9-3.3-1.6-5.1-2.4c-3.4-1.5-7-2.6-10.6-3.5c-3.6-0.9-7.3-1.5-10.9-2c-1.8-0.2-3.7-0.4-5.5-0.5c-1.8-0.1-3.7-0.2-5.5-0.2
				c-1.8,0-3.7-0.1-5.5,0c-1.8,0.1-3.7,0.2-5.5,0.3c-3.7,0.3-7.3,0.9-11,1.6c-1.8,0.4-3.7,0.8-5.5,1.3c-1.8,0.5-3.7,1-5.5,1.6
				c-1.8,0.6-3.7,1.2-5.5,1.8c-1.8,0.6-3.7,1.3-5.5,2l-0.5-0.8c0.7-0.7,1.5-1.3,2.3-2c0.8-0.6,1.6-1.3,2.4-1.8
				c0.8-0.6,1.6-1.2,2.5-1.7c0.8-0.6,1.7-1.1,2.5-1.6c1.7-1,3.5-2,5.3-2.9c1.8-0.9,3.7-1.7,5.6-2.5c3.8-1.5,7.7-2.6,11.8-3.4
				c2-0.4,4.1-0.7,6.1-0.9c2.1-0.2,4.1-0.3,6.2-0.4c2.1,0,4.1,0.1,6.2,0.2c2.1,0.2,4.1,0.4,6.1,0.8c4,0.7,8,1.9,11.9,3.2
				c3.9,1.4,7.6,2.9,11.2,4.7c1.8,0.9,3.6,1.9,5.4,2.9c0.9,0.5,1.7,1.1,2.6,1.6c0.9,0.6,1.7,1.1,2.6,1.8l-5.1,3.2
				c-0.1-0.5-0.2-1.2-0.4-1.8c-0.1-0.6-0.3-1.3-0.5-1.9c-0.3-1.3-0.7-2.5-1.2-3.7c-0.9-2.5-1.9-4.9-3.1-7.2c-2.4-4.7-5.5-9-9.3-12.5
				c-3.8-3.6-8.5-6.3-13.6-7.9c-1.3-0.4-2.6-0.8-3.9-1c-1.3-0.3-2.6-0.5-4-0.7c-1.3-0.2-2.7-0.3-4.1-0.3c-1.4-0.1-2.7,0-4.1,0
				L360,415.6z"/>
		</g>
		<g>
			<path d="M356.7,476.8c0,0,0.5-0.7,1.5-1.9c1-1.2,2.5-2.9,4.4-4.7c1-0.9,2.1-1.9,3.3-2.9c1.2-1,2.5-2,3.9-3c1.4-1,2.9-2,4.5-2.8
				c1.6-0.9,3.3-1.6,5.1-2.4c1.8-0.7,3.6-1.4,5.4-1.9c0.9-0.3,1.9-0.5,2.8-0.7c0.9-0.2,1.9-0.3,2.8-0.3c1.9-0.1,3.7,0.2,5.3,0.6
				c1.7,0.4,3.2,1,4.5,1.7c0.3,0.2,0.7,0.3,1,0.5c0.3,0.2,0.6,0.4,0.9,0.6c0.6,0.4,1.1,0.7,1.6,1.1c0.9,0.8,1.7,1.5,2.2,2.1
				c0.6,0.7,1,1.2,1.2,1.6c0.3,0.4,0.4,0.6,0.4,0.6l-0.5,0.8c0,0-0.3,0-0.7,0c-0.5,0-1.1,0-1.9-0.1c-0.8-0.1-1.8,0-2.8-0.1
				c-0.5,0-1.1,0-1.6,0c-0.3,0-0.6,0-0.8,0c-0.3,0-0.6,0-0.9,0c-1.2,0-2.4,0-3.7,0c-1.3,0.1-2.6,0.1-4,0.1c-1.4,0-2.9-0.1-4.4-0.1
				c-1.5,0-3.1,0.2-4.7,0.5c-1.6,0.3-3.1,0.7-4.7,1.2c-1.5,0.5-3,1.1-4.5,1.6c-2.9,1.2-5.5,2.6-7.8,3.8c-1.1,0.7-2.1,1.2-3,1.8
				c-0.9,0.6-1.6,1.1-2.3,1.5c-1.3,0.9-1.9,1.4-1.9,1.4L356.7,476.8z"/>
		</g>
		<g>
			<path class="st12" d="M421.1,526.5c0,0-17.1,27.2-1.9,39.9c22.8,19.2,46.5-16.8,46.5-16.8l-22.9-8.2L421.1,526.5z"/>
			<path d="M421.2,526.8c-1.6,3.8-3,7.5-4.2,11.4c-0.6,2-1.1,3.9-1.5,5.9c-0.4,2-0.7,3.9-0.8,5.9c0,1-0.1,1.9,0,2.9
				c0,1,0.1,1.9,0.3,2.9c0.3,1.9,0.8,3.7,1.6,5.5c0.8,1.7,2,3.3,3.4,4.7c0.8,0.7,1.5,1.3,2.4,1.9c0.8,0.6,1.7,1.1,2.6,1.6
				c1.8,0.9,3.7,1.6,5.7,1.8c2,0.3,4,0.2,6-0.1c2-0.3,3.9-1.1,5.7-1.9c1.8-0.9,3.5-1.9,5.2-3.1c3.3-2.4,6.2-5.2,9-8.1
				c1.4-1.5,2.7-3,4-4.6c1.2-1.6,2.5-3.2,3.5-4.9l1,3c-1.9-0.6-3.9-1.3-5.8-2l-2.9-1c-1-0.3-1.9-0.7-2.9-1l-5.7-2.1
				c-1.9-0.7-3.8-1.5-5.7-2.2l-0.3-0.1l-0.2-0.1c-1.8-1.3-3.5-2.6-5.3-3.9c-1.8-1.3-3.5-2.7-5.2-4l-2.6-2c-0.9-0.7-1.7-1.4-2.6-2.1
				C424.4,529.5,422.8,528.2,421.2,526.8z M421.2,526.3c1.9,1,3.8,2.2,5.7,3.3c1,0.5,1.9,1.1,2.8,1.7l2.8,1.7
				c1.9,1.2,3.8,2.3,5.6,3.5c1.9,1.2,3.7,2.3,5.6,3.5l-0.4-0.2c1.9,0.6,3.9,1.2,5.8,1.9l5.8,1.9c1,0.3,1.9,0.7,2.9,1l2.9,1
				c1.9,0.7,3.8,1.4,5.7,2.1l2.5,0.9l-1.5,2.1c-1.3,1.8-2.6,3.4-4,5.1c-1.4,1.6-2.8,3.2-4.4,4.7c-3,3-6.4,5.6-10.1,7.8
				c-1.9,1.1-3.8,2-5.8,2.7c-2,0.7-4.1,1.2-6.2,1.5c-1.1,0.1-2.1,0.2-3.2,0.2c-1.1,0-2.1-0.1-3.2-0.3c-2.1-0.3-4.2-1-6.1-1.9
				c-1.9-0.9-3.8-2-5.5-3.3c-1.8-1.3-3.4-2.8-4.6-4.7c-1.3-1.9-2.1-4-2.6-6.2c-0.2-1.1-0.4-2.2-0.4-3.3c-0.1-1.1-0.1-2.2,0.1-3.3
				c0.2-2.2,0.6-4.3,1.1-6.4c0.6-2.1,1.3-4.1,2.1-6c0.8-2,1.8-3.8,2.9-5.7c1.1-1.8,2.2-3.6,3.6-5.2l0.1-0.1L421.2,526.3z"/>
		</g>
		<g>
			<path d="M410,515.6c0,0,0.4,0.4,1.2,1.1c0.8,0.7,1.9,1.8,3.3,3.1c1.5,1.3,3.3,2.8,5.4,4.5c1.1,0.9,2.2,1.7,3.4,2.7
				c1.2,0.9,2.5,1.9,3.8,2.8c2.7,1.9,5.7,3.9,9,5.8c3.2,1.9,6.8,3.7,10.5,5.3c3.7,1.6,7.8,2.9,11.8,3.9c2.1,0.4,4.2,0.9,6.3,1.1
				l1.6,0.2c0.5,0.1,1.1,0.1,1.6,0.1l3.2,0.1c4.2-0.1,8.5-0.5,12.5-1.7c4.1-1,7.9-2.7,11.5-4.6l0.7-0.3l0.6-0.4
				c0.4-0.3,0.9-0.5,1.3-0.8c0.8-0.5,1.7-1,2.5-1.5l0.6-0.4l0.6-0.4c0.4-0.3,0.8-0.6,1.2-0.9c0.8-0.6,1.5-1.1,2.3-1.7
				c0.4-0.3,0.7-0.6,1.1-0.8c0.3-0.3,0.7-0.6,1-0.9c0.7-0.6,1.4-1.2,2-1.8c0.7-0.6,1.3-1.2,2-1.7c0.6-0.6,1.2-1.2,1.8-1.8
				c1.2-1.2,2.3-2.3,3.3-3.4c1-1.1,1.9-2.2,2.8-3.2c0.9-1,1.7-2,2.5-2.9c0.8-0.9,1.4-1.8,2-2.5c2.4-3.1,3.8-4.8,3.8-4.8
				s-1.1,2-3,5.4c-0.5,0.8-1,1.8-1.6,2.8c-0.7,1-1.4,2-2.2,3.2c-0.8,1.1-1.6,2.4-2.5,3.6c-1,1.2-2,2.5-3.1,3.8
				c-0.5,0.7-1.1,1.3-1.7,2c-0.6,0.6-1.2,1.3-1.9,2c-0.6,0.7-1.3,1.3-2,2c-0.3,0.3-0.7,0.7-1,1c-0.4,0.3-0.7,0.6-1.1,1
				c-0.8,0.6-1.5,1.3-2.3,1.9c-0.4,0.3-0.8,0.7-1.2,1l-0.6,0.5l-0.6,0.4c-0.9,0.6-1.7,1.2-2.6,1.8c-0.4,0.3-0.9,0.6-1.3,0.9
				l-0.7,0.5l-0.7,0.4c-1,0.5-1.9,1.1-2.9,1.6c-0.5,0.3-1,0.5-1.5,0.8c-0.5,0.2-1,0.4-1.5,0.7c-1,0.4-2.1,0.9-3.1,1.3
				c-0.5,0.2-1.1,0.4-1.6,0.6l-1.7,0.5c-4.4,1.4-9.1,1.9-13.8,2l-3.5-0.1c-0.6,0-1.2-0.1-1.7-0.1l-1.7-0.2c-2.3-0.2-4.6-0.8-6.8-1.3
				c-1.1-0.3-2.2-0.6-3.3-1l-1.6-0.5l-1.6-0.6c-1-0.4-2.1-0.8-3.1-1.2c-1-0.5-2-0.9-3-1.4c-1-0.4-1.9-1-2.9-1.4
				c-0.9-0.5-1.9-1-2.7-1.5c-1.8-1.1-3.5-2.1-5.1-3.2c-3.3-2.2-6.2-4.5-8.8-6.7c-2.6-2.2-4.8-4.4-6.8-6.3c-1.9-2-3.5-3.8-4.8-5.3
				c-1.3-1.5-2.2-2.7-2.9-3.6C410.3,516,410,515.6,410,515.6z"/>
		</g>
		<g>
			<path d="M441.2,540.6c0,0-0.2,0.3-0.5,0.7c-0.3,0.4-0.7,1-1.2,1.6c-1,1.3-2.4,2.8-3.7,4.3c-1.3,1.5-2.4,3-3,4.3
				c-0.1,0.2-0.1,0.3-0.2,0.5c-0.1,0.2-0.1,0.3-0.2,0.5c-0.1,0.3-0.1,0.6-0.2,0.8c-0.1,0.5-0.1,0.8-0.1,0.8s0-0.1-0.1-0.2
				c-0.1-0.1-0.2-0.3-0.4-0.5c-0.1-0.2-0.3-0.5-0.4-0.9c-0.1-0.4-0.2-0.8-0.2-1.3c0-0.5,0-1,0.1-1.5c0.1-0.5,0.3-1.1,0.5-1.6
				c0.4-1.1,1.1-2.1,1.9-2.9c1.5-1.8,3.4-3,5-3.7c0.8-0.4,1.5-0.6,1.9-0.7C440.9,540.6,441.2,540.6,441.2,540.6z"/>
		</g>
		<path class="st13" d="M422.3,566.4c0,0,15.4,16.2,38.2-15.6C460.5,550.8,432,564.8,422.3,566.4z"/>
	</g>
	<g>
		<path class="st3" d="M218.9,557.7c23.5-59.4-90.5-135.1-139.1-58s42.1,157.4,42.1,157.4l-4.4-41
			C117.5,616.2,188.7,634.2,218.9,557.7z"/>
		<path d="M218.6,557.7c2.9-7.5,3.7-15.7,2.4-23.6c-0.6-3.9-1.8-7.8-3.3-11.5c-1.5-3.7-3.3-7.2-5.5-10.6
			c-4.3-6.7-9.6-12.7-15.5-17.9c-6-5.2-12.5-9.8-19.4-13.5c-6.9-3.8-14.3-6.7-21.8-8.8c-3.8-1-7.6-1.7-11.5-2.2
			c-3.9-0.5-7.8-0.6-11.7-0.5c-7.8,0.3-15.6,2-22.8,5.2c-7.2,3.1-13.7,7.9-19.3,13.5c-2.8,2.9-5.3,5.9-7.6,9.2l-1.7,2.5l-0.4,0.6
			c-0.1,0.1-0.2,0.4-0.4,0.6l-0.8,1.3l-3,5.2c-3.6,7.1-6.4,14.6-8.1,22.4c-1.7,7.8-2,15.8-1.5,23.8c0.6,7.9,2.1,15.8,4.5,23.4
			c2.4,7.6,5.5,14.9,9.1,22c3.6,7.1,7.7,13.9,12.2,20.5c4.5,6.6,9.4,12.9,14.5,18.9c5.2,6,10.7,11.9,16.5,17.1l-4.4,2.3L117,637
			l-1.1-10.3l-1-10.3l-0.4-3.7l3.6,0.9c1.1,0.3,2.4,0.5,3.7,0.7c1.3,0.2,2.6,0.4,3.8,0.5c2.6,0.3,5.2,0.5,7.8,0.6
			c2.6,0.1,5.2,0.1,7.8,0l3.9-0.3c1.3-0.1,2.6-0.3,3.9-0.4c1.3-0.2,2.6-0.3,3.9-0.6c1.3-0.2,2.6-0.5,3.8-0.7l3.8-0.9l3.8-1.1
			c1.2-0.4,2.5-0.8,3.7-1.3c1.2-0.4,2.4-1,3.6-1.4c1.2-0.5,2.4-1.1,3.6-1.6l1.8-0.8l1.7-0.9c2.3-1.2,4.5-2.7,6.7-4.1
			c2.1-1.6,4.3-3,6.3-4.8c2.1-1.6,3.9-3.5,5.8-5.4c0.9-1,1.8-2,2.7-2.9l1.3-1.5c0.4-0.5,0.8-1,1.2-1.5l2.5-3.1
			c0.8-1.1,1.5-2.2,2.3-3.3c1.6-2.2,2.8-4.5,4.2-6.8c0.7-1.1,1.3-2.3,1.9-3.5l1.8-3.6C216.5,562.6,217.6,560.1,218.6,557.7
			L218.6,557.7z M219.1,557.8c-1,2.5-2,4.9-3.1,7.4l-1.8,3.6c-0.6,1.2-1.2,2.4-1.8,3.6c-1.3,2.3-2.5,4.7-4,6.9
			c-0.7,1.1-1.4,2.3-2.2,3.4l-2.4,3.3c-0.4,0.5-0.8,1.1-1.2,1.6l-1.3,1.6c-0.9,1-1.7,2.1-2.6,3.1c-1.9,1.9-3.6,4-5.7,5.8
			c-1.9,1.9-4.1,3.6-6.2,5.3c-2.2,1.6-4.4,3.2-6.7,4.6l-1.7,1.1l-1.8,1c-1.2,0.6-2.4,1.3-3.6,1.9c-1.2,0.6-2.5,1.2-3.7,1.7
			c-1.3,0.5-2.5,1-3.8,1.5l-3.9,1.3l-3.9,1.1c-1.3,0.3-2.7,0.6-4,0.9c-1.3,0.3-2.7,0.5-4,0.8c-1.4,0.2-2.7,0.4-4.1,0.6l-4.1,0.4
			c-2.7,0.2-5.5,0.3-8.2,0.2c-2.7,0-5.5-0.2-8.2-0.5c-1.4-0.1-2.7-0.3-4.1-0.5c-1.4-0.2-2.7-0.4-4.2-0.8l3.2-2.8l1.2,10.2l1.1,10.2
			l2.2,20.5l0.7,7l-5.1-4.8c-6.1-5.7-11.5-11.6-16.8-17.9c-5.2-6.3-10.1-12.8-14.6-19.6c-4.5-6.8-8.5-13.9-12-21.2
			c-3.5-7.4-6.4-15-8.5-22.9c-2.1-7.9-3.4-16-3.7-24.1l-0.1-3.1c0-1,0.1-2,0.1-3.1l0.1-3l0.1-1.5l0.2-1.5c0.3-2,0.4-4,0.7-6.1l1.2-6
			c0.2-1,0.5-2,0.8-2.9l0.8-2.9c0.5-2,1.2-3.9,1.9-5.8c0.7-1.9,1.4-3.8,2.3-5.6c0.9-1.8,1.7-3.7,2.6-5.5l3-5.2l0.7-1.3
			c0.1-0.2,0.2-0.4,0.4-0.7l0.4-0.6l1.7-2.6c2.3-3.3,4.8-6.6,7.6-9.6c5.5-6,12.1-11.2,19.5-14.8c7.4-3.7,15.5-5.8,23.8-6.4
			c4.1-0.4,8.3-0.2,12.4,0.1c4.1,0.4,8.2,1.1,12.2,2.2c8,2,15.7,5.2,22.8,9.3c7.1,4.1,13.7,9.1,19.5,14.8
			c5.8,5.8,10.9,12.2,14.9,19.3c2,3.6,3.7,7.3,5.1,11.1c1.3,3.8,2.3,7.8,2.9,11.8C223,542,222.1,550.3,219.1,557.8L219.1,557.8z"/>
	</g>
	<path d="M211.9,566.4c-3.7-8-21-26.8-32.9-31.3c-11.9-4.5,35.3,10,35.7,20.9C215.2,566.9,211.9,566.4,211.9,566.4z"/>
	<path d="M193.6,594.1c-1.2-8.7-12.1-31.8-22.1-39.7s30.7,20.1,27.9,30.6C196.5,595.5,193.6,594.1,193.6,594.1z"/>
	<g>
		<path class="st3" d="M730,600.3c-35.1-53.4,61.1-150.7,124.3-85.1s-9.1,162.7-9.1,162.7l-4.1-41
			C841.2,636.8,775.1,668.9,730,600.3z"/>
		<path d="M729.8,600.4c-4.5-6.7-7-14.7-7.6-22.8c-0.3-4-0.1-8.1,0.4-12.2c0.5-4,1.5-8,2.7-11.9c2.5-7.8,6.2-15.2,10.7-22
			c4.5-6.8,10-13,16.1-18.5c6.1-5.4,13-10.2,20.4-13.8c3.7-1.8,7.5-3.4,11.5-4.6c3.9-1.2,8-2.2,12.1-2.7c8.2-1,16.6-0.6,24.6,1.5
			c8,2,15.5,5.8,22.1,10.5c3.3,2.4,6.4,5,9.4,7.8l2.1,2.2l0.5,0.5c0.2,0.2,0.3,0.4,0.5,0.6l1,1.1l4,4.5c1.2,1.6,2.4,3.3,3.7,4.9
			c1.3,1.6,2.3,3.3,3.4,5.1c1.1,1.7,2.2,3.4,3.1,5.3l1.4,2.7c0.4,0.9,1,1.8,1.3,2.7l2.4,5.6c0.7,1.9,1.3,3.9,1.9,5.8l0.5,1.4
			l0.4,1.5l0.7,3c0.2,1,0.5,2,0.7,3l0.5,3c1.4,8,1.7,16.2,1.3,24.4c-0.5,8.1-1.8,16.2-3.7,24.1c-1.9,7.9-4.4,15.7-7.4,23.3
			c-3,7.6-6.5,14.9-10.3,22.1c-3.9,7.2-8,14.1-12.8,20.9l-4,5.7l-0.7-7l-2.1-20.5l-1-10.3l-1-10.3l3.7,2.1c-1.4,0.6-2.6,1.1-3.9,1.6
			c-1.3,0.5-2.6,0.9-3.9,1.3c-2.6,0.8-5.3,1.6-7.9,2.1c-2.7,0.6-5.4,1-8.1,1.4l-4.1,0.5c-1.4,0.1-2.7,0.2-4.1,0.3
			c-1.4,0-2.7,0.1-4.1,0.1c-1.4,0-2.7,0-4.1-0.1l-4.1-0.3l-4.1-0.5c-1.3-0.2-2.7-0.5-4-0.7c-1.3-0.2-2.7-0.6-4-0.9
			c-1.3-0.3-2.6-0.7-3.9-1.1l-2-0.6l-1.9-0.7c-2.6-0.9-5-2-7.5-3.1c-2.4-1.3-4.8-2.5-7.1-3.9c-2.3-1.3-4.5-3-6.7-4.5
			c-1.1-0.8-2.1-1.7-3.2-2.5l-1.6-1.3c-0.5-0.4-1-0.9-1.5-1.4l-3-2.7c-1-0.9-1.9-1.9-2.8-2.9c-1.9-1.9-3.6-4-5.4-6
			c-0.9-1-1.7-2.1-2.5-3.1l-2.5-3.2C732.8,604.8,731.3,602.6,729.8,600.4L729.8,600.4z M730.2,600.1c1.5,2.2,3.1,4.4,4.6,6.5
			l2.5,3.1c0.8,1,1.6,2.1,2.6,3.1c1.8,1.9,3.5,4,5.5,5.8c1,0.9,1.9,1.9,2.9,2.7l3.1,2.6c0.5,0.4,1,0.9,1.5,1.3l1.6,1.2
			c1.1,0.8,2.1,1.6,3.2,2.3c2.2,1.4,4.4,2.9,6.8,4.1c2.3,1.3,4.7,2.3,7.1,3.4c2.5,0.9,4.9,1.9,7.4,2.6l1.9,0.6l1.9,0.5
			c1.3,0.3,2.5,0.7,3.8,0.9c1.3,0.2,2.6,0.5,3.9,0.7c1.3,0.2,2.6,0.3,3.9,0.5l3.9,0.3l3.9,0.1c1.3,0,2.6,0,3.9-0.1
			c1.3,0,2.6-0.2,3.9-0.2c1.3-0.1,2.6-0.2,3.9-0.4l3.9-0.5c2.6-0.4,5.1-0.9,7.6-1.6c2.5-0.6,5-1.3,7.5-2.1c1.2-0.4,2.5-0.8,3.7-1.3
			c1.2-0.5,2.4-1,3.5-1.5l3.3-1.6l0.4,3.7l1.1,10.3l1,10.3l2,20.5l-4.7-1.3c4.6-6.3,8.8-13.2,12.7-20.1c3.8-7,7.3-14.1,10.4-21.5
			c3-7.3,5.7-14.9,7.8-22.5c2-7.7,3.6-15.5,4.4-23.4c0.7-7.9,0.7-15.9-0.4-23.8c-1.1-7.9-3-15.7-6.3-23c-3.2-7.3-7.5-14.1-12.5-20.3
			l-4-4.5l-1-1.1c-0.2-0.2-0.4-0.4-0.5-0.5l-0.5-0.5L851,513c-2.9-2.7-6-5.2-9.3-7.4c-6.6-4.3-14-7.6-21.7-9.2
			c-7.7-1.7-15.6-1.7-23.3-0.4c-3.9,0.7-7.7,1.6-11.4,2.8c-3.7,1.3-7.3,2.8-10.8,4.5c-7,3.5-13.6,7.9-19.6,13
			c-6,5.1-11.5,10.9-16.2,17.2c-4.7,6.3-8.7,13.3-11.5,20.7c-1.4,3.7-2.5,7.6-3.2,11.5c-0.7,3.9-1,7.9-0.9,11.9
			C723.4,585.5,725.8,593.4,730.2,600.1L730.2,600.1z"/>
	</g>
	<path d="M737.6,607.3c2-8.6,15.1-30.5,25.9-37.4c10.7-6.9-32.5,17-30.7,27.8C734.5,608.5,737.6,607.3,737.6,607.3z"/>
	<path d="M760.6,630c-0.6-8.8,5.4-33.6,13.6-43.4c8.2-9.8-26,25.9-21.1,35.7C758,632,760.6,630,760.6,630z"/>
	<path class="st6" d="M72.7,577.7c0,0-9.7-91.8,74-107.1c0,0-21.7-5.3-42.3,7.6C82.6,491.8,59.2,527,72.7,577.7z"/>
	<path d="M210.4,510.3c0,0,31.6,39.9-14.4,82.6c-8.3,7.7-24.7,22.7-64.4,24.1C131.5,617,238,553,210.4,510.3z"/>
	<path class="st6" d="M796.3,498.9c0,0-64.8,28.7-66.3,95.2C730,594.1,700.6,526.7,796.3,498.9z"/>
	<path d="M848.5,509.6c0,0,14.5,101.5-22.5,129l15.5-4l3.7,43.3C845.2,677.9,920.5,584.1,848.5,509.6z"/>
	<text transform="matrix(0.9969 -7.928000e-02 7.928000e-02 0.9969 325.0135 770.6804)" class="st14 st51 st52">5 years old</text>
</g>
</svg>
