<?xml version="1.0" encoding="utf-8"?>
<!-- Generator: Adobe Illustrator 21.0.0, SVG Export Plug-In . SVG Version: 6.00 Build 0)  -->
<svg version="1.1" id="_x33_" xmlns="http://www.w3.org/2000/svg" xmlns:xlink="http://www.w3.org/1999/xlink" x="0px" y="0px"
	 viewBox="0 0 810 926" style="enable-background:new 0 0 810 926;" xml:space="preserve">
<style type="text/css">
	.st0{fill:url(#bg_1_);}
	.st1{fill:#2D353A;}
	.st2{fill:#FFFFFF;}
	.st3{opacity:0.2;}
	.st4{opacity:0.45;}
	.st5{opacity:0.25;}
	.st6{opacity:0.4;}
	.st7{fill:#FDFDFD;}
	.st8{opacity:0.2;fill:#2D353A;}
	.st9{fill:#D8D8D8;}
	.st10{fill:#39B6FF;}
	.st11{fill:#CEA67A;}
	.st12{fill:none;}
	.st13{fill:#BD9870;}
	.st14{fill:#FFE694;}
	.st15{fill:#FFA3B7;}
	.st16{fill:#9292FF;}
	.st17{fill:#F599CB;}
	.st18{fill:#050505;}
	.st19{opacity:0.4;fill:#FFFFFF;}
	.st20{opacity:0.15;fill:#050505;}
	.st21{fill:#FFFFFF;stroke:#000000;stroke-width:2;stroke-miterlimit:10;}
	.st22{fill:#F2F2F2;}
	.st23{fill:#191919;}
	.st24{fill:#E6E6E6;}
	.st25{fill:#E2EEF2;}
	.st26{fill:#282728;fill-opacity:0.1;}
</style>
<g>
	<g>
		<g>
			<path class="st1" d="M530.1,616.5c0,0-32.4-91.6-45.4-97.6c-13-6.1-173-16-173-16s-38.5,78.9-44.1,114.1
				c-13.5,45,1.4,91.8,1.4,91.8c149.5,113.2,261.5-4,261.5-4C546.3,664.1,530.1,616.5,530.1,616.5z"/>
			<path d="M529.7,616.6c-4-11.1-8.1-22.1-12.6-32.9c-2.2-5.4-4.5-10.9-6.8-16.2c-2.4-5.4-4.8-10.7-7.3-16
				c-2.5-5.3-5.2-10.5-8.1-15.6c-1.4-2.5-2.9-5-4.5-7.4c-1.6-2.4-3.3-4.7-5.2-6.4c-0.5-0.4-0.9-0.7-1.3-0.9
				c-0.1-0.1-0.4-0.2-0.7-0.2c-0.3-0.1-0.6-0.2-0.9-0.2c-1.3-0.3-2.7-0.5-4.1-0.8c-2.8-0.4-5.7-0.8-8.6-1.1
				c-2.9-0.3-5.8-0.6-8.7-0.9L452,517l-35.1-2.9l-17.6-1.5l-17.6-1.5c-23.4-2.1-46.8-4.4-70.3-6.4l1.7-1c-4.6,9.1-9,18.3-13.3,27.6
				c-2.2,4.6-4.2,9.3-6.3,14c-2,4.7-4,9.4-6,14.1c-2,4.7-3.8,9.5-5.6,14.2c-1.8,4.8-3.6,9.6-5.2,14.4c-1.7,4.8-3.2,9.7-4.5,14.6
				c-1.3,4.9-2.5,9.8-3.3,14.8l0,0.1l0,0.1c-2,7.4-3.4,14.9-4.1,22.6c-0.8,7.6-0.9,15.3-0.5,22.9c0.4,7.6,1.2,15.3,2.5,22.8
				c0.6,3.8,1.4,7.5,2.3,11.2c0.9,3.7,1.8,7.5,2.9,10.9l-1.1-1.6c9.6,7,19.4,13.5,29.7,19.3c10.3,5.8,20.8,11,31.8,15.2
				c21.9,8.5,45.2,13.1,68.5,13c5.8,0,11.7-0.4,17.5-0.9c5.8-0.6,11.6-1.4,17.3-2.6c11.5-2.3,22.7-5.8,33.5-10.2
				c10.9-4.4,21.4-9.7,31.4-15.8c5-3,10-6.3,14.7-9.8c4.7-3.5,9.4-7.2,13.6-11.2l-0.4,0.7c2.8-6.7,4.9-13.9,6.1-21.1
				c0.6-3.6,1.1-7.3,1.4-11c0.3-3.7,0.4-7.4,0.4-11.1c-0.1-7.4-0.7-14.9-1.8-22.3C533.5,631.1,531.9,623.7,529.7,616.6z
				 M530.4,616.4c2.3,7.2,4,14.5,5.3,21.9c1.3,7.4,2.2,14.9,2.5,22.4c0.2,3.8,0.2,7.5,0.1,11.3c-0.1,3.8-0.4,7.6-0.8,11.3
				c-0.8,7.5-2.5,15-5.1,22.3l-0.1,0.4l-0.3,0.3c-4.2,4.5-8.7,8.5-13.4,12.4c-4.7,3.9-9.5,7.5-14.5,11c-5,3.4-10.2,6.6-15.5,9.6
				c-5.3,3-10.8,5.6-16.4,8.1c-11.2,4.9-22.9,8.6-34.8,11.2c-11.9,2.6-24.2,3.9-36.4,3.9c-24.5,0.1-48.9-5.2-71.4-14.3
				c-22.6-9.1-43.5-21.8-62.5-36.7l-0.9-0.7l-0.3-0.9c-1.1-3.9-2-7.7-2.7-11.6c-0.8-3.9-1.4-7.8-1.9-11.7c-1-7.8-1.6-15.6-1.6-23.5
				c0-7.9,0.3-15.7,1.4-23.5c1-7.8,2.7-15.5,5.1-23l0,0.2c1.8-10.3,5.1-20,8.4-29.7c3.4-9.7,7.2-19.2,11-28.7
				c3.8-9.5,7.9-18.9,12-28.3c4.1-9.4,8.3-18.7,12.6-28l0.5-1.1l1.2,0.1l35.3,1.5c11.8,0.5,23.5,1.1,35.3,1.8
				c23.5,1.4,47,3.4,70.4,6.3l8.8,1.2c2.9,0.4,5.9,0.9,8.8,1.4c2.9,0.5,5.9,1,8.8,1.6c1.5,0.3,2.9,0.7,4.5,1.1
				c0.4,0.1,0.8,0.3,1.2,0.4c0.4,0.2,0.8,0.3,1.3,0.6c0.9,0.5,1.6,1.1,2.2,1.7c2.4,2.4,3.9,5,5.5,7.6c1.5,2.6,2.9,5.2,4.2,7.9
				c2.6,5.3,5,10.7,7.3,16.2C514.3,572.2,522.4,594.2,530.4,616.4z"/>
		</g>
		<path class="st7" d="M267.6,617c0,0,154.2-54.3,262.5-0.5c0,0,16.3,47.6,0.5,88.3c0,0-112,117.3-261.5,4
			C269,708.8,254.1,662,267.6,617z"/>
		<path class="st8" d="M406.3,739.2c-37.9,0-65.5-41.2-65.5-41.2l6.8,50.7c42.6,13,80,9,109.7-0.7l6-47.3
			C463.4,700.7,444.3,739.2,406.3,739.2z"/>
		<path class="st8" d="M523.3,596.9c-2.2,14.7-13.5,60.9-49.1,100.7c27.9,2.5,5.2,7.4,60.7-5.4C538.4,627.9,527.8,610.5,523.3,596.9
			z"/>
		<path d="M371.4,756.8c0,0,17.9-66.7-82.7-100.2c-21.1-7-47.5,29-39.6,54.5s15.8,58.9,28.1,66.8
			C289.6,785.9,371.4,756.8,371.4,756.8z"/>
		<path d="M319.7,728.2c7.1,25.1,4.5,48.9-16.3,54.8c-20.8,5.9-43.4-9.7-50.6-34.8c-3.6-12.6-1.1-25.6,3.3-35.8
			c4.5-10.2,16.8-22.3,27.2-25.3C304.2,681.2,312.6,703.1,319.7,728.2z"/>
		<path class="st1" d="M253.9,750.2c-3.6-12.6-1.1-25.6,3.3-35.8c4.5-10.2,16.8-22.3,27.2-25.3c12.7-3.6,20.7,3.1,26.7,14.5
			c-6.1-12.6-14.3-20.3-27.7-16.5c-10.4,3-22.7,15.1-27.2,25.3c-4.5,10.2-6.9,23.2-3.3,35.8c1.1,3.9,2.6,7.5,4.3,10.8
			C255.9,756.2,254.8,753.3,253.9,750.2z"/>
		<path class="st1" d="M290.2,779c0,0-28.9-60,20.9-60.9c0,0-3.7-14.9-13.4-21c-4.1-2.6-17.8-3.3-26.3,4.8
			c-3.9,3.7-18.5,26.8-13.1,42.3C264.8,762.8,274,773.1,290.2,779z"/>
		<path class="st1" d="M315.1,735.6c0,0,8.2,27.8-17.6,43.4C297.5,779,329.2,771.5,315.1,735.6z"/>
		<path class="st1" d="M311.9,665.8c-6.9-3.3-14.2-8.2-23.2-9.2c-7.8-0.9-18.7,4.8-26.7,14.5c-9.5,11.5-14,23.7-12.8,40
			c0.2,2.1,1.3,4.1,1.9,6.2c4.2-16.2,12.4-39,25.5-37.7C290.6,681,304,672.4,311.9,665.8z"/>
		<path class="st9" d="M278.2,659.3c-5.1,2.5-10.3,6.5-14.7,11.8c-9.5,11.5-14,23.7-12.8,40c0.2,2.1,1.3,4.1,1.9,6.2
			c0.1-0.3,0.2-0.7,0.3-1c0.4-11-2.9-22.3,7.9-37.4C264,674.4,270.7,665.8,278.2,659.3z"/>
		<path class="st1" d="M438,755.2c0,0-16.9-67,84.1-99c21.2-6.7,47,29.7,38.8,55.1c-8.3,25.4-16.7,58.7-29.1,66.4
			S438,755.2,438,755.2z"/>
		<path d="M490.1,727.7c-7.5,25-5.3,48.8,15.4,55c20.7,6.2,43.6-9,51.1-34c3.8-12.5,1.5-25.6-2.8-35.8
			c-4.3-10.2-16.5-22.6-26.8-25.7C506.2,681,497.6,702.7,490.1,727.7z"/>
		<path class="st1" d="M524.4,697c-1.8,0.2-2.6-0.6-2.5-2.1c5.5,0.2,12,2.1,16.7,6.8c8.5,8.3,11.5,25.5,14.3,33.9
			C553,735.6,539.1,695.4,524.4,697z"/>
		<path class="st1" d="M508.6,699.1c0,0-6.4,35.2,1.8,54.5c6.7,16,29.9,13,29.9,13s0.2,4.8-6.1,8.6c-11,6.6-30.7,11.4-39.9-4.1
			C477.6,743.2,503.4,699.1,508.6,699.1z"/>
		<path class="st9" d="M508.6,699.1c-5.1,0-31,44.1-14.4,72.1c-7.5-30.8,5.8-57.7,14.1-70.8C508.5,699.6,508.6,699.1,508.6,699.1z"
			/>
		<path d="M522.1,656.2c-83.9,26.6-86.5,77.2-84.9,93.7c0.5,3.4,1,5.3,1,5.3s24.5,9.1,48.6,16l0,0c0,0-44.9-18.6-36.4-43.8
			c5.6-16.7,22.7-48.8,65.1-64.7c19-6,25.9,6.2,32.6,13.7c10.4,11.8,11.4,34,9.8,44.2c0,0,3-9.4,3-9.4c0.1-0.4,0.2-0.8,0.4-1.2
			C568.3,684.7,543,649.6,522.1,656.2z"/>
		<path class="st9" d="M271.5,701.8c-3.9,3.7-18.5,26.8-13.1,42.3c3.3,9.5,7.3,16.9,12.6,22.6c-5.5-8.2-12.6-21.7-10.6-33.6
			c6.1-36.5,26.2-37.9,39.8-34.2c-0.8-0.7-1.6-1.3-2.4-1.8C293.7,694.5,280,693.7,271.5,701.8z"/>
		<g>
			<path class="st1" d="M482.7,516.2c0,0,56.6,57.4,43,104.9c-13.7,47.5-46.7,61-71.7,45.3s6.2-86.7,16.6-102.3"/>
			<path d="M482.8,516.1c5.1,4.6,9.8,9.7,14.2,14.9c4.4,5.3,8.6,10.8,12.4,16.5c1,1.4,1.9,2.9,2.8,4.4c0.9,1.5,1.8,2.9,2.7,4.4
				c1.7,3,3.3,6.1,4.8,9.2c3,6.2,5.5,12.8,7.2,19.6c1.7,6.8,2.5,13.8,2.2,20.8c-0.1,3.5-0.6,7-1.3,10.4c-0.4,1.7-0.9,3.4-1.3,5.1
				l-1.6,4.9c-2.3,6.5-5,12.8-8.3,18.9c-0.9,1.5-1.7,3-2.7,4.4c-0.9,1.5-1.9,2.9-2.9,4.3c-2.1,2.8-4.3,5.4-6.8,7.9
				c-5,4.9-11,9-17.9,11.2c-6.8,2.3-14.4,2.6-21.4,0.8c-3.5-0.9-6.9-2.2-10.1-3.9c-0.8-0.5-1.6-0.9-2.4-1.4l-1.2-0.8l-1.2-0.9
				c-1.5-1.3-2.8-2.8-3.8-4.4c-2.1-3.3-3.2-6.9-3.8-10.5c-0.6-3.6-0.8-7.2-0.6-10.8c0.4-7.1,1.6-14,3.3-20.7c0.9-3.4,1.8-6.7,2.9-10
				c1.1-3.3,2.2-6.5,3.5-9.7c2.5-6.4,5.2-12.7,8.3-18.9c1.5-3.1,3.2-6.1,4.9-9.1c1.7-3,3.5-5.9,5.6-8.7l0.4,0.3
				c-3.3,6-6,12.2-8.5,18.5c-2.5,6.3-4.9,12.7-6.9,19.1c-2.1,6.4-3.9,13-5.4,19.5c-1.4,6.6-2.5,13.2-2.7,19.8
				c-0.1,3.3,0,6.5,0.5,9.7c0.5,3.1,1.5,6.1,3,8.7c0.8,1.3,1.7,2.4,2.8,3.4l0.8,0.7l0.9,0.6l2.1,1.2c2.8,1.6,5.8,2.9,8.9,3.7
				c6.2,1.7,12.8,1.7,19-0.1c6.2-1.7,12.1-5,17.2-9.4c2.5-2.2,4.8-4.6,7-7.2c2.1-2.6,4.1-5.4,5.8-8.3c3.5-5.8,6.1-12.1,8.2-18.5
				c0.5-1.6,0.9-3.3,1.4-4.9c0.3-1.6,0.8-3.3,1-4.9c0.4-3.3,0.7-6.7,0.5-10c-0.2-6.7-1.5-13.3-3.4-19.7c-3.8-12.8-9.8-25-16.7-36.6
				c-1.8-2.9-3.6-5.7-5.4-8.6c-1.9-2.8-3.8-5.6-5.8-8.4c-4-5.5-8.1-10.9-12.5-16.2L482.8,516.1z"/>
		</g>
		<path d="M490.6,667.7c13.3-7.2,28.3-22.6,35.2-46.7c10.9-37.7-23.1-81.9-37.4-98.3c-0.8,0.8-2.3,1.5-2.3,1.5s49,48.6,5.8,140.4
			C491.5,665.7,491.1,666.7,490.6,667.7z"/>
		<path d="M474.9,671.5c4.1-2.1,13.8-11.5,16-17.9c2.2-6.4-4.7,18.8-10.4,19.2C474.7,673.2,474.9,671.5,474.9,671.5z"/>
		<path class="st9" d="M455.5,604.7c2.8-12.8,12.6-33.5,13.8-36.1c-12.2,22.3-36.3,82.8-13.5,97.2c8.9,5.6,12.2,5.3,22,4.4
			C439.7,661.1,449.6,631.2,455.5,604.7z"/>
		<path d="M461.2,670.3c4.1-2.1,13.8-11.5,16-17.9s-4.7,18.8-10.4,19.2S461.2,670.3,461.2,670.3z"/>
		<ellipse class="st26" cx="399.2" cy="777.6" rx="183.8" ry="25.5"/>
		<ellipse class="st26" cx="402" cy="761" rx="102.9" ry="21.1"/>
	</g>
	<path d="M501.1,320c0,0,31.7-65.5,68.7-4.7c18.6,30.6-8.3,55.5-28.1,58.5C521.9,376.9,501.1,320,501.1,320z"/>
	<path d="M335.3,303.8c0,0-27.6-62.8-72.4-22.7s15.6,71.7,22.1,72.1C291.5,353.5,331.4,330.3,335.3,303.8z"/>
	<path class="st1" d="M314,312.5c0,0-1-26.9-22.2-41.6c-11.4-7.9-55.8,30.9-32.6,55.2c16.5,17.3,28.3,20.1,28.3,20.1
		S310.9,341.4,314,312.5z"/>
	<path class="st1" d="M498.8,327.3c0,0,11.2-33.7,40.3-31.2c29.1,2.4,26.7,29.5,12.6,40.9c-14.1,11.4-40.1,16.1-40.1,16.1
		L498.8,327.3z"/>
	<path class="st9" d="M551.9,299.5c-3.3-1.8-7.5-3-12.7-3.5c-29.1-2.4-40.3,31.2-40.3,31.2l1.8,3.5c3.9-12,13.7-27.8,38.1-30.5
		C543.6,299.7,548,299.5,551.9,299.5z"/>
	<path class="st9" d="M259.2,326.1c16.5,17.3,28.3,20.1,28.3,20.1s1.4-0.3,3.5-1.1c-12.3-6.1-24.6-15.2-29.6-29.6
		c-7.1-20.3,10.5-36.4,23.9-45.3c-0.3,0.1-0.5,0.1-0.8,0.2l-12.5,6.8C257.6,288.4,244.1,310.3,259.2,326.1z"/>
	<g>
		<path class="st2" d="M427.2,292.2c0,0,75.6-3.1,108.9,73.3c33.2,76.4,1.1,116.3-10.2,130.8c-11.3,14.5-36.5,40.5-134.6,35.6
			c-94-4.6-151.9-43-120.9-150.9S427.2,292.2,427.2,292.2z"/>
		<path d="M427.2,291.9c4.4-0.1,8.9,0.3,13.4,0.8c4.4,0.6,8.8,1.4,13.2,2.4c8.7,2.1,17.2,5.1,25.2,9c8,3.9,15.7,8.6,22.7,14.3
			c7,5.6,13.3,12.1,18.8,19.2c5.5,7.1,10.2,14.8,14.1,22.8c3.9,8.1,7.2,16.4,10,24.9c2.7,8.5,4.9,17.3,6.1,26.2
			c0.3,2.2,0.6,4.5,0.8,6.7l0.3,3.4l0.1,3.4l0.1,1.7l0,1.7l0,3.4c-0.1,2.3-0.1,4.5-0.4,6.8c-0.3,4.5-1.1,9-2,13.4
			c-0.9,4.4-2.2,8.8-3.8,13c-3.1,8.5-7.4,16.6-12.5,24c-1.3,1.9-2.6,3.7-4,5.5c-1.4,1.8-2.7,3.6-4.2,5.3c-2.9,3.5-6.1,6.8-9.6,9.7
			c-7,5.8-15.2,10.2-23.6,13.5c-4.2,1.6-8.5,3-12.9,4.2c-4.4,1.1-8.7,2.2-13.2,3c-8.8,1.7-17.8,2.8-26.7,3.4
			c-9,0.7-17.9,0.9-26.9,0.9c-9,0-17.9-0.3-26.9-0.8c-17.9-1.1-35.8-3.5-53.2-8.5c-8.7-2.5-17.2-5.7-25.3-10
			c-8.1-4.2-15.7-9.4-22.3-15.8c-6.6-6.4-12.1-14-16.1-22.3c-4-8.3-6.6-17.2-7.8-26.3c-1.3-9.1-1.4-18.2-0.7-27.3
			c0.7-9,2.1-18,4-26.8c1-4.4,2.1-8.8,3.3-13.1c1.2-4.3,2.6-8.7,4.1-12.9c3.2-8.5,7.2-16.7,12.2-24.3c4.9-7.6,10.9-14.6,17.5-20.8
			c6.7-6.2,14-11.5,21.9-15.9c15.7-8.9,33.2-14.2,50.9-16.8c8.9-1.4,17.8-2.1,26.7-2.2C409.4,290.4,418.4,290.7,427.2,291.9z
			 M427.2,292.4c-8.9-1.1-17.8-1.3-26.7-1.1c-8.9,0.3-17.8,1.2-26.5,2.7c-17.5,3.1-34.6,8.8-49.8,17.9c-7.6,4.6-14.6,10-20.9,16.1
			c-6.3,6.2-11.8,13.1-16.4,20.5c-4.7,7.4-8.3,15.4-11.3,23.7c-1.4,4.2-2.8,8.3-3.9,12.6c-1.2,4.3-2.2,8.6-3.1,12.9
			c-1.8,8.6-3.2,17.4-3.8,26.1c-0.6,8.8-0.5,17.5,0.8,26.2c1.2,8.6,3.6,17,7.3,24.8c3.7,7.8,8.8,14.9,15,21
			c6.2,6.1,13.4,11.1,21.1,15.2c7.7,4.1,15.9,7.3,24.4,9.8c16.9,5.1,34.5,7.6,52.2,8.8c8.9,0.6,17.8,0.9,26.6,1
			c8.9,0.1,17.8-0.1,26.6-0.7c8.8-0.6,17.7-1.6,26.4-3.2c4.4-0.8,8.7-1.8,12.9-2.9c4.3-1.2,8.5-2.5,12.6-4
			c8.2-3.2,16.1-7.3,22.8-12.8c3.4-2.8,6.5-5.8,9.3-9.2c1.4-1.7,2.8-3.4,4.1-5.2c1.3-1.8,2.7-3.5,3.9-5.3c5.1-7.2,9.3-15,12.4-23.3
			c1.6-4.1,2.8-8.4,3.8-12.7c1-4.3,1.7-8.7,2.1-13c1.7-17.6-1-35.5-6.2-52.4c-2.6-8.5-5.8-16.8-9.5-24.9c-3.8-8-8.3-15.7-13.7-22.8
			c-10.7-14.2-24.8-25.8-40.8-33.6c-8-3.9-16.5-6.9-25.1-8.9c-4.3-1-8.7-1.8-13.1-2.4C436.1,292.7,431.7,292.3,427.2,292.4z"/>
	</g>
	<path class="st1" d="M492,416.2c26.4,33.6-11.3,77.3-49.6,54.5c-15-8.9-23.2-56.7,4.6-73.7C462.6,387.6,479.9,400.9,492,416.2z"/>
	<path class="st1" d="M316.1,396c-32.3,28-3.4,78.1,38.5,62.9c16.4-5.9,33.5-51.3,9.3-73.2C350.4,373.4,330.9,383.2,316.1,396z"/>
	<g>
		
			<ellipse transform="matrix(4.929749e-02 -0.9988 0.9988 4.929749e-02 -4.8657 880.3774)" cx="460" cy="442.7" rx="21.6" ry="17.1"/>
		<path class="st2" d="M449.1,428.7c-0.6,0-1.3,0-1.9,0.1c-1.5,2.2-2.7,4.8-3.4,7.6c1.1,1.2,2.8,2,4.8,2.1c3.4,0.2,6.3-1.9,6.5-4.6
			C455.2,431.2,452.5,428.8,449.1,428.7z"/>
		
			<ellipse transform="matrix(4.929749e-02 -0.9988 0.9988 4.929749e-02 -22.587 895.5389)" class="st10" cx="459.1" cy="459.6" rx="2.5" ry="5.8"/>
	</g>
	<g>
		
			<ellipse transform="matrix(4.929749e-02 -0.9988 0.9988 4.929749e-02 -103.1353 753.0145)" cx="344" cy="430.7" rx="21.6" ry="17.1"/>
		
			<ellipse transform="matrix(4.929749e-02 -0.9988 0.9988 4.929749e-02 -120.8566 768.176)" class="st10" cx="343.1" cy="447.6" rx="2.5" ry="5.8"/>
		<path class="st2" d="M361,428c-0.2-3.1-1-6.1-2.3-8.7c-0.6-0.2-1.2-0.3-1.9-0.3c-3.8-0.2-7.1,1.9-7.2,4.6
			c-0.1,2.8,2.9,5.1,6.7,5.3C358.1,429.1,359.7,428.7,361,428z"/>
	</g>
	<path d="M413.9,461.7c-0.2,4.4-9.9,8.6-13.1,8.4c-3.2-0.2-11.9-4.9-11.7-9.6c0.1-2.3,6.2-4,12.3-3.6
		C407.7,457.5,414,459.5,413.9,461.7z"/>
	<path class="st8" d="M475.2,305.5c17.3,24.4,46.2,67.4,41.8,111c-5.7,56.5-19.9,72.5-63.5,112.9c49-10.1,62.4-28.2,70.8-39.1
		c11.3-14.5,41.2-49.8,8-126.1C517,329,497,315,475.2,305.5z"/>
	<g>
		<path d="M385.5,490.3c3.6,0.9,7,1.7,10.4,2.3c3.4,0.6,6.7,0.8,9.8,0.5c3.2-0.3,6.2-1.2,8.9-2.9c2.8-1.6,5.3-4,7.9-6.6
			c-0.8,3.6-2.6,7.1-5.6,9.8c-2.9,2.7-6.9,4.3-10.8,4.7c-4,0.4-7.9-0.3-11.4-1.7C391.3,495,388,493,385.5,490.3z"/>
	</g>
	<g id="XMLID_1_">
		<g id="XMLID_103_">
			<path class="st11" d="M330.8,663c-0.3,0-0.5,0-0.8-0.1c-1-0.3-1.7-1.3-1.7-2.3l-1.7-89c0-0.8,0.4-1.6,1-2.1
				c0.4-0.3,1-0.5,1.5-0.5c0.3,0,0.5,0,0.8,0.1l54.2,17.1c0.8,0.2,1.4,0.8,1.6,1.6c0.2,0.8,0.1,1.6-0.4,2.3L332.8,662
				C332.4,662.7,331.6,663,330.8,663z"/>
			<path d="M329.1,571.5l54.2,17.1l-52.5,71.9L329.1,571.5 M329.1,566.5c-1.1,0-2.1,0.3-3,1c-1.3,1-2,2.5-2,4.1l1.7,89
				c0,2.1,1.4,4,3.5,4.7c0.5,0.2,1,0.2,1.5,0.2c1.6,0,3.1-0.7,4-2l52.5-71.9c1-1.3,1.2-3,0.7-4.5c-0.5-1.5-1.7-2.7-3.2-3.2
				l-54.2-17.1C330.1,566.6,329.6,566.5,329.1,566.5L329.1,566.5z"/>
		</g>
		<g id="XMLID_12_">
			
				<rect id="XMLID_102_" x="347.8" y="592.9" transform="matrix(0.8874 -0.4611 0.4611 0.8874 -235.5034 229.2694)" class="st12" width="7.4" height="7.4"/>
			
				<rect id="XMLID_101_" x="348.1" y="617.8" transform="matrix(0.8874 -0.4611 0.4611 0.8874 -246.9436 232.2482)" class="st12" width="7.4" height="7.4"/>
			
				<rect id="XMLID_100_" x="343" y="607.9" transform="matrix(0.8873 -0.4611 0.4611 0.8873 -242.9688 228.7741)" class="st12" width="7.4" height="7.4"/>
			
				<rect id="XMLID_99_" x="352.9" y="602.8" transform="matrix(0.8874 -0.4611 0.4611 0.8874 -239.4813 232.7481)" class="st12" width="7.4" height="7.4"/>
			<polygon id="XMLID_98_" class="st12" points="330.5,644.9 330.6,649.3 332.3,648.4 			"/>
			<polygon id="XMLID_97_" class="st12" points="337.1,633.4 333.7,626.8 330.2,628.6 330.4,636.6 330.5,636.8 			"/>
			
				<rect id="XMLID_96_" x="362.8" y="597.7" transform="matrix(0.8874 -0.4611 0.4611 0.8874 -236.0009 236.7334)" class="st12" width="7.4" height="7.4"/>
			<polygon id="XMLID_95_" class="st12" points="329.6,594.8 329.7,599.6 331.6,598.6 			"/>
			<polygon id="XMLID_94_" class="st12" points="336.7,608.5 333.3,601.9 329.7,603.7 329.9,611.5 330.1,611.9 			"/>
			<polygon id="XMLID_93_" class="st12" points="330.1,619.8 330.1,624.4 332,623.5 			"/>
			<polygon id="XMLID_92_" class="st12" points="346.2,578.4 345.3,576.6 335.3,573.5 339.6,581.8 			"/>
			
				<rect id="XMLID_91_" x="338.3" y="623" transform="matrix(0.8874 -0.4611 0.4611 0.8874 -250.4283 228.2698)" class="st12" width="7.4" height="7.4"/>
			
				<rect id="XMLID_90_" x="333.1" y="613.1" transform="matrix(0.8873 -0.4611 0.4611 0.8873 -246.452 224.7934)" class="st12" width="7.4" height="7.4"/>
			
				<rect id="XMLID_89_" x="333.5" y="638" transform="matrix(0.8874 -0.4611 0.4611 0.8874 -257.8921 227.7723)" class="st12" width="7.4" height="7.4"/>
			
				<rect id="XMLID_88_" x="357.6" y="587.8" transform="matrix(0.8874 -0.4611 0.4611 0.8874 -232.0174 233.2456)" class="st12" width="7.4" height="7.4"/>
			<polygon id="XMLID_87_" class="st12" points="334.1,651.7 330.7,653.5 330.8,660.5 335.4,654.3 			"/>
			
				<rect id="XMLID_86_" x="342.6" y="583" transform="matrix(0.8873 -0.4611 0.4611 0.8873 -231.5254 225.7906)" class="st12" width="7.4" height="7.4"/>
			
				<rect id="XMLID_85_" x="332.7" y="588.2" transform="matrix(0.8874 -0.4611 0.4611 0.8874 -235.0016 221.7989)" class="st12" width="7.4" height="7.4"/>
			
				<rect id="XMLID_84_" x="337.9" y="598" transform="matrix(0.8873 -0.4611 0.4611 0.8873 -238.988 225.2909)" class="st12" width="7.4" height="7.4"/>
			<polygon id="XMLID_83_" class="st12" points="336.3,583.6 330.2,571.9 329.1,571.5 329.4,586.4 329.7,587 			"/>
			<polygon id="XMLID_82_" class="st12" points="374.5,600.7 383.4,588.7 383.1,588.6 371.4,594.6 			"/>
			<polygon id="XMLID_81_" class="st12" points="369.7,591.3 378,587 368,583.8 366.2,584.8 			"/>
			<polygon id="XMLID_80_" class="st12" points="367.2,610.8 368.9,608.5 366.6,609.7 			"/>
			<polygon id="XMLID_79_" class="st12" points="337.8,650.9 339.3,649 337.4,650 			"/>
			<polygon id="XMLID_78_" class="st12" points="354.6,586.6 361.2,583.2 360.3,581.4 353,579.1 351.2,580 			"/>
			<polygon id="XMLID_77_" class="st12" points="352.5,630.9 354.1,628.8 352,629.8 			"/>
			<polygon id="XMLID_76_" class="st12" points="342.1,635 345.2,640.9 350.1,634.2 348.7,631.6 			"/>
			<polygon id="XMLID_75_" class="st12" points="356.7,614.8 359.9,620.8 364.8,614.1 363.3,611.4 			"/>
			<path id="XMLID_13_" class="st13" d="M335.4,654.3l2.4-3.3l-0.5-0.9l1.9-1l5.9-8.1l-3.1-5.9l6.6-3.4l1.4,2.7l2.4-3.3l-0.5-1
				l2.1-1.1l5.8-7.9l-3.1-6l6.6-3.4l1.4,2.7l2.4-3.3l-0.6-1.1l2.2-1.2l5.7-7.8l-3.2-6.1l11.7-6.1l-5-1.6l-8.4,4.4l-3.4-6.6l1.8-0.9
				l-7.7-2.4l0.9,1.8l-6.6,3.4l-3.4-6.6l1.8-0.9l-7.7-2.4l0.9,1.8l-6.6,3.4l-4.4-8.4l-5-1.6l6.1,11.7l-6.6,3.4l-0.3-0.6l0.2,8.4
				l2,3.8l-1.9,1l0.1,4.1l3.5-1.8l3.4,6.6l-6.6,3.4l-0.2-0.4l0.2,8.4l1.9,3.7l-1.8,0.9l0.1,4.1l3.4-1.8l3.4,6.6l-6.6,3.4l-0.1-0.2
				l0.2,8.4l1.8,3.5l-1.7,0.9l0.1,4.1l3.4-1.7L335.4,654.3z M356.9,623.1l-6.6,3.4l-3.4-6.6l6.6-3.4L356.9,623.1z M345.1,616.7
				l-3.4-6.6l6.6-3.4l3.4,6.6L345.1,616.7z M355,611.5l-3.4-6.6l6.6-3.4l3.4,6.6L355,611.5z M371.5,602.9l-6.6,3.4l-3.4-6.6l6.6-3.4
				L371.5,602.9z M362.9,586.5l3.4,6.6l-6.6,3.4l-3.4-6.6L362.9,586.5z M356.5,598.2l-6.6,3.4l-3.4-6.6l6.6-3.4L356.5,598.2z
				 M347.9,581.7l3.4,6.6l-6.6,3.4l-3.4-6.6L347.9,581.7z M331.4,590.3l6.6-3.4l3.4,6.6l-6.6,3.4L331.4,590.3z M336.6,600.2l6.6-3.4
				l3.4,6.6l-6.6,3.4L336.6,600.2z M331.8,615.2l6.6-3.4l3.4,6.6l-6.6,3.4L331.8,615.2z M337,625.1l6.6-3.4l3.4,6.6l-6.6,3.4
				L337,625.1z M332.2,640.1l6.6-3.4l3.4,6.6l-6.6,3.4L332.2,640.1z"/>
		</g>
		<g id="XMLID_10_">
			<path class="st14" d="M330.5,562.4c-1.1,2-2.7,3-4.7,4.4c-1.8,1.2-3.6,3-3.4,5.2c0.2,2.7,3.5,4.3,6.2,4.1
				c1.2-0.1,2.6-0.3,3.6,0.5c1,0.8,1.1,2.3,1.2,3.5c0.1,1.3,0.5,2.8,1.8,3.2c1.8,0.5,3.1-1.7,4.9-2.1c1.4-0.3,2.8,0.5,3.6,1.6
				c0.8,1.1,1.3,2.5,1.8,3.8c0.9,2,2.2,4,4,5.1c1.9,1.2,4.4,1.4,6.3,0.2c0.6-0.4,1.2-1,1.9-1.4c2-1.2,5,0.1,5.6,2.4
				c0.2,0.6,0.2,1.2,0.4,1.8c0.3,0.6,0.8,1,1.3,1.3c2.8,1.5,6.2,0.4,9-1.1c2-1,4.6-2.2,6.1-0.6c0.7,0.7,0.9,1.8,1.6,2.6
				c1.1,1.3,3.2,1.2,4.6,0.3s2.2-2.5,2.7-4.1c0.4-1.4,0.7-2.8,0.5-4.2c-0.4-3.7-3.2-6.7-2.7-10.5c0,0.2,0,0.3-0.1,0.5
				c0.3-2.3,1.2-4.5,1.3-6.9c0.2-2.5,0-5.1-0.4-7.5c-0.9-4.9-3-9.6-6.2-13.5c-3.5-4.3-8.2-7.5-13.5-9.2c-9.4-3-19.8-0.8-27.3,5.4
				c-2.3,1.9-4.2,4.1-5.9,6.5c-1.6,2.4-2.7,5.1-3.7,7.8C330.8,561.7,330.6,562,330.5,562.4z"/>
			<path d="M330.7,562.5c-0.6,1.1-1.5,2.1-2.4,2.8c-0.9,0.8-2,1.5-2.9,2.2c-0.9,0.8-1.7,1.7-2.1,2.7c-0.4,1-0.3,2.1,0.3,2.9
				c0.6,0.8,1.5,1.4,2.5,1.6c0.5,0.1,1,0.2,1.6,0.2c0.5,0,1-0.1,1.6-0.2c0.6-0.1,1.3-0.2,2.2-0.1c0.9,0.1,1.9,0.6,2.5,1.4
				c0.6,0.8,0.8,1.6,1,2.3c0.1,0.4,0.1,0.7,0.2,1l0.1,0.5c0,0.1,0,0.2,0.1,0.3c0.1,0.4,0.3,0.8,0.4,1c0.2,0.2,0.1,0,0.1,0
				c-0.1,0,0,0,0.4-0.3c0.3-0.2,0.8-0.6,1.4-1.1c0.6-0.4,1.4-0.9,2.6-1.1c1.1-0.2,2.2,0.1,3,0.6c0.9,0.4,1.5,1,2.1,1.7
				c0.6,0.7,0.9,1.4,1.2,2c0.6,1.3,0.9,2.4,1.4,3.3c0.5,0.9,1,1.8,1.6,2.5c0.3,0.3,0.7,0.6,1,0.9c0.3,0.2,0.7,0.4,1.1,0.6
				c0.8,0.3,1.7,0.4,2.4,0.2c0.4-0.1,0.7-0.2,1.1-0.5c0.4-0.3,1-0.8,1.8-1.2c1.7-0.8,3.5-0.5,4.9,0.3c0.7,0.4,1.3,0.9,1.8,1.6
				c0.2,0.3,0.4,0.7,0.6,1.1c0.1,0.4,0.2,0.8,0.3,1.1c0,0.3,0.1,0.6,0.1,0.8c0,0.2,0.1,0.3,0.2,0.4c0.2,0.3,0.6,0.6,1,0.8
				c1.8,0.9,4.2,0.5,6.4-0.4c0.5-0.2,1.1-0.5,1.6-0.7c0.6-0.3,1.1-0.6,1.7-0.8c0.6-0.2,1.2-0.4,1.9-0.5c0.7-0.1,1.5-0.1,2.2,0.2
				c0.7,0.3,1.4,0.9,1.7,1.5c0.4,0.6,0.6,1.2,0.9,1.5c0.5,0.7,1.5,1,2.4,0.8c0.9-0.2,1.7-0.8,2.2-1.7c0.6-0.9,0.9-1.9,1.1-3
				c0.2-1.1,0.3-2.2,0.1-3.2c-0.2-1-0.6-2-1.1-3.1c-0.5-1.1-1.1-2.2-1.5-3.5c-0.5-1.3-0.7-2.8-0.6-4.4l3.8,0.5l0,0.5l-3.9-0.5
				c0.2-2.2,0.8-4.2,1-5.8c0.1-0.4,0.1-0.8,0.1-1.3c0-0.5,0-0.9,0-1.4c0-0.9-0.1-1.8-0.2-2.7c-0.4-3.6-1.5-7.1-3.2-10.3
				c-3.4-6.3-9.3-11.1-16.1-13.2c-6.8-2-14.5-1.5-21.2,1.7c-3.4,1.6-6.5,3.9-9,6.8c-1.3,1.5-2.3,3.1-3.2,4.8
				c-0.4,0.9-0.8,1.8-1.2,2.7C331.5,560.7,331.1,561.6,330.7,562.5z M330.2,562.3c0.8-1.7,1.3-3.7,2.1-5.5c0.8-1.8,1.7-3.6,2.9-5.2
				c2.2-3.3,5.1-6.3,8.5-8.6c3.4-2.4,7.3-4,11.5-4.7c4.1-0.7,8.5-0.6,12.6,0.6c4.1,1.1,8,3.1,11.3,5.8c3.3,2.7,6,6.2,7.9,10
				c1.9,3.8,3,8,3.3,12.2c0.1,1,0.1,2.1,0.1,3.2c0,0.5,0,1-0.1,1.6c0,0.5-0.1,1.1-0.2,1.7c-0.4,2.2-1.1,4-1.4,5.6l-3.9-0.5l0.1-0.5
				l3.8,0.5c-0.1,0.9-0.1,1.8,0.1,2.8c0.2,1,0.7,2.1,1.1,3.3c0.4,1.2,0.8,2.5,0.9,3.9c0.1,1.4-0.1,2.8-0.5,4.1
				c-0.4,1.2-0.9,2.5-1.7,3.6c-0.4,0.6-0.9,1.1-1.5,1.5c-0.6,0.4-1.3,0.7-2.1,0.8c-0.7,0.1-1.5,0.1-2.2-0.2
				c-0.7-0.2-1.4-0.8-1.8-1.4c-0.4-0.6-0.6-1.2-0.9-1.7c-0.2-0.5-0.5-0.7-0.9-0.9c-0.8-0.4-1.9-0.1-3,0.3c-0.5,0.2-1.1,0.5-1.6,0.7
				c-0.5,0.3-1.1,0.6-1.7,0.8c-1.2,0.5-2.4,0.9-3.7,1.2c-1.3,0.2-2.8,0.1-4.1-0.4c-0.7-0.3-1.3-0.6-1.9-1.3
				c-0.3-0.3-0.5-0.8-0.7-1.2c-0.1-0.4-0.2-0.7-0.3-1c-0.1-0.3-0.1-0.5-0.2-0.6c-0.1-0.2-0.2-0.3-0.3-0.5c-0.3-0.3-0.6-0.5-1-0.7
				c-0.8-0.3-1.6-0.2-2.1,0.1c-0.3,0.2-0.6,0.5-1.1,1c-0.5,0.5-1.3,1-2.1,1.3c-1.6,0.6-3.2,0.6-4.8,0.2c-0.8-0.2-1.5-0.5-2.2-0.9
				c-0.7-0.4-1.3-0.9-1.8-1.4c-1.1-1-1.9-2.2-2.6-3.5c-0.7-1.3-1.1-2.5-1.5-3.4c-0.4-0.9-0.8-1.4-1.3-1.7c-0.2-0.1-0.4-0.2-0.5-0.2
				c-0.1,0-0.3,0-0.7,0.3c-0.4,0.2-0.9,0.6-1.6,1c-0.3,0.2-0.8,0.4-1.3,0.6c-0.5,0.2-1.2,0.2-1.8,0.1c-0.6-0.1-1.2-0.4-1.7-0.7
				c-0.5-0.4-0.8-0.8-1.1-1.3c-0.5-0.9-0.6-1.7-0.7-2.4c0-0.2,0-0.4,0-0.6l0-0.5c0-0.3,0-0.6,0-0.8c0-0.5-0.1-0.9-0.2-1.1
				c-0.1-0.2-0.2-0.3-0.5-0.5c-0.3-0.1-0.9-0.2-1.5-0.2c-0.6,0-1.3,0-2-0.1c-0.7-0.1-1.4-0.3-2-0.6c-1.3-0.6-2.5-1.4-3.1-2.7
				c-0.7-1.3-0.6-2.9,0.1-4.1c0.6-1.2,1.6-2.1,2.6-2.8c1-0.7,2.1-1.3,3-2.1C328.9,564.2,329.7,563.3,330.2,562.3z"/>
		</g>
		<g id="XMLID_8_">
			<path class="st15" d="M338.8,536.8c4.9-15.6,21.3-24.3,36.6-19.5c10.7,3.4,18.5,13,20,24.1c0.3,2.1,0.3,4.3,0.1,6.4
				c-0.2,2.5-0.7,5-1.4,7.4c-0.6,2.3-1.2,4.2-0.7,6.5c0.5,2.3,1.5,4.5,1.3,6.8s-1.8,4.8-4.2,4.7c-0.8,0-1.7-0.4-2.2-1.1
				c-0.7-0.8-1-1.8-1.7-2.5c-1-0.9-2.5-1-3.8-0.7c-1.3,0.3-2.6,0.8-4,0.8c-2.1,0.1-4.2-1.1-5.2-2.9c-0.3-0.6-0.6-1.2-1-1.8
				c-0.8-1.1-2.3-1.5-3.6-1.1c-2.3,0.8-2.9,3.8-3.7,6.1c-0.6,1.5-1.8,3.1-3.4,2.8c-1.2-0.2-1.9-1.6-2.1-2.8
				c-0.2-1.2-0.1-2.5-0.5-3.7c-0.8-2.2-3.8-3.3-5.9-2.2c-0.8,0.4-1.5,1.1-2.4,1.2c-0.6,0.1-1.3-0.2-1.9-0.4c-2.3-1-4.8-2.1-6-4.3
				c-0.5-1-0.8-2.1-1.4-3.1c-1-1.6-2.9-2.6-4.8-2.5c-1.3,0.1-2.4,0.6-3.7,0.8s-2.7,0-3.4-1.1c-0.6-1-0.3-2.4,0.4-3.3
				c0.7-1,1.7-1.6,2.6-2.4C336.5,546,337.4,541.1,338.8,536.8z"/>
			<path d="M338.6,536.7c1.4-4.3,3.6-8.4,6.6-11.9c1.5-1.8,3.2-3.3,5-4.8c1-0.7,1.9-1.4,2.9-2c1-0.6,2-1.2,3.1-1.6
				c4.3-1.9,9.2-2.9,14.1-2.4c2.4,0.3,4.8,0.8,7.1,1.6c2.3,0.9,4.4,2,6.4,3.4c2,1.4,3.7,3.1,5.3,4.9c1.5,1.8,2.8,3.8,3.9,5.9
				c1.1,2.1,1.9,4.3,2.5,6.6c0.6,2.3,0.9,4.6,1,6.9c0.2,4.6-0.7,9.2-1.8,13.6c-0.3,1.1-0.4,2.1-0.4,3.1c0,0.5,0.1,1,0.2,1.5
				c0.1,0.5,0.3,1,0.5,1.6c0.3,1.1,0.7,2.2,1,3.4c0.1,0.6,0.2,1.2,0.2,1.9c0,0.6,0,1.4-0.2,2c-0.4,1.3-1,2.6-2.3,3.6
				c-1.2,1-3.2,1.4-4.8,0.7c-0.8-0.3-1.5-0.9-2.1-1.5c-0.5-0.6-0.8-1.2-1.1-1.5c-0.3-0.4-0.4-0.5-0.5-0.5c-0.2-0.1-0.4-0.1-0.8-0.1
				c-0.7,0-1.5,0.2-2.6,0.6c-0.5,0.2-1.2,0.3-1.9,0.5c-0.7,0.1-1.5,0.2-2.3,0.1c-1.6-0.2-3-0.8-4.2-1.8c-0.6-0.5-1.1-1.1-1.6-1.8
				c-0.5-0.7-0.7-1.3-0.9-1.6c-0.1-0.1-0.1-0.2-0.2-0.2c0,0-0.1-0.1-0.2-0.1c-0.1-0.1-0.3-0.1-0.5-0.1c-0.3,0-0.5,0.1-0.8,0.5
				c-0.3,0.5-0.7,1.3-1,2.3c-0.2,0.5-0.3,1.1-0.5,1.7c-0.2,0.7-0.6,1.4-1,2.1c-0.5,0.7-1.1,1.4-2,2c-0.9,0.6-2.4,0.9-3.7,0.5
				c-1.3-0.4-2.3-1.3-2.8-2.1c-0.6-0.8-0.9-1.7-1-2.5c-0.2-0.9-0.2-1.5-0.2-2c0-0.5-0.1-1-0.1-1.3c-0.1-0.3-0.1-0.4-0.2-0.5
				c-0.1-0.1-0.3-0.3-0.5-0.4c-0.4-0.3-0.9-0.3-1.3-0.3c-0.1,0-0.2,0-0.2,0.1c-0.1,0-0.3,0.1-0.5,0.3c-0.4,0.3-1.1,0.8-2.4,1.1
				c-0.6,0.1-1.3,0.1-1.8,0c-0.5-0.1-1-0.2-1.3-0.4c-0.4-0.1-0.6-0.3-0.9-0.4l-0.8-0.4c-1.1-0.5-2.2-1.1-3.4-2
				c-1.1-0.9-2.2-2.1-2.8-3.5c-0.5-1.4-0.7-2.3-1-2.8c-0.3-0.6-0.9-1-1.6-1.3c-0.7-0.3-1.3-0.4-2.3-0.2c-0.5,0.1-1.1,0.2-1.7,0.3
				c-0.6,0.1-1.4,0.2-2.1,0.1c-0.7-0.1-1.5-0.3-2.2-0.8c-0.7-0.5-1.3-1.3-1.4-2.1c-0.3-1.7,0.5-3,1.4-4c0.9-0.9,1.9-1.5,2.7-2.2
				c1.6-1.3,2.8-3.3,3.7-5.3C337.3,541,337.9,538.8,338.6,536.7z M339.1,536.9c-0.7,2.1-1.2,4.3-2,6.5c-0.7,2.1-1.8,4.3-3.4,6
				c-0.8,0.9-1.7,1.6-2.3,2.3c-0.3,0.4-0.5,0.8-0.6,1.2c-0.1,0.4-0.1,0.8,0,1.1c0.1,0.3,0.3,0.4,0.5,0.5c0.3,0.1,0.6,0.2,1,0.1
				c0.8,0,1.6-0.4,2.8-0.8c0.6-0.2,1.3-0.4,2-0.5c0.8-0.1,1.5,0,2.3,0.2c1.5,0.4,2.8,1.2,3.9,2.5c1,1.3,1.4,2.7,1.8,3.3
				c0.3,0.6,0.8,1.1,1.5,1.6c0.7,0.5,1.6,0.9,2.5,1.3l0.7,0.3l0.7,0.3c0.2,0.1,0.3,0.1,0.3,0.1c0,0-0.1,0-0.1,0
				c-0.1,0,0.1-0.1,0.6-0.4c0.2-0.2,0.5-0.4,1-0.6c0.4-0.2,0.9-0.4,1.4-0.5c1.9-0.5,3.7-0.1,5.2,0.8c0.8,0.4,1.5,1,2.1,1.8
				c0.6,0.7,1,1.7,1.2,2.5c0.2,0.8,0.2,1.5,0.3,2.1c0,0.6,0.1,1.1,0.1,1.3c0,0.3,0.1,0.5,0.2,0.6c0.1,0.1,0,0-0.2-0.1
				c-0.2-0.1-0.4,0-0.4,0c0,0,0.2-0.1,0.4-0.4c0.2-0.3,0.3-0.5,0.5-0.9l0.6-1.5c0.4-1.1,0.8-2.4,1.9-3.7c0.5-0.7,1.2-1.3,2.1-1.8
				c0.8-0.4,1.9-0.7,2.9-0.6c1,0.1,1.9,0.4,2.7,0.9c0.4,0.3,0.8,0.6,1.1,1c0.4,0.4,0.6,0.8,0.8,1.1c0.4,0.7,0.5,1.2,0.7,1.4
				c0.2,0.3,0.4,0.5,0.6,0.8c0.5,0.5,1.2,0.8,1.8,0.9c0.6,0.1,1.4,0,2.5-0.3c0.5-0.1,1.1-0.3,1.8-0.4c0.7-0.1,1.4-0.1,2.2-0.1
				c0.8,0.1,1.6,0.3,2.4,0.8c0.4,0.2,0.8,0.6,1.1,0.9c0.3,0.3,0.5,0.7,0.7,1c0.3,0.6,0.5,1.1,0.7,1.3c0.1,0.2,0.3,0.4,0.6,0.5
				c0.5,0.3,1,0.3,1.6-0.1c0.6-0.4,1.1-1.1,1.4-1.9c0.3-0.8,0.3-1.7,0.2-2.8c-0.1-1-0.4-2.1-0.6-3.2c-0.1-0.6-0.3-1.1-0.4-1.7
				c-0.1-0.6-0.2-1.3-0.1-1.9c0-1.3,0.3-2.4,0.6-3.5c1.3-4.3,2.2-8.6,1.8-13c-0.4-4.4-1.9-8.6-4.3-12.2c-2.4-3.6-5.5-6.6-9.1-8.7
				c-7.1-4.4-15.9-5.5-24.1-3.2c-4.1,1.2-8,3.3-11.2,6.3C342.9,528.7,340.4,532.6,339.1,536.9z"/>
		</g>
		<g id="XMLID_6_">
			<path class="st16" d="M342.4,518.3c-0.4,1.9-0.9,3.3-2.4,4.8c-1.3,1.3-2.9,2.3-3.9,3.8s-1.6,3.6-0.6,5.1c1.2,1.9,3.9,2,6.1,1.7
				c2.2-0.3,4.7-0.7,6.5,0.7c0.9,0.7,1.4,1.9,2,2.9c1.5,2.4,3.6,4.4,6.2,5.7c1.9,0.9,4.3,1.4,6,0.1c0.7-0.5,1.2-1.3,2-1.7
				c1-0.5,2.3-0.1,3.1,0.5c0.9,0.7,1.5,1.6,2.2,2.5c1.2,1.7,2.6,3.4,4.4,4.4c1.8,1,4.2,1.3,6,0.3c1-0.5,1.7-1.4,2.6-2.1
				c2.2-1.9,6-2.6,7.9-0.4c0.8,0.9,1.2,2.1,1.9,3.1c0.8,1.1,1.9,1.9,3.1,2.4c1.5,0.8,3.3,1.3,5,0.8c1.7-0.5,3-2.2,2.5-3.9
				c-0.1-0.5-0.4-0.9-0.7-1.4c-1.4-2.5-2-5.5-2-8.3c0-2.9,0.9-5.4,1.4-8.2c0.9-5.3,0.6-10.7-1.1-15.8c-3.1-9-10.3-16.3-19.4-19.2
				c-10.2-3.2-21.4-0.6-29.3,6.5c-4.3,3.9-8.1,9.4-9.3,15.1C342.4,518.1,342.4,518.2,342.4,518.3z"/>
			<g>
				<path d="M342.6,518.4c-0.2,1.1-0.5,2.2-1.1,3.2c-0.5,1-1.4,1.8-2.2,2.6c-1.6,1.5-3.4,3-3.6,5c-0.2,1,0,1.9,0.6,2.5
					c0.5,0.6,1.4,0.9,2.3,1c0.9,0.1,1.9-0.1,3-0.3c1.1-0.2,2.2-0.5,3.6-0.5c1.3,0,2.9,0.2,4.2,1.3c1.3,1,1.9,2.3,2.4,3.1
					c1.1,1.6,2.5,3,4,4c0.8,0.5,1.7,1,2.4,1.2c0.8,0.3,1.6,0.3,2.1,0.2c0.6-0.1,0.6-0.1,1.7-1.2c0.3-0.2,0.7-0.5,1.1-0.8
					c0.5-0.2,1-0.4,1.5-0.5c1-0.1,1.9,0.1,2.7,0.4c0.8,0.3,1.5,0.9,2,1.4c0.5,0.5,0.9,1.1,1.2,1.6c0.6,1,1.2,1.8,1.8,2.6
					c1.2,1.6,2.6,2.9,4.4,3.2c0.9,0.2,1.8,0.2,2.5-0.1c0.8-0.3,1.5-1,2.4-1.8c1.9-1.5,4.5-2.4,7.1-1.7c1.3,0.3,2.4,1.3,3,2.4
					c0.6,1.1,0.9,2,1.6,2.7c0.7,0.7,1.5,1.3,2.5,1.7c0.9,0.5,1.9,0.8,2.9,0.8c0.5,0,0.9,0,1.4-0.1c0.4-0.1,0.8-0.3,1.1-0.6
					c0.6-0.6,1-1.4,0.8-2c-0.1-0.3-0.3-0.6-0.6-1.1c-0.3-0.5-0.6-1-0.9-1.6c-0.5-1.1-0.9-2.2-1.2-3.4c-0.3-1.2-0.5-2.3-0.6-3.5
					c-0.1-1.2-0.1-2.5,0.1-3.6c0.3-2.4,0.8-4.5,1-6.5c0.4-4.2,0.1-8.3-1.1-12.3c-1.2-3.9-3.2-7.5-5.9-10.6c-2.7-3-6-5.5-9.6-7.2
					c-7.3-3.4-16.1-3.4-23.9-0.3c-3.9,1.6-7.6,4-10.5,7.2C345.8,510.2,343.5,514.1,342.6,518.4z M342.1,518.3
					c0.9-4.4,2.9-8.5,5.6-12.2c0.7-0.9,1.4-1.8,2.1-2.7c0.7-0.9,1.5-1.7,2.4-2.5c1.7-1.6,3.5-3,5.6-4.2c2-1.2,4.2-2.2,6.4-2.9
					c2.3-0.7,4.6-1.2,7-1.3c4.8-0.2,9.7,0.6,14.1,2.5c8.9,3.9,15.6,12.1,17.9,21.3c1.2,4.6,1.3,9.5,0.5,14.1
					c-0.2,1.1-0.5,2.3-0.8,3.4c-0.3,1.1-0.6,2.1-0.8,3.1c-0.2,1-0.4,2-0.4,3c0,1,0,2.1,0.2,3.1c0.1,1,0.4,2,0.7,3
					c0.2,0.5,0.4,0.9,0.6,1.4c0.2,0.5,0.6,1.1,0.8,1.9c0.3,3.4-3,5.2-5.5,4.8c-1.3-0.1-2.4-0.6-3.4-1.1c-1-0.5-2.1-1.2-2.9-2.1
					c-0.9-1-1.3-2.1-1.8-3c-0.5-0.9-1.2-1.4-2.1-1.6c-1.8-0.4-3.9,0.4-5.3,1.7c-0.7,0.7-1.5,1.7-2.7,2.4c-1.2,0.7-2.6,0.9-4,0.7
					c-1.3-0.1-2.6-0.6-3.7-1.3c-1.1-0.7-2.1-1.5-2.9-2.4c-0.8-0.9-1.6-1.9-2.2-2.7c-0.6-0.8-1.2-1.3-1.7-1.4
					c-0.2-0.1-0.5-0.1-0.5-0.1c-0.1,0,0,0-0.3,0.2c-0.3,0.2-0.6,0.7-1.3,1.3c-0.7,0.5-1.6,0.9-2.4,1.1c-1.7,0.4-3.1,0.1-4.4-0.4
					c-1.3-0.4-2.4-1.1-3.5-1.8c-2.1-1.5-3.8-3.4-5-5.6c-1.1-2.3-1.4-2.9-3.3-3.2c-0.9-0.1-2-0.1-3.1,0c-1.2,0.1-2.4,0.1-3.7-0.2
					c-1.2-0.3-2.6-0.9-3.4-2.1c-0.8-1.2-0.8-2.7-0.4-3.8c0.4-1.2,1.1-2.2,1.9-3c0.8-0.8,1.7-1.5,2.6-2.2c0.9-0.7,1.6-1.4,2.2-2.4
					C341.6,520.4,341.9,519.4,342.1,518.3z"/>
			</g>
		</g>
	</g>
	<g>
		<path class="st1" d="M288.4,587.9c69.4,2.3,100.7,44.2,88.9,60.1c-13.1,17.6-39.7,30.9-98.6-6.4c-58.9-37.2,25.7-130.7,25.7-130.7
			"/>
		<path d="M288.4,587.6c16-0.5,32.2,1.7,47.4,7.2c3.8,1.3,7.5,3,11.2,4.8c3.6,1.8,7.2,3.8,10.6,6.1c6.7,4.6,12.9,10.2,17.5,17.1
			c2.3,3.4,4.1,7.2,5.2,11.3c0.5,2,0.8,4.2,0.7,6.3c-0.1,2.1-0.6,4.3-1.6,6.2c-0.5,0.9-1.2,1.9-1.8,2.6c-0.6,0.8-1.3,1.6-2,2.3
			c-1.4,1.5-2.8,2.9-4.3,4.2c-3,2.7-6.5,4.8-10.2,6.6c-3.7,1.7-7.6,2.8-11.6,3.4c-4,0.6-8.1,0.7-12.1,0.5c-8.1-0.5-16-2.4-23.7-4.9
			c-1.9-0.6-3.8-1.4-5.7-2c-1.9-0.8-3.7-1.5-5.6-2.3c-3.7-1.6-7.3-3.4-10.9-5.3c-1.8-0.9-3.6-1.9-5.3-2.9c-1.7-1-3.5-2-5.2-3
			c-1.7-1.1-3.4-2-5.2-3.2c-1.7-1.1-3.4-2.4-5-3.7c-6.4-5.4-11.5-12.7-13.7-20.9c-1.2-4.1-1.7-8.3-1.9-12.4c-0.1-4.2,0.3-8.3,1-12.4
			c1.4-8.1,4-15.9,7.3-23.3c3.2-7.4,7.1-14.5,11.3-21.3c8.5-13.6,18.4-26.3,29.5-37.8l0.4,0.3c-5,6.2-9.6,12.6-14.1,19.2
			c-4.4,6.6-8.7,13.3-12.5,20.2c-3.9,6.9-7.3,14-10.3,21.2c-1.5,3.6-2.8,7.3-3.8,11c-1.1,3.7-2,7.5-2.6,11.3
			c-1.2,7.6-1.2,15.3,0.8,22.5c1,3.6,2.5,7,4.5,10.1c2,3.1,4.5,6,7.3,8.5c1.4,1.2,2.9,2.4,4.5,3.5c1.5,1.1,3.3,2.1,4.9,3.2
			c1.7,1.1,3.4,2.1,5,3.1c1.7,1,3.4,2,5.1,3c6.9,3.8,13.9,7.4,21.2,10.3c3.6,1.5,7.4,2.7,11.1,3.8c3.8,1,7.6,1.8,11.5,2.2
			c7.8,0.9,15.8,0.1,22.9-3.1c1.8-0.8,3.5-1.7,5.1-2.8c0.8-0.5,1.6-1.1,2.4-1.7c0.7-0.6,1.5-1.2,2.2-1.9c1.5-1.3,2.8-2.7,4.1-4.2
			c0.6-0.8,1.2-1.5,1.8-2.3c0.6-0.8,1.1-1.5,1.5-2.4c1.5-3.3,1.2-7.3,0.1-10.8c-1.2-3.6-3.1-6.9-5.4-10c-4.7-6.1-10.6-11.2-17-15.5
			c-3.2-2.2-6.6-4.2-10-6c-3.5-1.8-7-3.4-10.6-4.9c-14.6-5.8-30.2-8.9-46-10.5L288.4,587.6z"/>
	</g>
	<path class="st1" d="M303.7,512.3c0,0-0.7,0.9-1,1.8c-3.5,9.8-23.2,66.8-20.6,68.7c0.6,0.4,2.2,1.3,6.1,1.6
		c2.1,0.1,8.6-0.3,8.6-0.3c3.1-11.7,10.8-36.1,10.8-36.1l8.6-28.4L303.7,512.3z"/>
	<path d="M371.4,653.2c-4.6,1-18.1-0.4-23.8-4c-5.7-3.6,15.5,11.8,20.3,8.5C372.6,654.4,371.4,653.2,371.4,653.2z"/>
	<path d="M379.8,639c-4.2,2.1-17.6,4.2-24.1,2.2c-6.5-2,18,7.5,21.8,3.1C381.4,639.8,379.8,639,379.8,639z"/>
	<g>
		<path class="st17" d="M386.9,295.1c3.5,2.3,6.8,2.9,10.8,3.7c2,0.4,1.9,0.2,2.3,2.3c0.3,1.3,0.3,2.7,0.4,4
			c0.3,2.2,0.6,4.4,0.9,6.7c0.7,4.5,1.6,8.9,2.6,13.3c0.3,1,2.3,6.2,1.5,7c-0.5,0.4-5.7-1.7-6.2-1.9c-8.9-3.1-17.1-7.8-24.4-13.7
			c-7.1-5.9-12.5-12.9-17.8-20.3c1.6-0.7,2.9-2.2,3.3-4c5.7,3.7,12.4,4.4,19.1,3.9C381.9,295.8,384.4,295.5,386.9,295.1
			C386.8,295,386.9,295,386.9,295.1z"/>
		<path class="st17" d="M361.7,286.9c0.7-0.2,1.5-0.3,2.3-0.4c0.2,0,0.3-0.4,0-0.4c-1.1-0.1-2.2,0.1-3.2,0.6
			c-0.2,0.1-0.7,0.3-1.1,0.6c-0.2-0.3-0.3-0.5-0.5-0.8c3-5.5,2.9-12,4.5-18c1.8-6.8,6.1-12.7,12.3-16c7.4-4,17.9-3.6,19.2,6.5
			c0.3,2.4,0.2,4.9,0.4,7.3c-0.1,0.2-0.2,0.5,0.1,0.6c0.2,1.7,0.6,3.4,1.6,5.1c0.3,0.5,1,0,0.7-0.5c-0.7-1.3-1.1-2.6-1.3-4
			c4.1,2.7,6.5,7.4,6,12.4c-0.6,5.9-5.4,10.3-10.6,12.4c-9.7,4-22.3,4.2-31.6-0.8c0.1-0.4,0.1-0.8,0.1-1.2c0-0.3-0.1-0.6-0.1-0.9
			c2.2-0.1,3.9,0.7,5.6,2.1c0.2,0.2,0.5-0.1,0.3-0.4c-1.5-1.7-3.9-2.4-6.1-2.1c-0.1-0.4-0.3-0.8-0.4-1.2c0.2-0.1,0.4-0.3,0.5-0.4
			C360.9,287.2,361.3,287.1,361.7,286.9z"/>
		<path class="st17" d="M350.9,288.1c0.3-0.5,0.7-1,1.2-1.2c0.6-0.3,1.1-0.3,1.7-0.2c0.1,0.1,0.2,0.1,0.3,0.1c1.1,0.5,1.9,1.8,1.8,3
			c0,0.3,0.4,0.4,0.5,0.1c0.3-1.2-0.4-2.7-1.3-3.6c3.1-1.1,5.2,2.3,4.7,5.2c-0.4,2.2-2.2,4-4.5,4.1c-2.6,0.2-4.7-2.2-5-4.6
			c0-0.2,0-0.4,0-0.6c0.1-0.1,0.1-0.2,0-0.3c0-0.5,0.2-1.1,0.4-1.6C350.9,288.5,351,288.3,350.9,288.1z"/>
		<path class="st17" d="M354.8,296.6c-0.1,8.9-2.2,17.5-7.1,24.9c-4.7,7.3-11.7,12.8-18.8,17.5c-0.8,0.5-3.8,3.1-4.6,2.9
			c-1.3-0.3-1.9-4-2.4-5.2c-1.2-3.5-2.7-6.9-4.2-10.2c-0.8-1.7-1.7-3.5-2.6-5.2c-0.5-1-3.4-4.7-3.2-5.6c0.2-1.2,2.2-1.5,3.3-2.1
			c1.3-0.8,2.4-1.8,3.4-2.9c0,0,0-0.1,0.1-0.1c12.2,1.1,23.3-9.8,31.9-17c0.8,1.3,2,2.4,3.5,2.7
			C354.1,296.5,354.4,296.5,354.8,296.6z"/>
		<path class="st17" d="M319.8,309.8c-15.9,0-13.6-17.4-11.5-28.6c0.5,2.1,1,4.1,1,6.1c0,0.5,0.9,0.5,0.9,0
			c-0.1-5.4-2.9-10.4-2.7-15.8c0.2-5,3.4-8.4,8.5-8c3,0.2,6.1,1,9,1.8c6.1,1.6,12.3,3.4,16.9,8c3.9,3.9,6.4,8.8,9.2,13.5
			c-0.3,0.3-0.6,0.6-0.8,0.9c-1.3-0.9-2.8-1.3-4.4-1.1c-0.2,0-0.2,0.4,0,0.4c1.5,0,2.9,0.5,4.1,1.3c-0.3,0.6-0.4,1.2-0.5,1.8
			c-3-0.3-6.3,0.8-8.7,2.6c-0.2,0.1,0,0.4,0.2,0.3c2.8-1.6,5.4-2,8.5-2.2c0,0.8,0.2,1.6,0.5,2.3
			C341.2,299.7,331.7,309.8,319.8,309.8z"/>
		<path class="st18" d="M407,332.6c0.1,0.3-0.2,0.7-0.5,0.6c-19.9-4.8-40.3-18.2-49.8-36.8c-0.4,0.1-0.9,0.2-1.3,0.3
			c0.5,9.8-2.6,19.6-8.4,27.5c-6.1,8.2-14.7,14-23.3,19.3c-0.2,0.1-0.6,0-0.7-0.2c-3-9.8-7.2-19.2-12.6-28c-0.1-0.2,0-0.5,0.2-0.6
			c2.7-0.7,5-2,6.9-4c-0.8-0.1-1.6-0.3-2.4-0.5c-12.7-3.5-9.6-20.5-7.2-30.2c-1.1-4.2-2.2-8.4-0.5-12.4c2.3-5.4,7.2-5.2,12.2-4.3
			c6.8,1.3,14.5,2.9,20.2,7.1c5.3,4,8.9,10.1,11.7,16.1c0.8-0.6,1.8-0.9,2.7-0.5c1.7-1.4,3.4-0.9,4.6,0.3c2.9-7.8,2.4-16.7,6.4-24.1
			c2.9-5.4,7.8-9.7,13.5-11.8c5.3-2,12.4-1.8,15.7,3.5c2.4,3.8,1.6,8.3,2.1,12.6c9.1,5.4,9.1,17.6,0.9,23.9
			c-2.8,2.2-6.1,3.5-9.5,4.4c3.7,2.3,7.8,3.4,12.2,3.2c0.2,0,0.4,0.2,0.4,0.4C401.6,309.9,403.7,321.4,407,332.6z M405.5,332
			c0.8-0.8-1.2-5.9-1.5-7c-1.1-4.4-1.9-8.8-2.6-13.3c-0.4-2.2-0.7-4.4-0.9-6.7c-0.2-1.3-0.2-2.8-0.4-4c-0.4-2-0.3-1.9-2.3-2.3
			c-4-0.8-7.3-1.4-10.8-3.7c0,0-0.1-0.1-0.1-0.1c-2.4,0.5-4.9,0.8-7.3,1c-6.7,0.5-13.4-0.2-19.1-3.9c-0.4,1.8-1.7,3.3-3.3,4
			c5.3,7.5,10.6,14.5,17.8,20.3c7.2,5.9,15.5,10.6,24.4,13.7C399.8,330.3,405,332.4,405.5,332z M392.1,292.4
			c5.2-2.2,10.1-6.5,10.6-12.4c0.5-5-1.9-9.7-6-12.4c0.2,1.4,0.6,2.7,1.3,4c0.3,0.5-0.5,1-0.7,0.5c-0.9-1.6-1.4-3.3-1.6-5.1
			c-0.2-0.2-0.2-0.5-0.1-0.6c-0.2-2.4-0.1-4.8-0.4-7.3c-1.3-10.1-11.9-10.5-19.2-6.5c-6.2,3.4-10.5,9.2-12.3,16
			c-1.6,6-1.5,12.5-4.5,18c0.2,0.2,0.4,0.5,0.5,0.8c0.4-0.3,0.9-0.5,1.1-0.6c1-0.5,2.1-0.7,3.2-0.6c0.2,0,0.2,0.4,0,0.4
			c-0.8,0.1-1.5,0.1-2.3,0.4c-0.4,0.1-0.8,0.3-1.2,0.5c-0.1,0.1-0.3,0.2-0.5,0.4c0.2,0.4,0.3,0.8,0.4,1.2c2.2-0.3,4.6,0.4,6.1,2.1
			c0.2,0.2-0.1,0.6-0.3,0.4c-1.7-1.4-3.5-2.2-5.6-2.1c0.1,0.3,0.1,0.6,0.1,0.9c0,0.4,0,0.8-0.1,1.2
			C369.8,296.6,382.5,296.4,392.1,292.4z M355.2,295.7c2.3-0.1,4.1-1.9,4.5-4.1c0.5-2.9-1.6-6.3-4.7-5.2c1,0.9,1.6,2.4,1.3,3.6
			c-0.1,0.3-0.5,0.2-0.5-0.1c0.1-1.2-0.7-2.6-1.8-3c-0.1,0-0.2,0-0.3-0.1c-0.5-0.1-1.1-0.1-1.7,0.2c-0.5,0.3-0.9,0.7-1.2,1.2
			c0.1,0.2,0,0.4-0.2,0.4c-0.2,0.5-0.4,1-0.4,1.6c0,0.1,0,0.2,0,0.3c0,0.2,0,0.4,0,0.6C350.5,293.5,352.6,295.9,355.2,295.7z
			 M347.7,321.5c4.9-7.5,7-16.1,7.1-24.9c-0.3,0-0.7-0.1-1-0.1c-1.5-0.4-2.7-1.4-3.5-2.7c-8.6,7.1-19.7,18.1-31.9,17
			c0,0,0,0.1-0.1,0.1c-1,1.1-2.1,2.1-3.4,2.9c-1.1,0.6-3,0.9-3.3,2.1c-0.2,0.9,2.7,4.6,3.2,5.6c0.9,1.7,1.8,3.4,2.6,5.2
			c1.6,3.3,3,6.7,4.2,10.2c0.4,1.2,1.1,5,2.4,5.2c0.8,0.2,3.8-2.4,4.6-2.9C336,334.3,342.9,328.8,347.7,321.5z M350.3,287.6
			c0.2-0.3,0.5-0.7,0.8-0.9c-2.8-4.7-5.3-9.6-9.2-13.5c-4.6-4.6-10.8-6.4-16.9-8c-2.9-0.7-6-1.5-9-1.8c-5.1-0.4-8.3,3-8.5,8
			c-0.2,5.4,2.6,10.4,2.7,15.8c0,0.5-0.8,0.6-0.9,0c0-2-0.5-4-1-6.1c-2,11.2-4.3,28.5,11.5,28.6c11.9,0,21.3-10,30.1-16.8
			c-0.3-0.7-0.5-1.5-0.5-2.3c-3.1,0.2-5.7,0.6-8.5,2.2c-0.2,0.1-0.4-0.2-0.2-0.3c2.4-1.7,5.7-2.9,8.7-2.6c0.1-0.6,0.2-1.2,0.5-1.8
			c-1.2-0.8-2.6-1.3-4.1-1.3c-0.2,0-0.3-0.4,0-0.4C347.4,286.4,349,286.8,350.3,287.6z"/>
	</g>
	<path class="st19" d="M310.3,265.7c0,0-5.3,0.5-0.2,20.5C310.1,286.2,324,257.9,310.3,265.7z"/>
	<path class="st20" d="M349.3,295.7c0,0,1.8,16.5-5.8,29.9c-7.6,13.4,14.2-13.3,11.3-29.1c0,0-4.6-1.2-4.5-2.9
		C350.4,292,349.3,295.7,349.3,295.7z"/>
	<path class="st20" d="M359.4,294.2c0,0,12.1,13.5,39.2,4.7c0,0-9-2-11.8-4c0,0-11.8,2.6-26.6-2.2L359.4,294.2z"/>
	<path class="st9" d="M300.4,516.4c0,0-47.1,61.3-37.6,90.8C262.8,607.2,258,591.8,300.4,516.4z"/>
	<path d="M377.3,648c3.5-4.7,2.2-12.6-0.8-20.8c-5.7,12.2-8,29.7-52.6,35.7c2.8,0,12.9,2.8,25.3,2.1c1-0.2,2.1-0.4,3.1-0.5
		C363.9,661.9,371.8,655.3,377.3,648z"/>
	<path d="M296.4,588.2l10-42c0,0-6.6,40.4,13.7,45L296.4,588.2z"/>
</g>
</svg>
