<?xml version="1.0" encoding="utf-8"?>
<!-- Generator: Adobe Illustrator 21.0.0, SVG Export Plug-In . SVG Version: 6.00 Build 0)  -->
<svg version="1.1" id="_x33_" xmlns="http://www.w3.org/2000/svg" xmlns:xlink="http://www.w3.org/1999/xlink" x="0px" y="0px"
	 viewBox="0 0 808.7 924.1" style="enable-background:new 0 0 808.7 924.1;" xml:space="preserve">
<style type="text/css">
	.st0{fill:url(#bg_1_);}
	.st1{fill:#2D353A;}
	.st2{fill:#FFFFFF;}
	.st3{opacity:0.2;}
	.st4{opacity:0.45;}
	.st5{opacity:0.25;}
	.st6{opacity:0.4;}
	.st7{fill:#FDFDFD;}
	.st8{opacity:0.2;fill:#2D353A;}
	.st9{fill:#D8D8D8;}
	.st10{fill:#39B6FF;}
	.st11{fill:#CEA67A;}
	.st12{fill:none;}
	.st13{fill:#BD9870;}
	.st14{fill:#FFE694;}
	.st15{fill:#FFA3B7;}
	.st16{fill:#9292FF;}
	.st17{fill:#F599CB;}
	.st18{fill:#050505;}
	.st19{opacity:0.4;fill:#FFFFFF;}
	.st20{opacity:0.15;fill:#050505;}
	.st21{fill:#FFFFFF;stroke:#000000;stroke-width:2;stroke-miterlimit:10;}
	.st22{fill:#F2F2F2;}
	.st23{fill:#191919;}
	.st24{fill:#E6E6E6;}
	.st25{fill:#E2EEF2;}
	.st26{fill:#282728;fill-opacity:0.1;}
</style>
<g>
	<g>
		<g>
			<path class="st1" d="M285.9,643.9c0,0-16,108.6,37.9,124s45.6-51.4,33-76.6C350.1,677.7,308.1,616.3,285.9,643.9z"/>
			<path d="M285.9,643.9c-0.4,3.6-0.6,7.2-0.8,10.8c-0.2,3.6-0.3,7.2-0.4,10.8c-0.1,7.2-0.1,14.5,0.4,21.6
				c0.4,7.2,1.1,14.4,2.2,21.4c1.2,7.1,2.7,14.1,5,20.8c2.3,6.7,5.2,13.2,9.1,19c3.9,5.7,9,10.7,15,13.9c3,1.6,6.2,2.8,9.6,3.7
				c3.4,0.9,6.8,1.5,10.2,1.7c3.4,0.2,6.8-0.1,9.9-1c3.2-0.9,6-2.5,8.4-4.7c2.4-2.2,4.2-5,5.6-8.1c1.4-3.1,2.3-6.4,2.8-9.8
				c1.1-6.8,1-14,0.3-21c-0.8-7-2.2-14-4.3-20.8c-1.1-3.4-2.3-6.7-3.8-9.8c-1.5-3.1-3.4-6.2-5.3-9.2c-3.8-6.1-8-11.9-12.5-17.5
				c-4.5-5.6-9.2-11-14.5-15.8c-5.2-4.8-11.1-9.3-17.8-11.5c-3.3-1.1-7-1.4-10.4-0.4C291.3,638.9,288.3,641.2,285.9,643.9z
				 M285.9,643.9c2.2-2.9,5-5.4,8.6-6.6c3.5-1.3,7.4-1.1,11-0.2c3.6,0.9,7,2.6,10.1,4.5c3.1,1.9,6.1,4.1,8.9,6.5
				c5.6,4.7,10.7,10.1,15.4,15.6c4.7,5.6,9.1,11.4,13.2,17.5c2,3.1,4,6.1,5.8,9.5c1.7,3.4,3,6.8,4.2,10.3c2.3,7,3.9,14.3,4.8,21.6
				c0.9,7.3,1,14.9-0.2,22.3c-0.6,3.7-1.6,7.5-3.1,11c-1.5,3.6-3.7,7-6.7,9.7c-2.9,2.7-6.6,4.8-10.4,5.8c-3.8,1.1-7.8,1.3-11.6,1.1
				c-3.8-0.2-7.5-0.9-11.2-1.9c-3.6-1-7.3-2.3-10.6-4.2c-6.7-3.7-12.2-9.3-16.4-15.6c-4.2-6.3-7.1-13.2-9.2-20.2
				c-4.3-14.2-5.7-28.8-5.9-43.4c-0.1-7.3,0.2-14.6,0.7-21.8C283.9,658.2,284.7,651,285.9,643.9z"/>
		</g>
		<g>
			<path class="st1" d="M580.7,645.1c0,0,12,109.1-42.5,122.5c-54.5,13.4-43.6-53-30.2-77.8C515.3,676.6,559.5,616.8,580.7,645.1z"
				/>
			<path d="M580.7,645.1c1,7.2,1.5,14.4,1.8,21.7c0.3,7.3,0.2,14.5-0.1,21.8c-0.8,14.5-2.7,29.1-7.5,43.1c-2.4,7-5.6,13.8-10,19.9
				c-4.4,6.1-10.1,11.5-16.9,14.9c-3.4,1.8-7.1,3-10.8,3.8c-3.7,0.8-7.4,1.4-11.2,1.5c-3.8,0.1-7.7-0.3-11.5-1.5
				c-3.8-1.2-7.4-3.3-10.2-6.2c-2.8-2.9-4.9-6.3-6.3-10c-1.4-3.6-2.3-7.4-2.7-11.1c-0.9-7.5-0.5-15,0.7-22.3
				c1.2-7.3,3.1-14.5,5.6-21.4c1.3-3.5,2.8-6.9,4.6-10.2c1.9-3.3,4-6.3,6.1-9.3c4.3-5.9,8.9-11.6,13.8-17c5-5.4,10.2-10.5,16-15
				c2.9-2.3,5.9-4.3,9.1-6.2c3.2-1.8,6.6-3.3,10.3-4.1c3.6-0.8,7.5-0.8,11,0.6C575.8,639.6,578.6,642.2,580.7,645.1z M580.7,645.1
				c-2.3-2.8-5.2-5.2-8.6-6.2c-3.4-1.1-7-0.9-10.4,0c-6.8,2-12.8,6.2-18.2,10.8c-5.4,4.6-10.4,9.8-15.1,15.3
				c-4.7,5.5-9.1,11.2-13.1,17.1c-2,3-4,6-5.6,9c-1.6,3.1-3,6.4-4.2,9.7c-2.4,6.7-4.1,13.6-5.1,20.6c-1,7-1.4,14.1-0.5,21
				c0.5,3.4,1.2,6.8,2.5,9.9c1.2,3.1,3,6,5.3,8.3c2.3,2.3,5.1,4,8.2,5c3.1,1,6.5,1.4,9.9,1.3c3.4,0,6.9-0.6,10.3-1.3
				c3.4-0.7,6.6-1.8,9.7-3.3c6.2-3,11.4-7.7,15.5-13.3c4.2-5.6,7.3-12,9.8-18.6c2.5-6.7,4.3-13.6,5.7-20.6c1.4-7,2.4-14.2,3-21.4
				c0.7-7.2,1-14.4,1.2-21.6c0.1-3.6,0.1-7.2,0-10.8C581,652.4,580.9,648.8,580.7,645.1z"/>
		</g>
		<path class="st9" d="M286.4,652.4c0,0-2.1,43.5,5,69.4c5.6,20.5,15.3,30.6,22.9,38.4c-1.1-1.6-5.1-8.3-8.4-16.4
			c-17.1-42.6-14.1-79.8-14.6-87.5L286.4,652.4z"/>
		<path d="M342.2,769.5c-3.3-2.8-10-13.5-10.6-19.7c-0.6-6.2,0.2,18.1,5.3,19.7C342,771.1,342.2,769.5,342.2,769.5z"/>
		<path d="M329.6,767.6c-3.3-2.8-10-13.5-10.6-19.7c-0.6-6.2,0.2,18.1,5.3,19.7C329.4,769.2,329.6,767.6,329.6,767.6z"/>
		<path d="M357.4,756.5c8.7-27.2,3.9-42.1-1.4-60.4c-0.7-1-11.5-6.1-11.1-4.6c0,0,21.6,45.8,0.2,75.5
			C348.4,765.9,355.3,763.1,357.4,756.5z"/>
		<path d="M542.4,763.4c12.4-6.8,26-17.9,31.1-44.8c6.8-36,6-44.2,6-67.9c0.3,1.8-22,18.9-22,18.9s12.9,41.8-13.8,91
			C543.2,761.6,542.8,762.5,542.4,763.4z"/>
		<path d="M527.7,767c3.9-1.9,12.8-10.8,14.9-16.7c2-5.9-4.4,17.5-9.7,17.9C527.5,768.6,527.7,767,527.7,767z"/>
		<path class="st9" d="M504.6,741.4c-2-10.2,2-39.6,3.2-42c-6.4,9.8-17.4,48,2.4,63.8c5.2,4.1,10.8,4.7,15.3,4.4
			C510.9,763.2,506.9,752.6,504.6,741.4z"/>
		<path d="M515,765.9c3.9-1.9,12.8-10.8,14.9-16.7c2-5.9-4.4,17.5-9.7,17.9S515,765.9,515,765.9z"/>
		<g>
			<path class="st1" d="M578.9,551.4c0,0-34.6-92.8-49.2-99.6c-14.5-6.8-211.1-7.8-211.1-7.8s-27.3,68.6-33.5,107.9
				c-15.1,50.4,1.6,102.8,1.6,102.8c167.3,126.7,292.7-4.5,292.7-4.5C597.2,604.7,578.9,551.4,578.9,551.4z"/>
			<path d="M578.7,551.5c-4.8-12.6-9.8-25.1-15.1-37.5c-2.7-6.2-5.4-12.3-8.3-18.4c-2.9-6.1-5.8-12.1-9-18.1
				c-3.1-5.9-6.4-11.8-10.2-17.2c-1-1.3-2-2.7-3-3.9c-1.1-1.2-2.2-2.3-3.4-3.1c-1.1-0.6-2.7-0.9-4.3-1.2c-1.6-0.3-3.3-0.5-4.9-0.6
				c-6.6-0.7-13.4-1-20.1-1.4c-6.7-0.3-13.4-0.6-20.2-0.8c-26.9-1-53.8-1.6-80.7-2.3c-26.9-0.8-53.9-1.4-80.8-1.9l1-0.7
				c-3.6,8.7-6.9,17.5-10.2,26.4c-3.3,8.8-6.3,17.8-9.3,26.7c-2.9,9-5.7,18-8.1,27.1c-2.4,9.1-4.6,18.3-6.1,27.5l0,0l0,0.1l-1.6,6.3
				l-0.8,3.1l-0.6,3.2l-1.1,6.4l-0.8,6.4c-0.1,1.1-0.3,2.1-0.3,3.2l-0.2,3.2c-0.1,2.2-0.3,4.3-0.3,6.4l-0.1,6.5
				c0,2.2,0.1,4.3,0.2,6.5c0.3,8.6,1.2,17.2,2.6,25.7l1.1,6.4c0.4,2.1,0.8,4.2,1.3,6.3c0.9,4.2,2,8.4,3.2,12.4l-0.7-1
				c10.7,8,21.8,15.3,33.3,21.9c11.5,6.6,23.4,12.5,35.8,17.3c24.7,9.7,51,15,77.4,14.9c6.6,0,13.2-0.4,19.8-1.1
				c6.6-0.7,13.1-1.6,19.6-3c12.9-2.6,25.6-6.6,37.8-11.6c12.2-5,24.1-11.1,35.3-18.2c5.6-3.5,11.1-7.3,16.4-11.3
				c5.3-4,10.5-8.2,15.2-12.8l-0.3,0.4c3.1-7.7,5.3-15.7,6.6-23.9c0.7-4.1,1.1-8.2,1.4-12.4c0.3-4.2,0.4-8.3,0.3-12.5
				c-0.1-8.4-0.9-16.7-2.2-25C583,567.7,581.2,559.5,578.7,551.5z M579.2,551.3c2.6,8,4.4,16.2,5.9,24.5c1.4,8.3,2.4,16.6,2.7,25
				c0.1,2.1,0.1,4.2,0.1,6.3c0,2.1,0,4.2-0.1,6.3c-0.1,4.2-0.5,8.4-1.1,12.6c-1.1,8.4-3.1,16.6-6,24.6l-0.1,0.2l-0.2,0.2
				c-4.7,4.9-9.8,9.3-15,13.6c-5.2,4.2-10.7,8.2-16.3,12c-5.6,3.7-11.4,7.2-17.3,10.5c-5.9,3.2-12,6.2-18.2,8.8
				c-24.9,10.6-51.9,16.6-79,16.6c-27.2,0.1-54.1-5.7-79.2-15.7c-12.6-5-24.6-11.1-36.3-17.9c-11.6-6.8-22.8-14.5-33.4-22.6
				l-0.5-0.4l-0.2-0.6c-2.4-8.5-4.1-17.1-5.3-25.8c-1.2-8.7-1.9-17.4-2-26.1c0-2.2-0.1-4.4,0-6.6l0.2-6.6c0.1-2.2,0.3-4.4,0.5-6.5
				l0.3-3.3c0.1-1.1,0.3-2.2,0.4-3.3l0.9-6.5l1.3-6.4l0.6-3.2l0.9-3.2l1.7-6.3l0,0.1c1.6-9.4,3.9-18.6,6.3-27.7
				c2.5-9.1,5.4-18.1,8.2-27.1c2.9-9,6-17.9,9.1-26.8c3.1-8.9,6.4-17.8,9.7-26.6l0.3-0.7l0.8,0c27-0.2,53.9-0.2,80.9,0
				c27,0.3,53.9,0.9,80.8,2.2c13.5,0.7,26.9,1.5,40.4,3.3c1.7,0.2,3.4,0.5,5.1,0.8c0.8,0.2,1.7,0.4,2.6,0.6c0.8,0.2,1.8,0.6,2.7,1.1
				c1.7,1.1,2.8,2.4,4,3.8c1.1,1.4,2.1,2.8,3.1,4.2c3.8,5.7,6.9,11.7,9.9,17.8c5.9,12.1,11.1,24.6,16.3,37
				C569.4,526.2,574.4,538.7,579.2,551.3z"/>
		</g>
		<path class="st7" d="M288,555.1c0,0,170.3-60.8,289.9-0.5c0,0,18,53.3,0.5,98.8c0,0-127.1,126.7-292.2-0.1
			C286.1,653.3,273.1,605.5,288,555.1z"/>
		<path class="st8" d="M510,594c31,45-17.7,90.5-66,90.5S345,658,377,594H510z"/>
		<g>
			<g>
				
					<ellipse transform="matrix(0.9637 -0.267 0.267 0.9637 -143.7589 137.8547)" class="st22" cx="435.1" cy="597.6" rx="76" ry="76"/>
				<path d="M508.2,577.4c-2.7-9.6-7.2-18.6-13.5-26.3c-6.2-7.7-14-14.1-22.6-18.8c-8.6-4.7-18.1-7.6-27.8-8.8
					c-9.7-1.1-19.6-0.4-29.1,2.1c-9.5,2.5-18.5,6.8-26.3,12.8c-3.9,3-7.6,6.3-10.8,10c-3.3,3.7-6.2,7.7-8.6,12
					c-4.9,8.6-8,18.2-9.2,28c-1.2,9.8-0.2,19.8,2.5,29.3c2.8,9.5,7.4,18.3,13.5,26c6.1,7.7,13.7,14.1,22.2,18.9
					c8.5,4.8,18,7.8,27.6,9c9.7,1.1,19.6,0.4,28.9-2.2c9.4-2.6,18.3-7,26-12.9c7.7-5.9,14.4-13.4,19.4-21.8c5-8.4,8.4-17.9,9.7-27.7
					C511.5,597,510.8,586.9,508.2,577.4z M508.4,577.3c2.7,9.6,3.5,19.7,2.5,29.7c-1,9.9-4.1,19.7-8.9,28.6
					c-4.8,8.9-11.4,16.8-19.3,23.1c-7.9,6.3-17.2,11-26.9,13.7c-9.8,2.7-20.1,3.5-30.2,2.2c-10.1-1.3-19.9-4.6-28.7-9.6
					c-8.8-5-16.6-11.8-22.7-19.8c-6.2-8-10.6-17.3-13.2-27c-1.3-4.9-2.1-9.8-2.4-14.8c-0.3-5-0.1-10,0.5-15
					c1.3-9.9,4.5-19.6,9.4-28.3c4.9-8.7,11.4-16.6,19.3-22.9c7.8-6.3,17-11.1,26.7-13.9c9.7-2.8,20-3.6,30.1-2.3
					c10,1.3,19.8,4.7,28.5,9.8c8.7,5.1,16.3,11.9,22.3,19.9C501.3,558.6,505.8,567.7,508.4,577.3z"/>
			</g>
			<g>
				<g>
					<path class="st23" d="M400.5,649c0,0-1.7-25.5-1.8-25.9c0.1,0,0.3,0,0.4,0c0.4,0,0.8,0,1.4-0.1c8-1,27.2-6,27.9-6.6
						c0.2,0.9,18.9,22.4,19.1,22.5c-0.1,0.2-0.2,0.4-0.3,0.5c-4.3,11-13.8,18.6-13.8,18.6C417.8,657.2,401.6,650,400.5,649z
						 M488.8,651c0.1-0.1,0.1-0.3,0.2-0.4c0.1,0,0.1,0,0.2,0.1C489.1,650.8,489,650.9,488.8,651z M490.6,641.8
						c-0.3-0.9-8.8-11.2-9.8-11.4c0.3-0.4,0.6-0.9,0.8-1.3c3-5.6,5.7-11.1,7-17.2c0.8-4,1.6-13,1.5-13.3c0.5,0.1,1.1,0.2,1.5,0.2
						c0,0,12.5-1.7,13-2.2c0.1,0.5,0.2,0.9,0.3,1.4c0.1,0.5,0.3,1.1,0.3,1.5c0.5,3.4,1,6.7,1.4,10l0.5,3.8c0.1,0.5-1.1,4.7-1.4,5.2
						c-0.3,0.6-0.6,1.2-0.9,1.7c-0.6,1.2-1.2,2.3-1.8,3.4C500,629.6,496,635.3,490.6,641.8C490.6,641.8,490.6,641.8,490.6,641.8z
						 M360.7,585.7c1.1-6.8,3.1-13.4,5.9-19.5c0.2,0.2,11.3-7.4,12.2-8.6c0,0.1,8.7,10.7,8.7,10.8c-0.2-0.3-8,14.5-8.7,30.1
						c-0.2-0.1-9.4,1.1-13.2,2.9C365.5,600.7,360.7,585.7,360.7,585.7z M421,560c0.1-0.1,0.3-0.2,0.4-0.4
						c4.2-5.6,14.3-20.5,15.5-21.2c7.4,0.7,15.8,1.9,30.3,9.5c-0.2,0.5,1.9,26.5,2,26.7c-0.1,0-29.6,7.1-29.7,7.1
						C439.2,581.1,421.1,560.1,421,560z M481.1,541.5c0.1-0.2,1-2.6,1-3.3c3.6,2.8,6.9,5.9,10,9.4c1.6,1.8,3,3.6,4.4,5.5
						C495.6,552.3,481.8,541.7,481.1,541.5z"/>
					<g>
						<path d="M400.4,649c-0.4-2.3-0.7-4.3-1-6.5c-0.3-2.2-0.5-4.3-0.8-6.5c-0.2-2.2-0.5-4.3-0.7-6.5l-0.3-3.2l-0.3-3l-0.2-1.9
							l1.6,0.2c0.2,0,0.5,0,0.7,0c0.3,0,0.5,0,0.8-0.1l1.8-0.3c1.2-0.2,2.5-0.4,3.7-0.6l7.5-1.3c2.5-0.5,5-0.9,7.5-1.4
							c1.2-0.3,2.5-0.6,3.7-0.9c0.6-0.2,1.2-0.3,1.8-0.5c0.3-0.1,0.6-0.2,0.9-0.3l0.4-0.1c0.2-0.1,0.2-0.1,0.3-0.1l0.5-0.1l0.3,0.3
							c0.1,0.1,0.1,0.2,0.2,0.2l0.3,0.4c0.2,0.2,0.4,0.5,0.6,0.7l1.2,1.4c0.8,0.9,1.6,1.9,2.4,2.8c1.6,1.8,3.3,3.7,5,5.4l5.1,5.4
							l2.5,2.7l1.2,1.4l0.6,0.7l0.3,0.3l0.1,0.1l0,0c0,0,0,0,0,0l0.4,1.9c0,0.1,0,0.1-0.1,0.1c0,0-0.1,0.1-0.1,0.2l-0.3,0.7
							c-0.2,0.5-0.4,1-0.6,1.4c-0.4,0.9-0.9,1.9-1.4,2.8c-1,1.8-2.1,3.6-3.3,5.3c-1.2,1.7-2.5,3.3-3.9,4.8c-0.7,0.8-1.4,1.5-2.2,2.2
							c-0.4,0.4-0.8,0.7-1.1,1l-0.6,0.5l-0.3,0.3l-0.2,0.1c0,0,0,0,0,0c0,0,0,0,0-0.1l-1.3,0.5c-2.9-0.2-5.8-0.6-8.6-1.2
							c-2.8-0.6-5.6-1.4-8.4-2.2c-2.7-0.9-5.4-1.9-8.1-3.1c-1.3-0.6-2.6-1.2-3.9-1.9c-0.6-0.3-1.3-0.7-1.9-1
							c-0.3-0.2-0.6-0.4-0.9-0.6l-0.5-0.3C400.7,649.3,400.5,649.2,400.4,649z M400.7,648.9l0.4,0.2l0.5,0.2c0.3,0.1,0.7,0.3,1,0.4
							c0.7,0.3,1.3,0.5,2,0.7c1.3,0.5,2.7,0.9,4,1.3c2.7,0.8,5.4,1.6,8.2,2.2c2.7,0.7,5.5,1.2,8.3,1.7c2.8,0.4,5.5,0.7,8.3,0.9
							l-1.3,0.5l1.3-1.1l1.1-1c0.7-0.7,1.4-1.4,2.1-2.1c1.3-1.4,2.6-2.9,3.8-4.4c1.2-1.5,2.3-3.1,3.3-4.8c0.5-0.8,0.9-1.7,1.4-2.5
							c0.2-0.4,0.4-0.9,0.6-1.3l0.3-0.7c0-0.1,0.1-0.3,0.2-0.5c0.1-0.2,0.2-0.3,0.3-0.5l0.4,1.9c-0.1-0.1-0.2-0.2-0.4-0.3l-0.2-0.2
							l-0.1-0.1l-0.3-0.4l-0.6-0.7L444,637l-2.3-2.9l-4.6-5.8c-1.5-1.9-3-3.9-4.6-5.8l-2.3-2.9l-1.2-1.4l-0.6-0.7l-0.3-0.4
							c-0.1-0.2-0.2-0.4-0.3-0.5l0.8,0.2c-0.2,0.1-0.4,0.3-0.6,0.3l-0.5,0.2c-0.3,0.1-0.6,0.2-0.9,0.3l-1.8,0.6l-3.7,1.1
							c-2.4,0.7-4.9,1.5-7.3,2.2c-2.4,0.7-4.9,1.4-7.4,1.9c-1.2,0.3-2.5,0.5-3.8,0.7c-0.6,0.1-1.3,0.2-1.9,0.3c-0.3,0-0.7,0-1.1,0.1
							c-0.4,0-0.7,0-1.2,0l1.5-1.7c0,0.2,0.1,0.5,0.1,0.6l0,0.4l0.1,0.8l0.1,1.6l0.2,3.3c0.1,2.2,0.2,4.3,0.2,6.5
							c0.1,2.2,0.1,4.3,0.1,6.5C400.8,644.6,400.8,646.8,400.7,648.9z"/>
						<path d="M488.8,651.1c-0.3,0.3-0.5,0.4-0.7,0.4c-0.2,0-0.4-0.2-0.4-0.4c-0.1-0.4,0.2-0.9,0.9-0.8l0.4,0.1l0.2-0.3
							c0.2-0.3,0.3-0.6,0.4-0.7l1.3-3.5l-0.7,5.6c0,0.2-0.1,0.4-0.2,0.6c-0.1,0.2-0.4,0.3-0.7,0.2
							C488.7,652.3,488.4,651.8,488.8,651.1z M488.9,650.9c0.5-0.8,0.3-1.4-0.1-1.6c-0.2-0.1-0.4-0.1-0.5,0.1
							c-0.1,0.1-0.1,0.3-0.1,0.4l0.5,2.1c-0.1-0.2-0.1-0.5,0-0.9l0.6-0.2c0.7,0.3,1-0.1,0.8-0.4c-0.1-0.1-0.3-0.2-0.5-0.2
							C489.5,650.3,489.2,650.5,488.9,650.9z"/>
						<path d="M490.6,642c-0.3-0.3-0.5-0.6-0.7-0.8l-0.6-0.7l-1.3-1.4l-2.6-2.7l-2.6-2.7l-1.3-1.3c-0.2-0.2-0.4-0.4-0.6-0.6
							c-0.1-0.1-0.2-0.2-0.3-0.2c-0.2-0.1,0,0,0.1,0l-0.7-1.9c0.6-1,1.2-2.3,1.8-3.6c0.6-1.2,1.2-2.5,1.8-3.7c1.2-2.5,2.3-5,3.2-7.5
							c0.5-1.3,0.9-2.6,1.2-3.9c0.3-1.3,0.6-2.7,0.8-4.1c0.2-1.4,0.4-2.7,0.6-4.1c0.1-0.7,0.1-1.4,0.2-2.1l0.1-1.9l0-0.6l0.5,0
							l0.9,0.1l0.4,0c0.2,0,0.1,0,0.3,0c0.6-0.1,1.2-0.2,1.8-0.3c1.2-0.2,2.4-0.5,3.6-0.7l3.6-0.8c0.6-0.1,1.2-0.3,1.8-0.4l0.9-0.2
							c0.1,0,0.3-0.1,0.4-0.1c0,0,0.2,0,0.1,0c-0.1,0-0.2,0.1-0.2,0.1l2,0.6l0.4,1.5c0.1,0.5,0.3,1.1,0.4,1.6l0.5,3.1l1,6.2l0.5,3.1
							l0.1,0.8l0.1,0.4c0,0,0,0.4,0,0.6l0,0.3c-0.1,0.6-0.2,1.1-0.4,1.7c-0.3,1.1-0.5,2.1-0.9,3.1l-0.1,0.2c0,0.1-0.1,0.3-0.2,0.3
							l-0.2,0.3l-0.4,0.7l-0.8,1.4c-0.5,0.9-1,1.8-1.5,2.7c-0.5,0.9-1.1,1.8-1.6,2.7c-1.1,1.8-2.3,3.5-3.6,5.2
							c-1.3,1.7-2.6,3.3-4,4.9c-0.7,0.8-1.4,1.6-2.1,2.3l-1.1,1.1l-0.6,0.6l-0.3,0.3l-0.1,0.1l-0.1,0.1l-0.1,0.1
							C490.7,641.9,490.6,642,490.6,642z M490.6,641.7C490.6,641.7,490.6,641.7,490.6,641.7C490.5,641.7,490.5,641.7,490.6,641.7
							l0-0.1l0.1-0.2l0.2-0.3l0.4-0.7l0.9-1.3l1.7-2.6c1.1-1.7,2.3-3.5,3.3-5.3c1.1-1.8,2.1-3.6,3.1-5.4c0.5-0.9,1-1.8,1.4-2.7
							c0.5-0.9,1-1.9,1.4-2.8l0.7-1.4l0.4-0.7l0.2-0.3c0,0,0,0,0,0l0-0.1c0.3-0.9,0.6-1.9,0.8-2.9c0.1-0.5,0.2-1,0.3-1.4l0-0.1
							c0,0,0,0.3,0,0.2l-0.1-0.4l-0.1-0.8l-0.4-3.1l-0.7-6.2l-0.4-3.1l-0.5-3l2,0.6c-0.2,0.1-0.4,0.3-0.6,0.3
							c-0.2,0.1-0.2,0.1-0.3,0.1c-0.2,0-0.4,0.1-0.5,0.1c-0.3,0.1-0.6,0.1-0.9,0.2c-0.6,0.1-1.2,0.2-1.9,0.2l-3.7,0.4l-3.7,0.4
							l-1.8,0.2c-0.1,0-0.5,0.1-0.6,0l-0.5-0.1l-1-0.1l0.6-0.6c0,0.4,0,0.5,0,0.7l0,0.5l-0.1,1c-0.1,0.7-0.1,1.4-0.2,2.1
							c-0.1,1.4-0.3,2.8-0.4,4.2c-0.1,1.4-0.2,2.8-0.4,4.2c-0.2,1.4-0.4,2.8-0.7,4.2c-0.7,2.8-1.6,5.5-2.9,8
							c-0.6,1.3-1.3,2.5-1.9,3.8c-0.7,1.2-1.3,2.4-2.2,3.8l-0.7-1.9c0.4,0.1,0.8,0.4,0.9,0.5c0.1,0.1,0.3,0.3,0.4,0.4
							c0.2,0.2,0.5,0.5,0.7,0.7c0.4,0.5,0.8,1,1.2,1.5c0.8,1,1.6,2,2.3,3c0.8,1,1.5,2.1,2.2,3.1c0.4,0.5,0.7,1.1,1,1.6
							c0.2,0.3,0.3,0.5,0.5,0.8C490.4,641.2,490.7,641.4,490.6,641.7z"/>
						<path d="M360.5,585.8c0-0.4,0-0.9,0-1.4l0.1-1.3c0.1-0.9,0.2-1.7,0.3-2.6c0.3-1.7,0.6-3.4,1-5.1c0.8-3.4,2-6.6,3.4-9.8l2-0.5
							c-0.1-0.1-0.4-0.2-0.6-0.2c-0.1,0-0.2,0-0.3,0c-0.1,0-0.2,0.1-0.2,0l0,0l0,0l0,0l0.2-0.1l0.4-0.2l0.8-0.5l1.5-1
							c1-0.7,2.1-1.3,3.1-2l3.1-2l1.5-1l0.7-0.5c0.2-0.2,0.5-0.4,0.6-0.5l0.8-0.6l0.5,0.8l0.9,1.3c0.3,0.5,0.7,0.9,1,1.4
							c0.7,0.9,1.4,1.9,2.1,2.8c0.7,0.9,1.4,1.8,2.2,2.7l1.1,1.3l0.6,0.7l0.3,0.3l0.1,0.2c0.1,0.1,0,0,0,0l-0.7,0.7
							c0,0.1,0.2,0.2,0.4,0.2c0.2,0,0.3-0.1,0.3-0.1c0,0,0,0,0.1,0c0.1,0,0.1-0.1,0.1,0c0,0,0,0,0,0l0,0.1l-0.1,0.2l-0.2,0.4
							l-0.4,0.9c-0.3,0.6-0.5,1.2-0.8,1.8c-0.5,1.2-0.9,2.4-1.3,3.7c-0.8,2.5-1.5,5-2.2,7.5c-0.6,2.5-1.2,5-1.6,7.6
							c-0.4,2.5-0.7,5.1-0.8,7.6l-2,1.5c0.2,0.1,0.5,0,0.3,0.1l-0.2,0l-0.4,0l-0.8,0.1l-1.6,0.2c-1.1,0.1-2.2,0.3-3.3,0.5
							c-1.1,0.2-2.2,0.4-3.2,0.6c-1.1,0.2-2.1,0.5-3,0.9l-1.5,0.6l-0.3-1.6l-0.1-0.3l-0.1-0.5l-0.2-1l-0.5-2l-1-4
							c-0.3-1.3-0.6-2.7-0.9-4C361.1,588.4,360.8,587,360.5,585.8z M360.8,585.6c0.6,1.3,1.1,2.5,1.7,3.8c0.5,1.3,1,2.5,1.5,3.8
							l1.5,3.8l0.7,1.9l0.3,1l0.2,0.5l0.1,0.3l0.1,0.4l-1.8-1c1.1-0.6,2.3-0.9,3.4-1.3c1.1-0.3,2.2-0.6,3.4-0.9
							c1.1-0.2,2.3-0.5,3.4-0.7l1.7-0.3l0.9-0.1l0.4,0l0.2,0c0,0,0.4,0,0.8,0l-2,1.5c0.1-2.7,0.5-5.4,1-8c0.5-2.6,1.2-5.2,2.1-7.8
							c0.8-2.6,1.8-5,3-7.4c0.6-1.2,1.2-2.4,1.8-3.6c0.3-0.6,0.6-1.2,1-1.8l0.5-0.9l0.3-0.4l0.1-0.2l0.1-0.1l0.1-0.1
							c0,0,0,0,0.1-0.1c0,0,0.1,0,0.1-0.1c0,0,0.1-0.1,0.3-0.1c0.2,0,0.4,0.2,0.4,0.2l1.3,2.4l-2.1-1.6c-0.1-0.1-0.2-0.3-0.3-0.3
							l-0.1-0.2l-0.3-0.3l-0.5-0.7l-1.1-1.4c-0.7-0.9-1.4-1.8-2.2-2.7c-0.7-0.9-1.5-1.8-2.3-2.6c-0.4-0.4-0.8-0.9-1.2-1.3l-0.6-0.6
							l-0.3-0.3l-0.1-0.2c0,0-0.2-0.2-0.2-0.3l1.3,0.1c-0.3,0.4-0.5,0.6-0.8,0.8l-0.7,0.7l-1.4,1.2c-1,0.8-1.9,1.6-2.9,2.4
							c-1,0.7-2,1.5-3.1,2.2l-1.6,1.1c-0.3,0.2-0.5,0.3-0.8,0.5l-0.4,0.3l-0.3,0.1l-0.1,0l-0.1,0.1l-0.1,0.1c0,0-0.1,0-0.2,0.1
							c-0.1,0-0.2,0-0.4,0c-0.3,0-0.5-0.1-0.7-0.2l2-0.5c-1.4,3-2.7,6.1-3.8,9.3c-0.6,1.6-1.1,3.2-1.6,4.8l-0.8,2.4l-0.4,1.2
							C361.1,584.8,360.9,585.2,360.8,585.6z"/>
						<path d="M420.8,560l3.6-5.8c1.2-1.9,2.4-3.8,3.6-5.7c1.2-1.9,2.4-3.7,3.7-5.6c0.6-0.9,1.3-1.9,1.9-2.8c0.3-0.5,0.7-0.9,1-1.4
							c0.2-0.2,0.4-0.5,0.6-0.7l0.3-0.4c0.2-0.2,0.4-0.3,0.6-0.5l0.3-0.2l0.5,0c1.3,0.1,2.7,0.2,4,0.4c1.3,0.2,2.7,0.4,4,0.7
							c2.7,0.6,5.3,1.4,7.8,2.4c5,2,9.8,4.4,14.6,6.8l0.2,0.1l0,0.4l0.1,1.5l0.1,1.7l0.3,3.3c0.2,2.2,0.5,4.4,0.8,6.6l0.8,6.6
							l0.4,3.3l0.2,1.7l0.1,0.8l0,0.4l0,0.1c0,0,0,0,0,0l-1.4,1.7c0,0,0,0.1,0.1,0.1c0,0,0,0,0,0l-0.1,0l-0.5,0.1l-0.9,0.2l-1.8,0.5
							l-3.7,1l-7.4,1.9l-7.4,1.8l-3.7,0.8l-1.9,0.4l-0.9,0.2l-0.5,0.1l-0.1,0c0,0,0,0,0,0c0,0,0,0,0,0l-2.1-0.7l-4.2-5.2l-4.4-5.6
							l-4.3-5.6L423,563l-1.1-1.4l-0.5-0.7C421.2,560.6,421,560.4,420.8,560z M421.1,560c0.2,0.1,0.4,0.3,0.6,0.5l0.6,0.6l1.3,1.3
							l2.5,2.5c1.6,1.7,3.3,3.4,4.9,5.2c1.6,1.7,3.2,3.5,4.8,5.2l2.4,2.7l1.2,1.3l0.6,0.7l0.3,0.3c0.1,0.2,0.3,0.5,0.5,0.7l-2.1-0.7
							c0.1-0.1,0.3-0.1,0.5-0.2l0.3-0.1l0.5-0.1l0.9-0.2l1.8-0.5l3.7-0.9l7.4-1.8l7.4-1.7l3.7-0.8l1.9-0.4l0.9-0.2l0.5-0.1l0.1,0
							l0.3,0c0.2,0,0.4,0,0.5,0l-1.4,1.7l-0.1-0.4l0-0.3l0-0.4l-0.1-0.8l-0.1-1.7l-0.2-3.3l-0.2-6.7l-0.2-6.7l-0.2-3.3l-0.1-1.7
							l0-0.8l0-0.4c0-0.2,0-0.4,0-0.6l0.2,0.5c-2.4-1.2-4.8-2.4-7.2-3.3c-2.5-1-5-1.8-7.5-2.5c-2.5-0.7-5.1-1.2-7.7-1.7
							c-1.3-0.2-2.6-0.4-3.9-0.6l-3.9-0.4l0.8-0.2c0,0,0,0.1,0,0.1l-0.2,0.3c-0.2,0.2-0.3,0.4-0.5,0.6c-0.3,0.4-0.7,0.9-1,1.3
							l-2,2.6l-4.1,5.3c-1.4,1.8-2.7,3.5-4.1,5.3c-0.7,0.9-1.4,1.7-2.1,2.6l-1.1,1.3C421.8,559.3,421.5,559.8,421.1,560z"/>
						<path d="M480.9,541.6l0.1-1l0.1-0.9l0.1-0.9c0-0.3,0-0.6,0-0.7l-0.6-1.9l2.1,1.2c1.5,0.9,3,1.9,4.3,3.1
							c1.3,1.1,2.4,2.6,3.4,4.1c1,1.5,2.1,2.8,3.3,4.1c1.2,1.3,2.6,2.4,3.8,3.7l5.9,6.3l-7.6-4.7c-1.3-0.8-2.6-1.7-4-2.6
							c-1.3-0.9-2.6-1.9-3.8-2.9c-1.2-1-2.4-2.1-3.6-3.2c-0.6-0.6-1.1-1.1-1.7-1.7L480.9,541.6z M481.2,541.4
							c0.3-0.1,0.8,0.2,1.1,0.3c0.4,0.2,0.8,0.3,1.1,0.5c0.7,0.3,1.5,0.7,2.2,1.1c1.4,0.8,2.8,1.6,4.1,2.5c1.3,0.9,2.6,1.9,3.8,2.9
							c1.2,1.1,2.4,2.1,3.6,3.3l-1.7,1.6c-0.8-1.5-1.6-3.1-2.6-4.4c-1-1.4-2.2-2.6-3.6-3.6c-1.4-1-2.9-2-4.1-3.1
							c-1.2-1.2-2.5-2.3-3.6-3.6l1.5-0.7c-0.1,0.5-0.2,0.7-0.4,1c-0.1,0.3-0.3,0.6-0.4,0.8c-0.1,0.3-0.3,0.5-0.5,0.8
							c-0.1,0.1-0.2,0.3-0.3,0.4l-0.1,0.2C481.3,541.4,481.3,541.6,481.2,541.4z"/>
					</g>
				</g>
				<g>
					<g>
						<path class="st2" d="M440,582.9c-1.4,10.6-4.6,20.6-9.4,30c-0.1,0.1-0.1,0.2-0.2,0.3c-1.4,2-0.9,3.5,0.7,5.3
							c4.2,4.8,8.1,9.9,12.3,14.8c1.3,1.5,2.9,2.8,4.4,4.2c0.4,0.4,1.1,0.6,1.6,0.6c4.5-0.5,9.1-0.7,13.5-1.8
							c5.4-1.5,10.6-3.8,15.9-5.9c0.7-0.3,1.1-1.2,1.5-1.9c2.8-5.4,5.6-10.8,6.9-16.8c0.8-4,1.2-8.1,1.6-12.2
							c0.1-0.8-0.7-1.7-1.2-2.5c-3.2-5.4-6.9-10.4-11.3-14.9c-1.9-2-3.9-4-6.2-5.7c-0.8-0.6-2.4-0.5-3.5-0.3
							C457.5,577.6,448.8,580.1,440,582.9z"/>
						<path d="M440.1,583c-0.1,1-0.1,1.9-0.2,2.9c-0.1,1-0.2,2-0.4,3c-0.3,2-0.6,3.9-1.1,5.9c-0.9,3.9-2,7.7-3.5,11.4
							c-0.7,1.9-1.5,3.7-2.3,5.5l-0.7,1.3l-0.2,0.3l-0.1,0.2l-0.2,0.2l-0.2,0.4c-0.1,0.1-0.1,0.2-0.2,0.2c-0.4,0.7-0.4,1.1-0.2,1.7
							c0.2,0.6,0.8,1.2,1.5,2l1.9,2.3c1.3,1.5,2.5,3.1,3.7,4.6l3.6,4.7l1.8,2.3c0.6,0.8,1.2,1.5,1.8,2.2c0.7,0.7,1.4,1.4,2.1,2
							c0.3,0.3,0.8,0.8,1,0.9c0.2,0.1,0.3,0.2,0.5,0.2c0.1,0,0.2,0,0.2,0c0,0,0.1,0,0.1,0l0.2,0l5.9-0.4c7.9-0.4,15.1-4,22.3-7.1
							l0.7-0.3c0.1,0,0.2-0.1,0.3-0.2c0.2-0.3,0.4-0.6,0.6-1.1l1.3-2.6c0.8-1.8,1.7-3.5,2.4-5.3c1.5-3.6,2.6-7.2,3.1-11
							c0.3-1.9,0.5-3.8,0.7-5.8l0.2-2.9l0.1-1.1c0,0.1-0.1-0.3-0.4-0.7l-0.4-0.6l-0.4-0.7l-0.8-1.2c-0.5-0.8-1-1.6-1.6-2.4
							c-1.1-1.6-2.2-3.2-3.4-4.7c-2.3-3.1-5-5.9-7.7-8.7c-0.7-0.7-1.4-1.3-2.1-2c-0.4-0.3-0.7-0.6-1.1-0.9c-0.1-0.1,0,0-0.1-0.1
							c0,0-0.1,0-0.1-0.1c-0.1,0-0.3-0.1-0.4-0.1c-0.4,0-0.8,0-1.2,0c-0.4,0-0.9,0.1-1.4,0.2c-1,0.1-1.9,0.3-2.9,0.4
							c-3.9,0.6-7.7,1.4-11.5,2.3l-5.7,1.4C443.8,582.1,441.9,582.6,440.1,583z M439.9,582.8c1.9-0.8,3.7-1.5,5.6-2.2
							c1.9-0.7,3.7-1.3,5.6-1.9c3.8-1.2,7.6-2.3,11.5-3.2c1-0.2,1.9-0.4,2.9-0.6c0.9-0.2,2.1-0.4,3.3-0.3c0.3,0,0.6,0.1,1,0.2
							c0.2,0.1,0.4,0.1,0.6,0.2c0.2,0.1,0.4,0.3,0.5,0.3c0.4,0.3,0.8,0.6,1.2,0.9c0.8,0.6,1.6,1.3,2.3,2c3,2.7,5.7,5.7,8.2,8.8
							c1.2,1.6,2.4,3.2,3.5,4.9c0.6,0.8,1.1,1.7,1.6,2.5c0.3,0.4,0.5,0.9,0.8,1.3l0.4,0.6l0.4,0.6c0.3,0.5,0.7,1,0.8,2
							c0,0.1,0,0.3,0,0.4l0,0.2l0,0.1l0,0.4l-0.1,0.7l-0.3,3c-0.2,2-0.5,4-0.9,5.9c-0.4,2-0.8,4-1.5,5.9c-0.7,1.9-1.4,3.8-2.3,5.6
							c-0.8,1.8-1.8,3.6-2.8,5.3l-1.5,2.6c-0.3,0.4-0.5,0.9-1,1.4c-0.2,0.2-0.6,0.5-0.9,0.6l-0.7,0.3c-3.7,1.4-7.4,2.8-11.2,4
							c-1.9,0.6-3.8,1.2-5.7,1.6c-2,0.4-3.9,0.7-5.9,0.9c-2,0.2-3.9,0.4-5.9,0.7l-0.2,0c-0.1,0-0.2,0-0.3,0c-0.2,0-0.3,0-0.5-0.1
							c-0.3-0.1-0.6-0.2-0.9-0.3c-0.1-0.1-0.3-0.2-0.4-0.3l-0.3-0.2l-0.6-0.5c-0.8-0.6-1.5-1.3-2.3-1.9c-0.8-0.7-1.5-1.5-2.1-2.2
							l-2-2.2l-3.9-4.5l-3.8-4.5l-1.9-2.2c-0.6-0.7-1.4-1.6-1.9-2.8c-0.2-0.6-0.4-1.4-0.3-2.1c0.1-0.7,0.4-1.4,0.7-1.9
							c0.4-0.6,0.5-0.7,0.7-1.2l0.7-1.3c0.9-1.7,1.7-3.5,2.5-5.3c0.8-1.8,1.5-3.6,2.2-5.4c0.7-1.8,1.3-3.7,1.9-5.5
							c0.6-1.9,1.1-3.8,1.6-5.7c0.2-1,0.5-1.9,0.7-2.9L439.9,582.8z"/>
					</g>
					<g>
						<path class="st2" d="M418.4,560.8c-6.6,0.4-12.7,1.3-18.5,3.5c-3.4,1.3-6.7,2.5-10.1,3.8c-0.6,0.2-1.2,0.8-1.5,1.4
							c-3.2,6.3-6,12.7-7.4,19.6c-0.6,2.9-0.9,5.9-1.3,8.8c-0.1,0.5,0.1,1.2,0.4,1.7c5.1,7.4,10.8,14.3,16.8,20.9
							c1,1.1,1.8,1.2,3.2,1c8.5-1,16.8-3.1,25.1-5.2c2.5-0.6,3.2-2.5,3.9-4.3c2.3-5.6,4.5-11.2,6.4-17c1.2-3.9,1.8-7.9,2.6-11.9
							c0.1-0.6-0.4-1.4-0.8-1.9c-3.7-4.8-7.5-9.6-11.4-14.3c-1.7-2-3.6-3.8-5.6-5.5C419.8,561,418.8,560.9,418.4,560.8z"/>
						<path d="M418.4,561c-1.9,0.3-3.8,0.5-5.7,0.8c-1.9,0.3-3.8,0.8-5.6,1.2c-1.9,0.5-3.7,1.1-5.4,1.7c-1.8,0.7-3.6,1.5-5.4,2.2
							l-5.4,2.2c-0.5,0.2-0.7,0.3-0.9,0.5c-0.1,0.1-0.2,0.2-0.3,0.3c0,0.1-0.1,0.1-0.1,0.1l-0.1,0.3l-1.2,2.6
							c-1.6,3.5-3.2,7-4.4,10.6c-0.6,1.8-1.2,3.6-1.7,5.5c-0.5,1.8-0.8,3.7-1.1,5.6l-0.5,2.9c-0.1,0.5-0.2,0.8-0.1,1.2
							c0,0.2,0.1,0.4,0.2,0.5l0.4,0.6c1.1,1.6,2.1,3.2,3.3,4.8c2.3,3.1,4.7,6.2,7.3,9.1c1.3,1.5,2.6,2.9,3.9,4.3l2,2.1
							c0.6,0.7,1.2,0.9,2,0.8c0.4,0,0.9-0.1,1.4-0.2l1.4-0.2c0.9-0.2,1.9-0.3,2.8-0.5c1.9-0.4,3.8-0.8,5.6-1.2
							c3.8-0.9,7.5-1.9,11.2-2.8l2.8-0.7c0.8-0.2,1.3-0.5,1.7-1c0.4-0.5,0.7-1.2,1.1-2.1l1.1-2.7c1.4-3.6,2.8-7.2,4.1-10.8
							c0.6-1.8,1.3-3.6,1.8-5.4c0.5-1.8,0.9-3.7,1.3-5.5l0.6-2.8l0.3-1.4c0.1-0.4,0-0.1,0.1-0.2c0-0.1,0-0.2-0.1-0.3
							c-0.1-0.3-0.4-0.6-0.7-1l-0.9-1.2l-1.7-2.3c-2.3-3.1-4.6-6.2-6.9-9.4c-1.1-1.6-2.3-3-3.6-4.5c-0.7-0.7-1.3-1.4-2-2.1l-0.5-0.5
							c-0.2-0.2-0.3-0.3-0.5-0.4C419.4,561.2,418.9,561.1,418.4,561z M418.4,560.7c0.5,0.1,1,0.1,1.5,0.2c0.2,0.1,0.5,0.2,0.7,0.4
							l0.6,0.5c0.8,0.6,1.5,1.2,2.3,1.9c1.5,1.3,2.9,2.7,4.1,4.2c2.5,3,5.1,5.9,7.6,8.9l1.9,2.2l0.9,1.1c0.3,0.3,0.7,0.8,1,1.4
							c0.2,0.3,0.3,0.6,0.4,1c0,0.2,0.1,0.5,0.1,0.7l0,0.2l0,0.1l0,0.2l-0.2,1.4l-0.5,2.9c-0.3,1.9-0.7,3.9-1.2,5.8
							c-0.5,2-1.1,3.8-1.8,5.7c-1.3,3.7-2.7,7.3-4.2,10.9l-1.1,2.7c-0.4,0.9-0.8,2-1.7,3c-0.8,1-2.2,1.6-3.3,1.8l-2.8,0.7
							c-3.8,0.9-7.6,1.7-11.4,2.4c-1.9,0.4-3.9,0.7-5.8,0.9c-1,0.1-1.9,0.2-2.9,0.3l-1.5,0.1c-0.5,0-1,0.1-1.5,0.1
							c-0.6,0-1.2-0.1-1.8-0.4c-0.6-0.3-1-0.7-1.4-1.1l-1.9-2.2l-3.7-4.5c-2.5-3-4.9-6.1-7.3-9.1c-1.2-1.5-2.4-3.1-3.5-4.7l-0.5-0.6
							c-0.2-0.3-0.3-0.6-0.4-0.9c-0.2-0.6-0.1-1.3-0.1-1.7l0.2-2.9c0.3-3.9,0.9-7.9,2.1-11.6c1.1-3.8,2.7-7.4,4.4-11l1.3-2.6
							l0.2-0.4c0.1-0.2,0.2-0.3,0.3-0.5c0.2-0.3,0.5-0.5,0.7-0.7c0.3-0.2,0.5-0.4,0.9-0.6l0.3-0.1l0.2-0.1l0.3-0.1l5.5-2
							c1.8-0.7,3.6-1.3,5.5-1.9c1.9-0.6,3.8-1.1,5.8-1.4c1.9-0.3,3.9-0.5,5.9-0.7C414.5,560.7,416.4,560.6,418.4,560.7z"/>
					</g>
					<g>
						<path class="st2" d="M435.3,538c-4.2-4.6-8.8-8.9-14.2-12.2c-1.9-1.1-3.6-1.3-5.8-0.8c-7.7,1.9-14.7,5.3-21.3,9.6
							c-2.7,1.8-5.2,3.9-7.9,5.9c-3.5,2.6-4.2,6.6-5.5,10.3c-0.5,1.4-0.7,2.9-1,4.3c-0.1,0.6,0,1.4,0.3,1.9c2.4,3.9,5,7.5,8.1,10.1
							c5.7-1.9,10.9-4.1,16.4-5.5c4.6-1.2,9.4-1.4,14.1-2.1c0.5-0.1,1.1-0.3,1.4-0.7C425.1,551.9,430.2,545,435.3,538z"/>
						<path d="M435.1,538c-0.4-0.3-0.7-0.5-1-0.8l-1-0.9l-2.1-1.8c-1.4-1.2-2.8-2.4-4.3-3.5c-1.5-1.1-3-2.2-4.5-3.1
							c-0.4-0.2-0.8-0.5-1.2-0.7c-0.4-0.2-0.8-0.5-1.1-0.6c-0.7-0.3-1.5-0.5-2.2-0.5c-0.8,0-1.5,0.1-2.4,0.4
							c-0.9,0.2-1.8,0.5-2.6,0.8c-1.7,0.6-3.5,1.1-5.1,1.8c-3.4,1.3-6.7,2.8-10,4.6c-1.6,0.9-3.2,1.8-4.8,2.8c-1.5,1-3,2.1-4.5,3.3
							c-0.7,0.6-1.5,1.1-2.2,1.7c-0.7,0.5-1.3,1.2-1.8,2c-1,1.5-1.6,3.2-2.1,5l-0.8,2.7c-0.3,0.9-0.4,1.7-0.6,2.6
							c-0.1,0.4-0.1,0.9-0.2,1.4c0,0.2-0.1,0.5-0.1,0.6c0,0.2,0,0.4,0.1,0.5c0,0.2,0.1,0.3,0.1,0.4c0,0.1,0.2,0.3,0.3,0.5l0.8,1.1
							c2.1,3,4.4,5.8,7.2,8l-1.3-0.2c4.6-1.7,9.1-3.6,13.9-5.1c2.4-0.7,4.9-1.3,7.4-1.7c2.5-0.3,4.9-0.6,7.4-0.8l1.8-0.2l0.3,0
							c0.1,0,0.2,0,0.2-0.1c0.1,0,0.3-0.1,0.2-0.1l2.2-2.8c1.5-1.9,3-3.7,4.5-5.6C428.6,545.8,431.8,542,435.1,538z M435.4,538
							c-2.5,4-5.1,8.1-7.9,12.2c-1.4,2.1-2.8,4.2-4.2,6.3l-2.2,3.2c-0.5,0.5-0.9,0.8-1.3,0.9c-0.2,0.1-0.4,0.2-0.6,0.2
							c-0.1,0-0.2,0.1-0.3,0.1l-0.2,0l-1.8,0.3c-2.5,0.4-4.9,0.6-7.3,1c-2.4,0.4-4.7,0.9-7,1.6c-4.6,1.3-9.2,3.1-13.9,4.6l-0.8,0.2
							l-0.5-0.5c-3-2.6-5.2-5.8-7.1-9l-0.7-1.2c-0.1-0.2-0.2-0.4-0.4-0.7c-0.1-0.3-0.2-0.6-0.2-0.9c0-0.3,0-0.6,0-0.9
							c0-0.3,0.1-0.5,0.1-0.8c0.1-0.5,0.2-0.9,0.3-1.4c0.2-0.9,0.5-1.9,0.8-2.8c0.3-0.9,0.6-1.7,0.9-2.6c0.6-1.8,1.3-3.6,2.4-5.2
							c0.6-0.8,1.2-1.5,2-2.1c0.8-0.6,1.5-1.1,2.2-1.7l4.3-3.5c1.5-1.2,3-2.2,4.6-3.3c3.1-2.1,6.4-4,9.9-5.4
							c1.8-0.7,3.5-1.4,5.4-1.9c0.9-0.3,1.8-0.5,2.8-0.7c0.9-0.2,2-0.4,3.1-0.4c1.1,0.1,2.2,0.4,3.2,0.9c0.5,0.2,0.9,0.5,1.3,0.8
							c0.4,0.3,0.8,0.5,1.2,0.8c1.5,1.1,3,2.3,4.4,3.6c1.4,1.3,2.7,2.6,4,4c0.6,0.7,1.2,1.4,1.8,2.1c0.3,0.4,0.6,0.7,0.9,1.1
							C434.8,537.2,435.2,537.6,435.4,538z"/>
					</g>
					<g>
						<path class="st2" d="M502.3,596.3c1.1-0.2,1.7-0.9,2-2.1c1.2-4.6,2.6-9,3.8-13.6c0.2-0.8-0.1-1.9-0.3-2.8
							c-1.3-5.7-3.9-10.8-6.3-16.1c-2.1-4.5-5.8-7.3-9.4-10.2c-3.3-2.6-6.7-5-9.9-7.7c-1.2-1-2.3-1.3-3.6-0.7
							c-3.2,1.4-6.5,2.8-9.7,4.3c-0.5,0.2-0.8,1.2-0.8,1.8c0.5,4.8,1.1,9.5,1.5,14.3c0.3,3.5,0.3,7,0.5,10.5c0,0.4,0.3,0.8,0.6,1.1
							c2.8,2.8,5.8,5.3,8.3,8.3c3.3,4,6.3,8.2,9.1,12.5c1.2,1.8,2.8,1.4,4.3,1.7C492.7,597.7,499.1,596.9,502.3,596.3z"/>
						<path d="M502.3,596.1c0.7-0.1,1.3-0.5,1.6-1.2c0.3-0.6,0.4-1.3,0.6-2l1-4.2c0.7-2.8,1.3-5.7,1.9-8.4c0.1-0.9-0.5-2.5-0.9-3.8
							c-0.4-1.3-0.9-2.7-1.5-4c-1.1-2.6-2.2-5.2-3.4-7.8c-0.6-1.3-1.1-2.7-1.7-3.9c-0.6-1.2-1.4-2.3-2.3-3.4c-1.8-2.1-4-4-6.2-5.9
							c-2.2-1.9-4.5-3.6-6.8-5.4l-1.7-1.3l-0.9-0.7c-0.3-0.2-0.5-0.4-0.8-0.5c-0.6-0.3-1.2-0.4-1.7-0.2c-0.5,0.2-1.2,0.6-1.9,0.9
							l-7.7,3.8l-0.2,0.1c0,0-0.1,0.1-0.1,0l0.1,0c0,0,0,0-0.1,0.1c-0.1,0.2-0.1,0.5-0.1,0.6l0.3,2l0.6,4.3c0.4,2.9,0.7,5.7,1.1,8.6
							c0.3,2.9,0.4,5.8,0.5,8.7l0.1,1.1c0,0.1,0,0.2,0,0.1c0-0.1,0-0.1,0-0.1c0,0,0,0,0.1,0.1c0.1,0.1,0.4,0.4,0.6,0.6l0.8,0.7
							c1,1,2.1,2,3.1,3c1,1,2.1,2.1,3.1,3.2c1,1.1,1.9,2.3,2.7,3.5c1.7,2.4,3.3,4.8,4.8,7.3l1.1,1.9l0.5,0.9l0.3,0.5
							c0.1,0.1,0.2,0.3,0.2,0.4c0.3,0.5,0.8,0.8,1.4,0.9c0.6,0.2,1.4,0.2,2.1,0.3l0.4,0.3c0-0.1-0.1-0.2-0.2-0.3
							c-0.1-0.1-0.1,0-0.1,0l0,0l0,0l0.1,0l0.3,0l0.6,0c0.4,0,0.8,0,1.2-0.1l2.4-0.2C499.1,596.7,500.7,596.4,502.3,596.1z
							 M502.3,596.4c-1.6,0.3-3.2,0.6-4.8,0.9l-2.4,0.4l-1.2,0.2l-0.6,0.1l-0.3,0l-0.2,0l-0.1,0l-0.1,0c0,0,0,0-0.1,0
							c-0.1-0.1-0.2-0.2-0.2-0.3l0.4,0.3c-0.7-0.1-1.4,0-2.2-0.1c-0.8-0.1-1.7-0.5-2.3-1.1c-0.2-0.1-0.3-0.3-0.4-0.5l-0.3-0.4
							l-0.7-0.9l-1.3-1.7c-1.8-2.3-3.6-4.5-5.4-6.7c-0.9-1.1-1.8-2.2-2.8-3.2c-0.9-1-1.9-2-3-3c-1-1-2.1-1.9-3.2-3l-0.8-0.8
							c-0.3-0.3-0.5-0.4-0.9-0.9c-0.2-0.2-0.3-0.5-0.5-0.8c-0.1-0.2-0.1-0.4-0.2-0.6c0-0.3,0-0.4,0-0.5l-0.1-1.1
							c-0.1-2.9-0.1-5.8-0.3-8.6l-0.7-8.6l-0.3-4.3l-0.1-1.1l0-0.5l0-0.3c0-0.2,0-0.3,0-0.5c0.1-0.6,0.2-1,0.5-1.4
							c0.1-0.2,0.3-0.5,0.6-0.7c0.1-0.1,0.2-0.1,0.3-0.2c0.1-0.1,0.1,0,0.2-0.1l0.3-0.1l8.1-3.2l1-0.4c0.3-0.1,0.7-0.3,1.1-0.4
							c0.8-0.2,1.8,0,2.5,0.4c0.4,0.2,0.7,0.4,1,0.7l0.8,0.7l1.7,1.3c2.3,1.8,4.6,3.4,7,5.2c2.3,1.7,4.7,3.4,6.9,5.5
							c1.1,1.1,2.1,2.2,2.9,3.5c0.9,1.3,1.4,2.7,2.1,3.9c1.3,2.6,2.5,5.3,3.5,8c0.5,1.4,0.9,2.8,1.2,4.3c0.2,0.7,0.3,1.5,0.4,2.2
							c0.1,0.7,0.3,1.6,0,2.6c-0.9,2.8-2,5.5-2.9,8.2c-0.5,1.4-0.9,2.7-1.3,4.1c-0.2,0.7-0.3,1.4-0.7,2.1
							C503.8,595.8,503.1,596.3,502.3,596.4z"/>
					</g>
					<g>
						<path class="st2" d="M434.2,659.1c2.4,4,4.8,8,7.2,11.9c0.7,1.2,1.4,1.6,3,1.4c7.1-1,13.8-3,20.3-6c7.9-3.6,15.4-7.8,21.5-14
							c1.4-1.5,1.8-4,2.7-6c1.1-2.4,0.6-4.4-1.1-6.3c-2.2-2.4-4.3-5-6.4-7.6c-0.7-0.8-1.2-0.9-2.2-0.5c-5.5,2.5-11.1,4.8-17.1,5.7
							c-3.3,0.5-6.7,0.8-10,1.2c-0.9,0.1-1.9,0.1-2.8,0.2c-0.4,0.1-0.8,0.5-1,0.8C445.1,647.5,440.4,653.8,434.2,659.1z"/>
						<path d="M434.4,659.1c1.9,2.6,3.6,5.1,5.3,7.6c0.8,1.2,1.7,2.4,2.5,3.7c0.4,0.6,0.7,0.9,1.1,1c0.4,0.1,1,0,1.8-0.2
							c5.9-1.1,11.7-2.8,17.3-5c5.6-2.2,11.3-4.5,16.3-7.9c2.5-1.7,4.8-3.6,6.9-5.8c1.1-1,1.5-2.4,1.9-3.8c0.2-0.7,0.4-1.5,0.7-2.2
							c0.3-0.7,0.5-1.3,0.5-2c0.1-1.3-0.6-2.4-1.5-3.4c-1-1.1-2.1-2.3-3.1-3.4l-3.1-3.4l-0.7-0.8c-0.2-0.2-0.2-0.1-0.1-0.1
							c0.1,0-0.1,0-0.4,0.2l-1,0.5c-2.8,1.3-5.6,2.6-8.6,3.6c-1.5,0.5-3,1-4.5,1.3c-1.5,0.4-3.1,0.7-4.6,0.8l-4.6,0.5
							c-1.6,0.2-3,0.3-4.6,0.5c-0.8,0-1.5,0-2.1,0.1c0.2-0.1,0,0,0,0c0-0.1-0.1,0.1-0.2,0.3l-0.3,0.5c-0.7,1.4-1.5,2.8-2.3,4.1
							c-1.6,2.7-3.5,5.2-5.6,7.4c-1,1.1-2.2,2.2-3.3,3.3c-0.6,0.5-1.2,1-1.8,1.5C435.5,658.3,435,658.7,434.4,659.1z M434.1,659.1
							l1.6-1.8c0.5-0.6,1-1.1,1.5-1.7c1-1.2,1.9-2.3,2.8-3.6c1.8-2.4,3.4-5,4.8-7.6c0.7-1.3,1.3-2.7,1.9-4.1l0.2-0.5l0.1-0.3
							c0,0,0.1-0.3,0.2-0.5c0.2-0.3,0.4-0.5,0.7-0.8c0.1-0.1,0.3-0.2,0.5-0.3c0.1,0,0.2-0.1,0.3-0.1c0.1,0,0.3-0.1,0.3-0.1
							c0.9-0.2,1.7-0.2,2.4-0.3l9-1.2c5.9-0.7,11.5-2.7,17.1-5.1l1-0.5c0.4-0.2,1-0.4,1.8-0.4c0.4,0,0.8,0.2,1.1,0.4
							c0.3,0.2,0.5,0.4,0.7,0.6c0.2,0.2,0.3,0.4,0.4,0.5l0.4,0.4l2.8,3.6l2.8,3.6c0.5,0.7,1,1.4,1.3,2.2c0.3,0.8,0.4,1.8,0.3,2.7
							c-0.1,0.9-0.4,1.7-0.8,2.4c-0.3,0.6-0.6,1.3-0.8,2.1c-0.3,0.7-0.5,1.5-0.9,2.2c-0.2,0.4-0.4,0.7-0.6,1.1
							c-0.2,0.3-0.6,0.7-0.8,0.9c-2.2,2.1-4.6,4.1-7.1,5.9c-5,3.6-10.3,6.8-15.9,9.4c-2.8,1.3-5.8,2.4-8.8,3.2c-3,0.8-6,1.5-9.1,1.8
							c-0.7,0.1-1.6,0.3-2.7,0c-0.6-0.2-1.1-0.5-1.4-0.9c-0.4-0.4-0.6-0.8-0.8-1.2c-0.8-1.4-1.5-2.8-2.2-4.2
							C436.7,664.4,435.4,661.7,434.1,659.1z"/>
					</g>
					<g>
						<path class="st2" d="M361.1,613.1c0.5,1.9,0.9,3.8,1.5,5.5c2.3,6.6,4.7,13.2,8.6,19.2c3,4.7,6.1,9.3,10.3,12.9
							c0.6,0.5,1.6,0.7,2.3,0.6c4.7-0.7,9.4-1.7,14.1-2.4c1.4-0.2,1.4-0.9,1.3-1.8c-0.6-6.3-1.2-12.6-1.8-18.9
							c-0.1-1.2-0.1-2.5-0.2-3.7c-0.1-2.6-2.1-3.9-3.6-5.5c-1.9-2.1-3.7-4.2-5.6-6.3c-1.6-1.9-3.2-3.8-4.7-5.7c-1.6-2-3-4.1-4.5-6.2
							c-0.5-0.7-1-1.1-2-1c-3.9,0.5-7.7,1.2-11.2,2.9c-0.3,0.1-0.7,0.2-0.7,0.4C363.7,606.5,362.4,609.8,361.1,613.1z"/>
						<path d="M361.2,613.1c0.5,1.3,1,2.8,1.5,4.1c0.5,1.3,1.1,2.7,1.7,4.1c1.1,2.7,2.3,5.4,3.6,8c1.3,2.6,2.6,5.2,4.2,7.6
							c1.6,2.4,3.2,4.9,4.9,7.2c0.8,1.2,1.7,2.3,2.6,3.4c0.5,0.5,0.9,1.1,1.4,1.6c0.2,0.3,0.5,0.5,0.8,0.8c0.1,0.1,0.3,0.3,0.3,0.3
							c0.1,0.1,0.2,0.1,0.3,0.2c0.2,0.1,0.5,0.2,0.8,0.2c0.1,0,0.3,0,0.4,0l0.5-0.1l2.2-0.3l4.4-0.6c1.5-0.2,2.9-0.4,4.4-0.7
							l2.2-0.4c0.8-0.1,1.4-0.2,1.4-0.6c0.1-0.5-0.1-1.3-0.2-2l-0.3-2.2l-0.6-4.4c-0.4-2.9-0.8-5.8-1.2-8.8l-0.3-2.2l-0.2-2.2
							L396,625l0-0.5c0-0.1,0-0.3-0.1-0.4c-0.1-0.5-0.3-1-0.7-1.4c-0.3-0.5-0.8-0.9-1.3-1.4l-0.8-0.8c-0.3-0.3-0.6-0.6-0.8-0.8
							l-3-3.3c-2-2.1-3.9-4.5-5.8-6.8c-0.5-0.6-0.9-1.2-1.4-1.8L381,606c-0.9-1.2-1.7-2.4-2.6-3.6l-0.6-0.8
							c-0.1-0.2-0.2-0.2-0.2-0.3c0,0-0.1-0.1-0.4,0l-1.1,0.1c-1.4,0.2-2.9,0.3-4.3,0.6c-1.4,0.3-2.8,0.6-4.1,1.1
							c-0.7,0.2-1.3,0.5-2,0.8c0,0,0,0,0.1-0.1c0.1-0.2,0-0.1,0,0l-0.1,0.1l-0.2,0.5l-0.5,1C363.9,607.8,362.6,610.4,361.2,613.1z
							 M360.9,613.1c0.8-2.8,1.8-5.6,2.7-8.4l0.4-1.1l0.2-0.5l0-0.1c0-0.1,0,0,0.1-0.3c0.2-0.3,0.4-0.4,0.5-0.5
							c0.7-0.3,1.4-0.7,2.1-1c1.4-0.6,2.8-1.2,4.3-1.6c1.5-0.4,3-0.7,4.4-1l1.1-0.2c0.4-0.1,1.1-0.1,1.8,0.1
							c0.7,0.2,1.2,0.7,1.5,1.1l0.7,0.9c0.9,1.2,1.8,2.3,2.7,3.5l1.3,1.8c0.5,0.6,0.9,1.1,1.4,1.7l2.8,3.4c0.9,1.1,1.9,2.2,2.9,3.3
							l2.9,3.3c0.3,0.3,0.5,0.5,0.7,0.8l0.7,0.8c0.5,0.5,1.1,1.1,1.6,1.9c0.5,0.7,0.9,1.7,1,2.6c0,0.2,0,0.5,0.1,0.7l0,0.6l0,1.1
							l0,2.2l0.1,2.2c0.2,2.9,0.3,5.9,0.4,8.8l0.2,4.4l0.1,2.2l0.1,1.1c0,0.4,0.1,0.8-0.1,1.3c-0.1,0.5-0.6,1-1.1,1.1
							c-0.4,0.1-0.8,0.2-1.2,0.2l-2.2,0.3c-1.5,0.2-2.9,0.5-4.4,0.8l-4.3,0.9l-2.2,0.5l-0.5,0.1c-0.2,0-0.5,0.1-0.7,0.1
							c-0.4,0-0.9-0.1-1.3-0.2c-0.2-0.1-0.4-0.2-0.7-0.3c-0.3-0.2-0.4-0.3-0.5-0.4c-0.3-0.2-0.6-0.5-0.9-0.7c-0.6-0.5-1.1-1-1.7-1.5
							c-1.1-1.1-2.1-2.2-3.1-3.3c-1.9-2.3-3.6-4.8-5.1-7.3c-1.6-2.6-2.9-5.3-4.1-8c-1.1-2.8-2.1-5.6-2.9-8.4
							c-0.4-1.4-0.8-2.8-1.2-4.3C361.4,616.1,361.2,614.7,360.9,613.1z"/>
					</g>
					<g>
						<path class="st2" d="M419.9,523.8c2.5,1.6,5.1,2.9,7.3,4.7c3.1,2.5,6,5.3,9.1,8c0.5,0.5,1.3,0.9,2,1c9,1.1,17.6,3.4,25.6,7.7
							c0.9,0.5,1.8,0.9,2.7,1.3c0.3,0.1,0.8,0.1,1.2-0.1c3.7-1.5,7.4-3.1,11.1-4.7c0.4-0.2,0.8-0.8,1-1.3c1-2.9,1-2.8-1.3-4.6
							c-7-5.3-15-8.5-23.4-10.8c-5.8-1.6-11.6-2.6-17.6-2.8c-5.5-0.2-10.9,0.4-16.2,1.4C420.9,523.7,420.5,523.7,419.9,523.8z"/>
						<path d="M420.1,523.9c0.2,0.1,0.3,0,0.4,0.1l0.5,0.2l0.9,0.5l1.9,0.9c1.3,0.7,2.5,1.3,3.7,2.2c2.4,1.6,4.5,3.5,6.7,5.3
							l1.6,1.4l0.8,0.7c0.3,0.2,0.6,0.5,0.7,0.6c0.2,0.1,0.4,0.3,0.7,0.4c0.1,0,0.2,0.1,0.3,0.1l0.1,0l0.3,0
							c0.7,0.1,1.4,0.2,2.1,0.3c2.8,0.4,5.6,0.9,8.4,1.7c5.5,1.6,10.7,4.1,15.6,6.8l1.9,0.9c0.2,0.1,0.2,0.1,0.4,0.1
							c0.1,0,0.3,0,0.4,0c0.2,0,0.6-0.2,0.9-0.4c1.3-0.6,2.6-1.1,3.9-1.7c1.3-0.6,2.6-1.1,3.8-1.7l1.9-0.9l0.5-0.2l0.2-0.1l0.1-0.1
							c0.1-0.1,0.3-0.3,0.4-0.6c0.1-0.2,0.2-0.6,0.3-0.9c0.1-0.3,0.2-0.7,0.2-0.9c0.1-0.3,0-0.5,0-0.5c0,0-0.1-0.2-0.4-0.4
							c-0.5-0.4-1.1-0.8-1.6-1.1c-0.6-0.4-1.1-0.8-1.7-1.1c-2.3-1.5-4.7-2.8-7.2-3.9c-5-2.3-10.3-3.9-15.7-5.3
							c-5.3-1.4-10.8-2.4-16.3-2.7c-2.8-0.2-5.5-0.1-8.3,0c-1.4,0.1-2.8,0.2-4.2,0.3l-2.1,0.2c-0.3,0-0.7,0.1-1,0.1
							C420.8,523.9,420.5,523.9,420.1,523.9z M419.8,523.8l1.1-0.3l1.1-0.3l2.1-0.5c1.4-0.3,2.8-0.6,4.2-0.8
							c2.8-0.5,5.6-0.8,8.5-0.8c5.7-0.1,11.5,0.6,17,2c5.5,1.4,11,3.3,16.1,5.9c2.6,1.3,5,2.8,7.4,4.5c0.6,0.4,1.1,0.9,1.7,1.3
							c0.6,0.5,1.1,0.9,1.7,1.4c0.3,0.3,0.7,0.7,0.8,1.3c0.2,0.6,0,1.1-0.1,1.5c-0.1,0.4-0.3,0.7-0.4,1.1c-0.1,0.3-0.2,0.6-0.5,1.1
							c-0.2,0.4-0.5,0.7-0.9,1.1c-0.1,0.1-0.2,0.2-0.4,0.2l-0.3,0.1l-0.5,0.2l-2,0.7c-1.3,0.5-2.6,1-3.9,1.5
							c-1.3,0.5-2.6,1.1-3.9,1.6c-0.3,0.1-0.6,0.3-1.1,0.4c-0.2,0-0.4,0.1-0.6,0c-0.2,0-0.5-0.1-0.6-0.2l-1.9-0.9
							c-5-2.6-10.4-4.1-15.8-5.3c-2.7-0.6-5.4-1.1-8.2-1.5c-0.7-0.1-1.4-0.2-2.1-0.3l-0.3,0c-0.1,0-0.3,0-0.4-0.1
							c-0.3-0.1-0.5-0.1-0.7-0.2c-0.4-0.2-0.8-0.4-1.2-0.7c-0.4-0.3-0.6-0.5-0.9-0.8l-0.8-0.7l-1.5-1.5c-2-1.9-4-3.9-6.1-5.8
							c-1-0.9-2.1-1.7-3.3-2.5l-1.7-1.2l-0.9-0.6l-0.4-0.3C420.1,524.1,419.9,523.9,419.8,523.8z"/>
					</g>
					<g>
						<path class="st2" d="M440.8,673.1c-2.5-4.4-4.9-8.5-7.2-12.6c-0.5-0.9-1.2-1.2-2.2-1.3c-6.8-0.8-13.5-2-19.8-4.6
							c-3.2-1.3-6.3-2.9-9.7-3.9c-1.7-0.5-3.8-0.3-5.7,0c-3.8,0.5-7.6,1.2-11.3,1.9c-0.3,0.1-0.6,0.3-1.2,0.5
							C399.8,668.1,419,673.8,440.8,673.1z"/>
						<path d="M440.7,673c-1.7-2.5-3.3-4.9-4.8-7.1c-0.8-1.1-1.5-2.2-2.2-3.3l-1.1-1.6c-0.3-0.4-0.4-0.5-0.9-0.6
							c-0.2,0-0.5-0.1-0.9-0.1l-1-0.1c-0.7-0.1-1.4-0.1-2.1-0.2c-1.4-0.2-2.8-0.4-4.2-0.6c-2.8-0.5-5.5-1.2-8.2-2.1
							c-2.7-0.9-5.2-2.2-7.7-3.5c-1.2-0.6-2.5-1.2-3.7-1.7c-0.6-0.3-1.3-0.5-1.9-0.7c-0.6-0.2-1.3-0.3-1.9-0.4
							c-2.7-0.1-5.4,0.6-8.1,1.1l-4.1,0.8l-2,0.4l-0.5,0.1l-0.3,0.1c-0.1,0,0,0-0.1,0c-0.2,0.1-0.5,0.3-0.9,0.5l0.3-1.5
							c4,3.3,8.1,6.3,12.5,8.8c1.1,0.6,2.2,1.2,3.3,1.8c1.1,0.6,2.3,1.1,3.4,1.6l3.5,1.5c1.2,0.4,2.4,0.9,3.6,1.3
							c4.8,1.7,9.7,2.9,14.8,3.8l3.8,0.6l3.8,0.5L440.7,673z M440.9,673.2c-1.2,0.1-2.6,0.3-4,0.5c-1.3,0.1-2.6,0.1-3.9,0.2
							c-1.3,0-2.6,0-3.9,0c-1.3-0.1-2.6-0.1-3.9-0.2c-5.2-0.4-10.5-1.5-15.5-3.1c-1.3-0.4-2.5-0.9-3.7-1.4c-1.2-0.5-2.4-1-3.6-1.6
							c-1.2-0.6-2.4-1.2-3.5-1.8c-1.1-0.7-2.3-1.3-3.4-2c-4.5-2.8-8.6-6.2-12.2-10l-1-1.1l1.3-0.5c0.3-0.1,0.5-0.2,1-0.4
							c0.1,0,0.3-0.1,0.4-0.1l0.3,0l0.5-0.1l2.1-0.2l4.1-0.5c2.8-0.3,5.4-1,8.4-0.9c0.7,0,1.5,0.1,2.2,0.4c0.7,0.2,1.4,0.4,2,0.6
							c1.3,0.5,2.6,0.9,4,1.4c2.6,1,5.2,1.9,7.8,2.6c2.6,0.7,5.3,1.3,8,1.8c1.3,0.3,2.7,0.5,4,0.7l2,0.3l1,0.2
							c0.3,0.1,0.7,0.1,1.2,0.2c0.4,0.1,0.9,0.3,1.4,0.7c0.4,0.3,0.7,0.8,0.9,1.1l1,2c0.7,1.3,1.3,2.6,1.9,3.9L440.9,673.2z"/>
					</g>
					<g>
						<path class="st24" d="M509.1,582.7c-1.1,3.8-2.4,7.7-3.2,11.7c-0.3,1.5,0.5,3.3,0.7,5c0.7,4.7,1.3,9.3,1.9,13.8
							C511.3,610.8,511.8,589,509.1,582.7z"/>
						<path d="M509.1,582.9c0,0.2,0,0.4,0.1,0.5c0,0.1,0,0.1,0,0.2l0,0.2l-0.1,1c-0.1,0.7-0.2,1.3-0.3,1.9c-0.2,1.3-0.5,2.6-0.7,3.8
							l-0.8,3.7l-0.1,0.5c0,0.1,0,0.2,0,0.3c0,0.2,0,0.5,0,0.7c0.1,0.5,0.2,1.1,0.3,1.8c0.1,0.6,0.2,1.4,0.2,2.1l0,2
							c0,1.3,0.1,2.6,0.2,3.9c0.3,2.6,0.8,5.1,1.4,7.7l-1.4-0.5c0.2-0.2,0.4-0.8,0.5-1.4c0.1-0.6,0.2-1.2,0.3-1.8
							c0.1-1.2,0.2-2.5,0.3-3.7c0.1-2.5,0.1-5.1,0.2-7.6c0.1-2.5,0.1-5.1,0.1-7.6c0-1.3,0-2.5-0.1-3.8c0-0.6-0.1-1.3-0.1-1.9
							c0-0.3-0.1-0.6-0.1-1c0-0.2,0-0.3,0-0.4C509.1,583.2,509.2,583.1,509.1,582.9z M509.1,582.6c0.1,0.1,0.2,0.3,0.4,0.5
							c0.1,0.2,0.2,0.4,0.3,0.5c0.2,0.3,0.3,0.6,0.4,0.9c0.3,0.6,0.5,1.2,0.7,1.9c0.4,1.3,0.7,2.6,0.9,3.9c0.5,2.6,0.7,5.2,0.7,7.8
							c0,2.6-0.2,5.2-0.6,7.9c-0.2,1.3-0.4,2.6-0.8,3.9c-0.2,0.7-0.4,1.3-0.7,2c-0.3,0.7-0.6,1.3-1.3,2l-1.3,1.2l-0.1-1.7
							c-0.1-2.6-0.3-5.2-0.7-7.7c-0.2-1.3-0.5-2.5-0.9-3.8l-0.5-1.9c-0.2-0.6-0.3-1.1-0.5-1.8c-0.2-0.6-0.4-1.3-0.5-2
							c-0.1-0.4-0.1-0.8-0.1-1.2c0-0.2,0-0.4,0.1-0.7l0.1-0.5c0.3-1.3,0.7-2.6,1.1-3.8c0.4-1.2,0.9-2.5,1.4-3.7
							c0.3-0.6,0.5-1.2,0.8-1.8l0.4-0.9l0.1-0.2c0-0.1,0.1-0.2,0.2-0.3C508.9,582.8,509.1,582.7,509.1,582.6z"/>
					</g>
					<g>
						<path class="st25" d="M360.6,587.1c-1.5,8.2-1.3,15.9,0.3,23.7c1.1-2.6,2.3-5.2,3.1-7.9c0.3-1.2-0.4-2.7-0.7-4.1
							C362.5,595.1,361.6,591.3,360.6,587.1z"/>
						<path d="M360.6,587.3c0,0.3,0,0.6,0.1,0.9c0.1,0.2,0.1,0.4,0.2,0.6c0,0.5,0.1,1,0.1,1.5c0,1,0,2,0,3c0,2,0,3.9-0.1,5.8
							c-0.1,1.9-0.5,3.9-0.4,5.9c0.1,2,0.5,3.9,1.2,5.8l-1.5-0.1c0.5-2,1.2-4,1.8-5.9c0.1-0.5,0.3-0.9,0.4-1.4l0.2-0.7
							c0-0.1,0-0.2,0-0.3c-0.1-0.6-0.4-1.5-0.7-2.6l-0.1-0.4l-0.1-0.3c0-0.2-0.1-0.4-0.1-0.7c-0.1-0.4-0.1-0.9-0.2-1.3
							c-0.1-0.9-0.1-1.8-0.2-2.8C361.2,592.1,361.1,589.8,360.6,587.3z M360.6,587c0.5,1.5,1.3,3.2,2.2,5.2c0.4,1,0.9,2.1,1.3,3.2
							c0.2,0.6,0.4,1.1,0.5,1.7l0.4,1.6c0.2,0.9,0.7,1.9,0.7,3.4c0,0.4-0.1,0.8-0.2,1.2c-0.1,0.3-0.2,0.5-0.3,0.8
							c-0.2,0.5-0.4,1-0.6,1.5c-0.8,2-1.9,3.7-3,5.5l-1.3,2.2l-0.2-2.3c-0.2-2-0.4-4-0.7-6c-0.4-2-1-4-1.2-6c-0.2-2,0-4.1,0.3-6.1
							c0.2-1,0.4-2,0.7-3c0.1-0.5,0.3-0.9,0.5-1.5c0.1-0.3,0.3-0.6,0.4-0.9C360.4,587.4,360.5,587.2,360.6,587z"/>
					</g>
					<g>
						<path class="st24" d="M381.3,545.5c-5.5,6-10.5,12-14,19.5c2.6-2,4.8-3.8,7.1-5.4c3-2,4.1-4.4,5.2-8.3
							C379.6,551.3,380.6,547.8,381.3,545.5z"/>
						<path d="M381.2,545.6c-0.2,0.3-0.3,0.5-0.4,0.8c-0.1,0.2-0.1,0.4-0.2,0.6c-0.3,0.4-0.5,0.9-0.8,1.3c-0.5,0.9-1.1,1.7-1.7,2.5
							c-1.2,1.6-2.3,3.2-3.6,4.7c-1.3,1.5-2.8,2.9-4,4.5c-1.2,1.6-2,3.5-2.6,5.4l-1.2-0.9c1.5-1.5,2.9-3,4.6-4.3l1.2-1l1.2-1
							c0.7-0.6,1.3-1.2,1.9-1.9c1.1-1.4,1.9-3.2,2.7-5.1c0.4-0.8,0.8-1.5,1.3-2.4C380.2,547.9,380.8,546.8,381.2,545.6z
							 M381.4,545.4c-0.1,0.8-0.2,1.7-0.2,2.9c0,1.1-0.2,2.5-0.5,3.6c-0.4,2.1-1,4.3-2.4,6.3c-0.7,1-1.6,1.8-2.6,2.5l-2.6,1.7
							c-0.9,0.6-1.7,1.2-2.6,1.7c-0.9,0.6-1.8,1.1-2.7,1.6l-2.8,1.7l1.7-2.6c1.1-1.7,2.2-3.4,3.1-5.2c0.9-1.8,1.7-3.7,2.8-5.5
							c1.1-1.7,2.5-3.3,3.9-4.7c0.7-0.7,1.5-1.4,2.3-2.1c0.4-0.3,0.8-0.6,1.2-1c0.3-0.2,0.6-0.4,0.8-0.5
							C381,545.6,381.2,545.5,381.4,545.4z"/>
					</g>
					<g>
						<path class="st25" d="M507,619.3c-1,1.9-1.9,3.5-2.7,5.1c-3.5,6.6-7.8,12.6-12.6,18.3c-1.1,1.3-1.2,3.5-1.8,5.2
							c-0.1,0.4-0.2,0.9-0.4,1.3C493.8,647.1,505.9,626.6,507,619.3z"/>
						<path d="M507,619.4c-0.4,0.8-0.7,1.6-0.9,2.3c-0.2,0.7-0.4,1.4-0.6,2c-0.2,0.6-0.4,1.1-0.7,1.8c-0.3,0.7-0.6,1.4-0.9,2
							c-0.7,1.3-1.4,2.6-2.2,3.9c-0.8,1.3-1.6,2.5-2.5,3.6c-1.9,2.3-4,4.3-6,6.5c-0.5,0.5-1,1.1-1.4,1.6c-0.3,0.5-0.6,1.2-0.7,1.9
							c-0.2,0.7-0.3,1.4-0.4,2.2c-0.2,0.8-0.3,1.5-0.4,2.2l-1.2-0.9l0.7-0.6l0.7-0.8c0.4-0.5,0.8-1.1,1.3-1.7
							c0.4-0.6,0.8-1.2,1.2-1.8l1.2-1.8c1.5-2.4,3-5,4.4-7.4c1.5-2.5,3-5,4.4-7.5c0.7-1.3,1.4-2.5,2.1-3.8c0.3-0.6,0.7-1.3,1-1.9
							l0.2-0.5c0.1-0.2,0.1-0.3,0.2-0.4C506.6,620.2,506.9,619.9,507,619.4z M507.1,619.2c0,0.3,0.1,0.7,0,1.2c0,0.2,0,0.5-0.1,0.7
							l-0.1,0.6c-0.1,0.7-0.3,1.5-0.5,2.2c-0.2,0.7-0.4,1.5-0.6,2.2c-0.2,0.7-0.5,1.4-0.7,2.1c-1.1,2.8-2.3,5.5-3.8,8.1
							c-1.4,2.6-3.1,5.1-4.9,7.4c-0.9,1.2-1.8,2.4-2.9,3.5c-0.5,0.5-1.1,1.1-1.7,1.6l-0.9,0.7c-0.4,0.2-0.8,0.4-1.1,0.7l-1.9,1
							l0.7-2c0.3-0.7,0.5-1.4,0.8-2c0.2-0.7,0.4-1.4,0.6-2.1c0.2-0.7,0.5-1.5,0.9-2.1c0.5-0.7,0.9-1.1,1.4-1.8
							c1.8-2.3,3.2-4.9,4.7-7.4c0.8-1.2,1.5-2.4,2.4-3.6l2.4-3.6l1.2-1.8c0.4-0.6,0.8-1.3,1.4-2c0.5-0.7,1-1.3,1.5-1.9
							C506.4,620.2,506.8,619.7,507.1,619.2z"/>
					</g>
				</g>
				<g>
					<g>
						<path class="st24" d="M360.6,587.1c-1.5,8.2-1.3,15.9,0.3,23.7c1.1-2.6,2.3-5.2,3.1-7.9c0.3-1.2-0.4-2.7-0.7-4.1
							C362.5,595.1,361.6,591.3,360.6,587.1z"/>
						<path d="M360.6,587.3c0,0.3,0,0.6,0.1,0.9c0.1,0.2,0.1,0.4,0.2,0.6c0,0.5,0.1,1,0.1,1.5c0,1,0,2,0,3c0,2,0,3.9-0.1,5.8
							c-0.1,1.9-0.5,3.9-0.4,5.9c0.1,2,0.5,3.9,1.2,5.8l-1.5-0.1c0.5-2,1.2-4,1.8-5.9c0.1-0.5,0.3-0.9,0.4-1.4l0.2-0.7
							c0-0.1,0-0.2,0-0.3c-0.1-0.6-0.4-1.5-0.7-2.6l-0.1-0.4l-0.1-0.3c0-0.2-0.1-0.4-0.1-0.7c-0.1-0.4-0.1-0.9-0.2-1.3
							c-0.1-0.9-0.1-1.8-0.2-2.8C361.2,592.1,361.1,589.8,360.6,587.3z M360.6,587c0.5,1.5,1.3,3.2,2.2,5.2c0.4,1,0.9,2.1,1.3,3.2
							c0.2,0.6,0.4,1.1,0.5,1.7l0.4,1.6c0.2,0.9,0.7,1.9,0.7,3.4c0,0.4-0.1,0.8-0.2,1.2c-0.1,0.3-0.2,0.5-0.3,0.8
							c-0.2,0.5-0.4,1-0.6,1.5c-0.8,2-1.9,3.7-3,5.5l-1.3,2.2l-0.2-2.3c-0.2-2-0.4-4-0.7-6c-0.4-2-1-4-1.2-6c-0.2-2,0-4.1,0.3-6.1
							c0.2-1,0.4-2,0.7-3c0.1-0.5,0.3-0.9,0.5-1.5c0.1-0.3,0.3-0.6,0.4-0.9C360.4,587.4,360.5,587.2,360.6,587z"/>
					</g>
					<g>
						<path class="st24" d="M507,619.3c-1,1.9-1.9,3.5-2.7,5.1c-3.5,6.6-7.8,12.6-12.6,18.3c-1.1,1.3-1.2,3.5-1.8,5.2
							c-0.1,0.4-0.2,0.9-0.4,1.3C493.8,647.1,505.9,626.6,507,619.3z"/>
						<path d="M507,619.4c-0.4,0.8-0.7,1.6-0.9,2.3c-0.2,0.7-0.4,1.4-0.6,2c-0.2,0.6-0.4,1.1-0.7,1.8c-0.3,0.7-0.6,1.4-0.9,2
							c-0.7,1.3-1.4,2.6-2.2,3.9c-0.8,1.3-1.6,2.5-2.5,3.6c-1.9,2.3-4,4.3-6,6.5c-0.5,0.5-1,1.1-1.4,1.6c-0.3,0.5-0.6,1.2-0.7,1.9
							c-0.2,0.7-0.3,1.4-0.4,2.2c-0.2,0.8-0.3,1.5-0.4,2.2l-1.2-0.9l0.7-0.6l0.7-0.8c0.4-0.5,0.8-1.1,1.3-1.7
							c0.4-0.6,0.8-1.2,1.2-1.8l1.2-1.8c1.5-2.4,3-5,4.4-7.4c1.5-2.5,3-5,4.4-7.5c0.7-1.3,1.4-2.5,2.1-3.8c0.3-0.6,0.7-1.3,1-1.9
							l0.2-0.5c0.1-0.2,0.1-0.3,0.2-0.4C506.6,620.2,506.9,619.9,507,619.4z M507.1,619.2c0,0.3,0.1,0.7,0,1.2c0,0.2,0,0.5-0.1,0.7
							l-0.1,0.6c-0.1,0.7-0.3,1.5-0.5,2.2c-0.2,0.7-0.4,1.5-0.6,2.2c-0.2,0.7-0.5,1.4-0.7,2.1c-1.1,2.8-2.3,5.5-3.8,8.1
							c-1.4,2.6-3.1,5.1-4.9,7.4c-0.9,1.2-1.8,2.4-2.9,3.5c-0.5,0.5-1.1,1.1-1.7,1.6l-0.9,0.7c-0.4,0.2-0.8,0.4-1.1,0.7l-1.9,1
							l0.7-2c0.3-0.7,0.5-1.4,0.8-2c0.2-0.7,0.4-1.4,0.6-2.1c0.2-0.7,0.5-1.5,0.9-2.1c0.5-0.7,0.9-1.1,1.4-1.8
							c1.8-2.3,3.2-4.9,4.7-7.4c0.8-1.2,1.5-2.4,2.4-3.6l2.4-3.6l1.2-1.8c0.4-0.6,0.8-1.3,1.4-2c0.5-0.7,1-1.3,1.5-1.9
							C506.4,620.2,506.8,619.7,507.1,619.2z"/>
					</g>
				</g>
			</g>
		</g>
		<g>
			<g>
				<path d="M331.2,483.5c-1.1,5.5-2.6,10.9-4,16.3l-4.5,16c-1.5,5.3-2.9,10.6-4.2,15.9c-1.2,5.3-2.4,10.7-2.6,16.3
					c-1-2.7-1.4-5.6-1.5-8.4c-0.1-2.9,0-5.7,0.3-8.5c0.6-5.7,1.8-11.2,3.3-16.6c1.5-5.4,3.4-10.7,5.6-15.9
					C325.7,493.3,328.1,488.2,331.2,483.5z"/>
			</g>
			<g>
				<path class="st1" d="M316.3,452.9c0,0-106.3,100.9-30.1,154.5c22.9,16.1,37,23.2,58.6,20.4c19.5-2.5,29.7-12.7,33.1-28
					c6.9-30.9-24.6-54.3-71.3-62"/>
				<path d="M316.5,453.1c-5.6,6.1-11,12.4-16.1,18.8c-5.1,6.5-10,13.1-14.5,20c-4.5,6.9-8.8,13.9-12.4,21.2
					c-3.7,7.3-6.8,14.9-9.1,22.7c-2.3,7.8-3.6,15.8-3.5,23.8c0.1,8,1.8,16,5.3,23.3c3.5,7.3,8.7,13.7,14.8,19.1
					c3.1,2.7,6.4,5.1,9.8,7.5c3.4,2.4,6.8,4.7,10.4,6.8c3.5,2.1,7.2,4,11,5.6c3.8,1.6,7.7,2.8,11.6,3.6c7.9,1.6,16.1,1.1,24-0.4
					c7.8-1.5,15.3-4.8,20.4-10.6c2.6-2.8,4.5-6.2,5.8-9.9c1.3-3.6,2.2-7.5,2.3-11.4c0.2-3.8-0.3-7.7-1.4-11.4
					c-1.1-3.7-2.9-7.1-5.1-10.3c-2.2-3.2-4.9-6.1-7.9-8.8c-2.9-2.7-6.2-5.1-9.6-7.2c-3.4-2.2-7-4.1-10.6-5.9
					c-3.7-1.8-7.4-3.4-11.3-4.8c-7.7-2.9-15.6-5.1-23.7-7l0.1-0.5c8.3,0.8,16.5,2.3,24.6,4.6c8.1,2.3,15.9,5.4,23.3,9.6
					c3.7,2.1,7.2,4.5,10.5,7.3c3.3,2.8,6.3,5.9,8.9,9.5c5.2,7,8.1,16.1,7.4,25c-0.2,2.2-0.5,4.4-1,6.5c-0.5,2.1-1.1,4.2-1.9,6.3
					c-1.6,4.1-3.9,8-6.9,11.3c-3,3.3-6.7,5.9-10.7,7.8c-4,1.9-8.2,3.1-12.4,3.8c-8.4,1.4-17.2,1.2-25.4-1.1
					c-4.1-1.1-8.1-2.6-11.8-4.5c-3.8-1.8-7.4-3.9-10.9-6.1c-3.5-2.2-7-4.5-10.5-6.8c-1.7-1.2-3.5-2.3-5.2-3.5
					c-1.7-1.2-3.4-2.5-5-3.8c-6.5-5.3-12.3-11.7-16.3-19.2c-4.1-7.5-6.3-16-6.6-24.6c-0.4-8.6,1-17.1,3.4-25.2
					c4.9-16.3,13.3-31,22.9-44.6c4.8-6.8,10.1-13.3,15.6-19.5c5.6-6.2,11.3-12.2,17.5-17.7L316.5,453.1z"/>
			</g>
			<path d="M369.9,613.8c-3.7,1.2-15,1.3-20.1-1.2s13.9,8.4,17.6,5.2C371,614.7,369.9,613.8,369.9,613.8z"/>
			<path d="M380,594.2c-3.7,1.2-15,1.3-20.1-1.2c-5.1-2.5,13.9,8.4,17.6,5.2C381.2,595.1,380,594.2,380,594.2z"/>
		</g>
		<g>
			<g>
				<path d="M518.8,475c3.1,4.8,5.5,9.8,7.7,15c2.2,5.2,4.1,10.5,5.6,15.9c1.5,5.4,2.7,11,3.3,16.6c0.3,2.8,0.4,5.7,0.3,8.5
					c-0.2,2.9-0.5,5.7-1.5,8.4c-0.2-5.6-1.4-11-2.6-16.3c-1.3-5.3-2.7-10.6-4.2-15.9l-4.5-16C521.4,485.9,520,480.5,518.8,475z"/>
			</g>
			<g>
				<path class="st1" d="M533.7,444.4c0,0,106.3,100.9,30.1,154.5c-22.9,16.1-37,23.2-58.6,20.4c-19.5-2.5-29.7-12.7-33.1-28
					c-6.9-30.9,24.6-54.3,71.3-62"/>
				<path d="M533.9,444.3c6.2,5.5,12,11.5,17.5,17.7c5.5,6.2,10.8,12.7,15.6,19.5c9.7,13.6,18.1,28.4,22.9,44.6
					c2.4,8.1,3.8,16.6,3.4,25.2c-0.3,8.6-2.6,17.1-6.6,24.6c-4.1,7.5-9.8,14-16.3,19.2c-1.6,1.3-3.3,2.6-5,3.8
					c-1.7,1.2-3.5,2.3-5.2,3.5c-3.5,2.3-6.9,4.6-10.5,6.8c-3.6,2.2-7.2,4.3-10.9,6.1c-3.8,1.9-7.7,3.4-11.8,4.5
					c-8.2,2.3-17,2.5-25.4,1.1c-4.2-0.7-8.4-1.9-12.4-3.8c-4-1.9-7.7-4.5-10.7-7.8c-3-3.3-5.3-7.2-6.9-11.3
					c-0.8-2.1-1.4-4.2-1.9-6.3c-0.5-2.1-0.8-4.3-1-6.5c-0.7-8.9,2.2-18,7.4-25c2.6-3.6,5.6-6.7,8.9-9.5c3.3-2.8,6.9-5.2,10.5-7.3
					c7.4-4.2,15.3-7.3,23.3-9.6c8.1-2.3,16.3-3.8,24.6-4.6l0.1,0.5c-8.1,1.9-16,4.1-23.7,7c-3.9,1.4-7.6,3-11.3,4.8
					c-3.7,1.7-7.2,3.7-10.6,5.9c-3.4,2.2-6.6,4.6-9.6,7.2c-3,2.7-5.7,5.6-7.9,8.8c-2.2,3.2-4,6.7-5.1,10.3
					c-1.1,3.7-1.6,7.5-1.4,11.4c0.2,3.8,1,7.7,2.3,11.4c1.3,3.6,3.3,7,5.8,9.9c5.1,5.8,12.6,9.1,20.4,10.6c7.9,1.5,16.1,2.1,24,0.4
					c4-0.8,7.9-2,11.6-3.6c3.8-1.6,7.4-3.5,11-5.6c3.6-2.1,7-4.4,10.4-6.8c3.4-2.4,6.7-4.8,9.8-7.5c6.1-5.4,11.3-11.9,14.8-19.1
					c3.5-7.3,5.2-15.3,5.3-23.3c0.1-8-1.2-16.1-3.5-23.8c-2.2-7.8-5.4-15.4-9.1-22.7c-3.7-7.3-7.9-14.4-12.4-21.2
					c-4.6-6.9-9.4-13.5-14.5-20c-5.1-6.5-10.5-12.8-16.1-18.8L533.9,444.3z"/>
			</g>
			<path d="M480.1,605.3c3.7,1.2,15,1.3,20.1-1.2c5.1-2.5-13.9,8.4-17.6,5.2S480.1,605.3,480.1,605.3z"/>
			<path d="M470,585.7c3.7,1.2,15,1.3,20.1-1.2c5.1-2.5-13.9,8.4-17.6,5.2S470,585.7,470,585.7z"/>
		</g>
		<path class="st8" d="M306.2,665.5c0,0,148.4,84.6,277.8-35.8c0,0-2.4,16.1-4.6,23.8c-2.2,7.6-131.9,115.1-273.1,15.4L306.2,665.5z
			"/>
		<path class="st9" d="M309.5,464.5c0,0-62,71-42,111C267.5,575.5,265.5,519.5,309.5,464.5z"/>
		<path class="st9" d="M496.5,553c0,0-30.5,24-15.5,47C481,600,458.9,567.1,496.5,553z"/>
		<path d="M573.3,494.5c0,0,29.1,64.8-30.3,116.5C543,611,627.6,574,573.3,494.5z"/>
		<path d="M374,574c0,0,5,48-49.1,53.3C324.9,627.3,389,638,374,574z"/>
		<ellipse class="st26" cx="431.2" cy="768.6" rx="183.8" ry="31.6"/>
		<ellipse class="st26" cx="336.6" cy="767.4" rx="44.4" ry="11.6"/>
		<ellipse class="st26" cx="522.6" cy="767.4" rx="44.4" ry="11.6"/>
	</g>
	<g>
		<path d="M527.6,214.9c0,0,30.5-81.7,81.4-13.2c25.6,34.5-3.7,67.1-27,73C558.8,280.5,527.6,214.9,527.6,214.9z"/>
		<path d="M327.8,210.4c0,0-39.9-71.8-88.9-19s26.6,83.9,34.4,83.5S326.2,242.4,327.8,210.4z"/>
		<path class="st1" d="M303.6,222.1c0,0-8.3-31.2-36.9-42.9c-15.4-6.3-57.2,50.8-23.6,73.1c23.8,15.9,38.4,16.1,38.4,16.1
			S307.5,256.8,303.6,222.1z"/>
		<path class="st1" d="M523.7,222.9c0,0,9.6-41.4,44.6-41.8c35-0.3,35.2,32.2,19.6,47.4c-15.6,15.2-46,23.7-46,23.7L523.7,222.9z"/>
		<path class="st9" d="M583.9,183.9c-4.1-1.8-9.3-2.8-15.6-2.7c-35,0.3-44.6,41.8-44.6,41.8l2.5,4c3.3-14.8,13.3-34.7,42-40.7
			C574.1,185.1,579.3,184.3,583.9,183.9z"/>
		<path class="st9" d="M243.1,252.4c23.8,15.9,38.4,16.1,38.4,16.1s1.5-0.7,3.8-2.2c-16-3.9-32.7-11.3-42.4-26.9
			c-13.6-21.9,2.7-45.3,16.1-59.3c-0.3,0.1-0.6,0.3-0.9,0.4l-12.9,11.3C231.3,208.7,221.3,237.9,243.1,252.4z"/>
		<g>
			<path class="st2" d="M436.3,189.9c0,0,89.9-12.1,138.1,75.4s14.2,138.7,2.4,157.3s-39,52.4-156.7,57.5
				C307.4,485.1,234,445.8,259,313.5S436.3,189.9,436.3,189.9z"/>
			<path d="M436.3,189.7c5.3-0.6,10.7-0.6,16-0.5c5.4,0.2,10.7,0.7,16,1.4c10.6,1.5,21.1,4.1,31.1,7.9c10,3.8,19.7,8.6,28.6,14.5
				c8.9,5.9,17.2,12.9,24.5,20.8c7.3,7.8,13.8,16.5,19.4,25.7c5.5,9.2,10.4,18.8,14.6,28.7c4.2,9.9,7.7,20.1,10.2,30.6
				c2.5,10.5,3.9,21.2,4,32c0.1,10.8-1.2,21.6-4,32.1c-2.7,10.5-7,20.5-12.3,29.9c-1.3,2.4-2.7,4.7-4.1,6.9
				c-1.4,2.3-2.8,4.5-4.4,6.8c-1.5,2.2-3.1,4.4-4.9,6.5c-1.8,2.1-3.6,4.1-5.5,6c-7.7,7.7-16.9,13.8-26.6,18.6
				c-4.8,2.4-9.8,4.5-14.9,6.5c-2.5,0.9-5.1,1.9-7.6,2.7l-3.8,1.2l-3.9,1.1c-10.4,3-20.9,5.3-31.5,7c-10.6,1.8-21.3,3.1-32,4
				c-10.7,1-21.4,1.7-32.1,2c-21.5,0.6-43.1-0.2-64.4-4.3c-10.6-2.1-21.1-4.9-31.2-9.1c-10.1-4.1-19.7-9.5-28.3-16.4
				c-8.6-6.9-15.9-15.3-21.6-24.7c-5.7-9.4-9.7-19.8-12.2-30.4c-2.5-10.6-3.7-21.5-3.9-32.3c-0.2-10.8,0.5-21.7,1.8-32.4
				c0.7-5.4,1.5-10.7,2.5-16c0.9-5.3,2.1-10.6,3.5-15.9c2.9-10.5,6.7-20.7,11.8-30.3c5-9.6,11.3-18.6,18.4-26.7
				c7.2-8.1,15.4-15.3,24.2-21.5c17.7-12.4,38-20.7,58.8-25.9c10.4-2.6,21-4.5,31.6-5.7c5.3-0.6,10.7-1,16-1.3
				C425.6,189.5,431,189.5,436.3,189.7z M436.4,190.2c-5.4-0.2-10.7-0.1-16,0.2c-5.3,0.3-10.7,0.8-16,1.4
				c-10.6,1.3-21.1,3.4-31.4,6.1c-20.6,5.6-40.4,14.3-57.5,26.8c-8.5,6.3-16.4,13.5-23.2,21.5c-6.8,8.1-12.7,16.9-17.3,26.4
				c-4.8,9.4-8.3,19.4-11,29.6c-1.3,5.1-2.4,10.3-3.2,15.5c-0.9,5.2-1.7,10.5-2.3,15.7c-1.3,10.5-1.9,21.1-1.7,31.7
				c0.2,10.5,1.4,21.1,3.8,31.2c2.4,10.2,6.2,20,11.5,29c5.3,8.9,12.2,16.9,20.3,23.5c8.1,6.6,17.3,11.8,27,15.9
				c9.7,4,19.9,6.9,30.3,9c20.8,4.1,42.1,5.2,63.4,4.7c10.6-0.3,21.3-0.9,31.9-1.8c10.6-0.9,21.2-2.1,31.7-3.8
				c10.5-1.7,20.9-3.9,31.1-6.8l3.8-1.1l3.8-1.2c2.5-0.8,5-1.7,7.5-2.6c5-1.9,9.8-3.9,14.6-6.2c9.4-4.7,18.4-10.5,25.9-17.9
				c3.7-3.7,7.1-7.7,10.1-12.1c1.5-2.2,2.9-4.4,4.3-6.7c1.4-2.2,2.8-4.5,4.1-6.8c5.3-9.2,9.5-19,12.2-29.2
				c2.8-10.2,4.1-20.8,4.1-31.4c0-21.2-5.2-42.3-13.4-61.9c-4.1-9.8-8.8-19.4-14.2-28.6c-5.4-9.2-11.7-17.9-18.9-25.7
				c-14.4-15.7-32.5-28.1-52.5-35.6c-10-3.7-20.4-6.4-31-7.9c-5.3-0.8-10.6-1.2-15.9-1.4C447,189.5,441.7,189.6,436.4,190.2z"/>
		</g>
		<path class="st1" d="M527.6,330.8c35.3,37.1-4.9,93.5-53.2,70.6c-18.9-9-34-65-2.7-88.4C489.3,299.9,511.4,313.8,527.6,330.8z"/>
		<path class="st1" d="M315.3,326.3c-35.4,37,4.6,93.6,52.9,70.8c18.9-8.9,34.2-64.9,2.9-88.4C353.7,295.5,331.5,309.3,315.3,326.3z
			"/>
		<g>
			
				<ellipse transform="matrix(0.999 -4.369257e-02 4.369257e-02 0.999 -15.5221 21.8592)" cx="492.3" cy="366" rx="20.5" ry="25.9"/>
			<path class="st2" d="M477.7,350.4c-0.8,0-1.5,0.2-2.2,0.4c-1.6,2.8-2.7,6-3.2,9.4c1.4,1.3,3.6,2.1,6,2c4.1-0.2,7.4-3,7.2-6.2
				C485.3,352.7,481.8,350.3,477.7,350.4z"/>
			
				<ellipse transform="matrix(0.999 -4.369257e-02 4.369257e-02 0.999 -16.4065 21.914)" class="st10" cx="493.1" cy="386.3" rx="7" ry="3"/>
		</g>
		<g>
			
				<ellipse transform="matrix(0.999 -4.369257e-02 4.369257e-02 0.999 -15.5912 15.7478)" cx="352.5" cy="364.5" rx="20.5" ry="25.9"/>
			
				<ellipse transform="matrix(0.999 -4.369257e-02 4.369257e-02 0.999 -16.4755 15.8026)" class="st10" cx="353.3" cy="384.8" rx="7" ry="3"/>
			<path class="st2" d="M372.5,359.5c-0.6-3.7-1.9-7.2-3.7-10.1c-0.7-0.1-1.5-0.2-2.3-0.1c-4.6,0.2-8.2,3-8.1,6.3
				c0.1,3.3,4,5.8,8.6,5.6C369.2,361.1,371,360.4,372.5,359.5z"/>
		</g>
		<path d="M439.4,393.8c0.2,5.3-10.8,11.3-14.6,11.5c-3.8,0.2-14.8-4.5-15-10.1c-0.1-2.8,6.9-5.5,14.2-5.6
			C431.5,389.4,439.3,391.2,439.4,393.8z"/>
		<g>
			<path d="M406.9,423.8c3.9,1.8,7.1,3.6,10.2,5c3.1,1.4,5.9,2.3,8.5,2.6c2.6,0.3,5.1,0.1,8.2-0.9c3.1-0.9,6.3-2.6,10.3-4.2
				c-0.7,4.3-2.9,8-6.3,11c-1.7,1.5-3.8,2.7-6.1,3.4c-2.3,0.7-4.9,1-7.3,0.7c-2.4-0.3-4.8-1.1-6.8-2.2c-2-1.1-3.8-2.5-5.2-4.1
				c-1.5-1.6-2.7-3.3-3.6-5.2C407.8,428,407.1,426,406.9,423.8z"/>
		</g>
		<path class="st8" d="M495.6,195.6c23.4,27.2,62.2,80.2,61.8,132.7c-0.5,68.1-15.6,88.8-63.3,141.9c57.3-17.5,71.3-40.6,80.2-54.5
			c11.9-18.6,43.6-64-4.5-151.4C547.7,224,522.6,204.5,495.6,195.6z"/>
	</g>
</g>
</svg>
